<svg xmlns="http://www.w3.org/2000/svg" xmlns:xlink="http://www.w3.org/1999/xlink" width="500" zoomAndPan="magnify" viewBox="0 0 375 374.999991" height="500" preserveAspectRatio="xMidYMid meet" version="1.0"><defs><g/></defs><g fill="#38b6ff" fill-opacity="1"><g transform="translate(101.762842, 167.357539)"><g><path d="M 27.40625 -47.1875 L 46.453125 0 L 34.890625 0 L 31.40625 -9.4375 L 13.4375 -9.4375 L 9.953125 0 L -1.609375 0 L 17.453125 -47.1875 Z M 27.75 -18.875 L 22.484375 -32.609375 L 22.359375 -32.609375 L 17.109375 -18.875 Z M 27.75 -18.875 "/></g></g></g><g fill="#38b6ff" fill-opacity="1"><g transform="translate(153.460386, 167.357539)"><g><path d="M 42.4375 0 L 40.21875 -27.96875 L 39.921875 -27.96875 L 30.265625 -0.28125 L 23.859375 -0.28125 L 14.1875 -27.96875 L 13.90625 -27.96875 L 11.671875 0 L 0.921875 0 L 5.140625 -47.1875 L 16.59375 -47.1875 L 27.0625 -19.96875 L 37.53125 -47.1875 L 48.96875 -47.1875 L 53.203125 0 Z M 42.4375 0 "/></g></g></g><g fill="#38b6ff" fill-opacity="1"><g transform="translate(214.421528, 167.357539)"><g><path d="M 14.1875 -47.1875 L 14.1875 0 L 3.4375 0 L 3.4375 -47.1875 Z M 14.1875 -47.1875 "/></g></g></g><g fill="#38b6ff" fill-opacity="1"><g transform="translate(238.900103, 167.357539)"><g><path d="M 14.1875 -47.1875 L 14.1875 -9.4375 L 30.4375 -9.4375 L 30.4375 0 L 3.4375 0 L 3.4375 -47.1875 Z M 14.1875 -47.1875 "/></g></g></g><g fill="#38b6ff" fill-opacity="1"><g transform="translate(77.541756, 246.617886)"><g/></g></g><g fill="#38b6ff" fill-opacity="1"><g transform="translate(100.01893, 246.617886)"><g/></g></g><g fill="#38b6ff" fill-opacity="1"><g transform="translate(122.496103, 246.617886)"><g/></g></g><g fill="#38b6ff" fill-opacity="1"><g transform="translate(144.973274, 246.617886)"><g/></g></g><g fill="#38b6ff" fill-opacity="1"><g transform="translate(167.45045, 246.617886)"><g/></g></g><g fill="#38b6ff" fill-opacity="1"><g transform="translate(189.927626, 246.617886)"><g/></g></g><g fill="#38b6ff" fill-opacity="1"><g transform="translate(212.404803, 246.617886)"><g/></g></g><g fill="#38b6ff" fill-opacity="1"><g transform="translate(234.881979, 246.617886)"><g/></g></g><g fill="#38b6ff" fill-opacity="1"><g transform="translate(257.359155, 246.617886)"><g/></g></g><g fill="#38b6ff" fill-opacity="1"><g transform="translate(279.83632, 246.617886)"><g/></g></g><g fill="#5ce1e6" fill-opacity="1"><g transform="translate(163.567069, 192.072702)"><g><path d="M 1.359375 -18.703125 L 6.78125 -18.703125 C 9.375 -18.703125 11.59375 -17.8125 13.4375 -16.03125 C 15.28125 -14.257812 16.203125 -12.035156 16.203125 -9.359375 C 16.203125 -6.671875 15.285156 -4.4375 13.453125 -2.65625 C 11.617188 -0.882812 9.394531 0 6.78125 0 L 1.359375 0 Z M 5.625 -3.8125 L 6.28125 -3.8125 C 7.832031 -3.8125 9.101562 -4.332031 10.09375 -5.375 C 11.082031 -6.425781 11.585938 -7.75 11.609375 -9.34375 C 11.609375 -10.925781 11.113281 -12.242188 10.125 -13.296875 C 9.132812 -14.359375 7.851562 -14.890625 6.28125 -14.890625 L 5.625 -14.890625 Z M 5.625 -3.8125 "/></g></g></g><g fill="#5ce1e6" fill-opacity="1"><g transform="translate(183.00271, 192.072702)"><g><path d="M 12.0625 -18.703125 L 12.0625 -14.96875 L 5.625 -14.96875 L 5.625 -11.25 L 11.796875 -11.25 L 11.796875 -7.5 L 5.625 -7.5 L 5.625 -3.734375 L 12.0625 -3.734375 L 12.0625 0 L 1.359375 0 L 1.359375 -18.703125 Z M 12.0625 -18.703125 "/></g></g></g><g fill="#5ce1e6" fill-opacity="1"><g transform="translate(198.859756, 192.072702)"><g><path d="M 5.625 -11.609375 L 5.625 0 L 1.359375 0 L 1.359375 -18.703125 L 5.625 -18.703125 L 13.0625 -7.09375 L 13.109375 -7.09375 L 13.109375 -18.703125 L 17.359375 -18.703125 L 17.359375 0 L 13.109375 0 L 5.671875 -11.609375 Z M 5.625 -11.609375 "/></g></g></g><g fill="#5ce1e6" fill-opacity="1"><g transform="translate(220.288537, 192.072702)"><g><path d="M 0.1875 -14.96875 L 0.1875 -18.703125 L 13.328125 -18.703125 L 13.328125 -14.96875 L 8.890625 -14.96875 L 8.890625 0 L 4.625 0 L 4.625 -14.96875 Z M 0.1875 -14.96875 "/></g></g></g><g fill="#5ce1e6" fill-opacity="1"><g transform="translate(236.507992, 192.072702)"><g><path d="M 10.859375 -18.703125 L 18.40625 0 L 13.828125 0 L 12.453125 -3.734375 L 5.328125 -3.734375 L 3.9375 0 L -0.640625 0 L 6.921875 -18.703125 Z M 11 -7.484375 L 8.90625 -12.921875 L 8.859375 -12.921875 L 6.78125 -7.484375 Z M 11 -7.484375 "/></g></g></g><g fill="#5ce1e6" fill-opacity="1"><g transform="translate(256.985502, 192.072702)"><g><path d="M 5.625 -18.703125 L 5.625 -3.734375 L 12.0625 -3.734375 L 12.0625 0 L 1.359375 0 L 1.359375 -18.703125 Z M 5.625 -18.703125 "/></g></g></g></svg>