<svg xmlns="http://www.w3.org/2000/svg" xmlns:xlink="http://www.w3.org/1999/xlink" width="500" zoomAndPan="magnify" viewBox="0 0 375 374.999991" height="500" preserveAspectRatio="xMidYMid meet" version="1.0"><defs><g/><clipPath id="c0e35a7fb1"><path d="M 8 132 L 43 132 L 43 162 L 8 162 Z M 8 132 " clip-rule="nonzero"/></clipPath><clipPath id="ca57e16c17"><path d="M 42.28125 132.628906 L 41.324219 161.863281 L 7.589844 160.757812 L 8.546875 131.523438 Z M 42.28125 132.628906 " clip-rule="nonzero"/></clipPath><clipPath id="f0dc301e0c"><path d="M 8.792969 131.53125 L 7.835938 160.765625 L 41.570312 161.871094 L 42.527344 132.636719 Z M 8.792969 131.53125 " clip-rule="nonzero"/></clipPath><clipPath id="0b0c1a19f8"><path d="M 8.792969 131.53125 L 7.835938 160.765625 L 41.570312 161.871094 L 42.527344 132.636719 Z M 8.792969 131.53125 " clip-rule="nonzero"/></clipPath><clipPath id="9f3467d568"><path d="M 3 154 L 47 154 L 47 189 L 3 189 Z M 3 154 " clip-rule="nonzero"/></clipPath><clipPath id="8cadfe7e7a"><path d="M 3.585938 188.972656 L 5.855469 153.796875 L 46.269531 156.402344 L 44.003906 191.578125 Z M 3.585938 188.972656 " clip-rule="nonzero"/></clipPath><clipPath id="b4022ca226"><path d="M 44.261719 191.59375 L 46.527344 156.417969 L 6.109375 153.8125 L 3.84375 188.992188 Z M 44.261719 191.59375 " clip-rule="nonzero"/></clipPath><clipPath id="37caa64f96"><path d="M 44.261719 191.59375 L 46.527344 156.417969 L 6.109375 153.8125 L 3.84375 188.992188 Z M 44.261719 191.59375 " clip-rule="nonzero"/></clipPath></defs><g clip-path="url(#c0e35a7fb1)"><g clip-path="url(#ca57e16c17)"><g clip-path="url(#f0dc301e0c)"><g clip-path="url(#0b0c1a19f8)"><path fill="#737373" d="M 8.054688 154.089844 L 28.433594 149.339844 L 28.039062 161.421875 L 37.96875 159.109375 L 38.808594 133.507812 L 8.5 140.566406 L 8.414062 143.15625 L 36.109375 136.703125 L 35.441406 157.132812 L 30.734375 158.226562 L 31.128906 146.144531 L 10.753906 150.890625 L 10.90625 146.230469 L 35.058594 140.601562 L 35.144531 138.015625 L 8.378906 144.25 Z M 41.6875 158.242188 L 42.527344 132.640625 L 39.914062 133.25 L 39.078125 158.851562 Z M 41.6875 158.242188 " fill-opacity="1" fill-rule="nonzero"/></g></g></g></g><g clip-path="url(#9f3467d568)"><g clip-path="url(#8cadfe7e7a)"><g clip-path="url(#b4022ca226)"><g clip-path="url(#37caa64f96)"><path fill="#b21e1e" d="M 46.007812 164.453125 L 21.386719 169.402344 L 22.324219 154.863281 L 10.324219 157.273438 L 8.335938 188.082031 L 44.960938 180.722656 L 45.160156 177.609375 L 11.695312 184.335938 L 13.277344 159.753906 L 18.96875 158.609375 L 18.03125 173.148438 L 42.652344 168.203125 L 42.289062 173.8125 L 13.105469 179.675781 L 12.902344 182.789062 L 45.246094 176.292969 Z M 5.828125 158.175781 L 3.84375 188.984375 L 7 188.351562 L 8.984375 157.542969 Z M 5.828125 158.175781 " fill-opacity="1" fill-rule="nonzero"/></g></g></g></g><g fill="#b21e1e" fill-opacity="1"><g transform="translate(55.326846, 176.875741)"><g><path d="M 2.765625 -38.125 L 13.8125 -38.125 C 19.113281 -38.125 23.640625 -36.3125 27.390625 -32.6875 C 31.148438 -29.070312 33.03125 -24.535156 33.03125 -19.078125 C 33.03125 -13.597656 31.160156 -9.046875 27.421875 -5.421875 C 23.679688 -1.804688 19.144531 0 13.8125 0 L 2.765625 0 Z M 11.453125 -7.765625 L 12.796875 -7.765625 C 15.972656 -7.765625 18.566406 -8.832031 20.578125 -10.96875 C 22.597656 -13.113281 23.625 -15.800781 23.65625 -19.03125 C 23.65625 -22.269531 22.644531 -24.96875 20.625 -27.125 C 18.613281 -29.28125 16.003906 -30.359375 12.796875 -30.359375 L 11.453125 -30.359375 Z M 11.453125 -7.765625 "/></g></g></g><g fill="#b21e1e" fill-opacity="1"><g transform="translate(94.96158, 176.875741)"><g><path d="M 24.578125 -38.125 L 24.578125 -30.5 L 11.453125 -30.5 L 11.453125 -22.921875 L 24.03125 -22.921875 L 24.03125 -15.296875 L 11.453125 -15.296875 L 11.453125 -7.625 L 24.578125 -7.625 L 24.578125 0 L 2.765625 0 L 2.765625 -38.125 Z M 24.578125 -38.125 "/></g></g></g><g fill="#b21e1e" fill-opacity="1"><g transform="translate(127.297883, 176.875741)"><g><path d="M 11.453125 -23.65625 L 11.453125 0 L 2.765625 0 L 2.765625 -38.125 L 11.453125 -38.125 L 26.609375 -14.46875 L 26.703125 -14.46875 L 26.703125 -38.125 L 35.390625 -38.125 L 35.390625 0 L 26.703125 0 L 11.546875 -23.65625 Z M 11.453125 -23.65625 "/></g></g></g><g fill="#b21e1e" fill-opacity="1"><g transform="translate(170.997556, 176.875741)"><g><path d="M 0.375 -30.5 L 0.375 -38.125 L 27.171875 -38.125 L 27.171875 -30.5 L 18.109375 -30.5 L 18.109375 0 L 9.421875 0 L 9.421875 -30.5 Z M 0.375 -30.5 "/></g></g></g><g fill="#b21e1e" fill-opacity="1"><g transform="translate(204.072947, 176.875741)"><g><path d="M 22.125 -38.125 L 37.515625 0 L 28.1875 0 L 25.359375 -7.625 L 10.859375 -7.625 L 8.046875 0 L -1.296875 0 L 14.09375 -38.125 Z M 22.40625 -15.25 L 18.15625 -26.328125 L 18.0625 -26.328125 L 13.8125 -15.25 Z M 22.40625 -15.25 "/></g></g></g><g fill="#b21e1e" fill-opacity="1"><g transform="translate(245.83254, 176.875741)"><g><path d="M 11.453125 -38.125 L 11.453125 -7.625 L 24.578125 -7.625 L 24.578125 0 L 2.765625 0 L 2.765625 -38.125 Z M 11.453125 -38.125 "/></g></g></g><g fill="#1e1b1b" fill-opacity="1"><g transform="translate(274.38321, 176.875741)"><g><path d="M 32.0625 -38.125 L 32.0625 -13.53125 C 32.0625 -8.851562 30.796875 -5.3125 28.265625 -2.90625 C 25.742188 -0.507812 22.050781 0.6875 17.1875 0.6875 C 12.320312 0.6875 8.625 -0.507812 6.09375 -2.90625 C 3.570312 -5.3125 2.3125 -8.851562 2.3125 -13.53125 L 2.3125 -38.125 L 11 -38.125 L 11 -16.078125 C 11 -12.992188 11.484375 -10.851562 12.453125 -9.65625 C 13.421875 -8.457031 15 -7.859375 17.1875 -7.859375 C 19.375 -7.859375 20.953125 -8.457031 21.921875 -9.65625 C 22.890625 -10.851562 23.375 -12.992188 23.375 -16.078125 L 23.375 -38.125 Z M 32.0625 -38.125 "/></g></g></g><g fill="#1e1b1b" fill-opacity="1"><g transform="translate(314.295098, 176.875741)"><g><path d="M 11.453125 -23.65625 L 11.453125 0 L 2.765625 0 L 2.765625 -38.125 L 11.453125 -38.125 L 26.609375 -14.46875 L 26.703125 -14.46875 L 26.703125 -38.125 L 35.390625 -38.125 L 35.390625 0 L 26.703125 0 L 11.546875 -23.65625 Z M 11.453125 -23.65625 "/></g></g></g><g fill="#1e1b1b" fill-opacity="1"><g transform="translate(357.994772, 176.875741)"><g><path d="M 11.453125 -38.125 L 11.453125 0 L 2.765625 0 L 2.765625 -38.125 Z M 11.453125 -38.125 "/></g></g></g></svg>