<svg xmlns="http://www.w3.org/2000/svg" xmlns:xlink="http://www.w3.org/1999/xlink" width="500" zoomAndPan="magnify" viewBox="0 0 375 374.999991" height="500" preserveAspectRatio="xMidYMid meet" version="1.0"><defs><clipPath id="ce6c87d678"><path d="M 80 184 L 274 184 L 274 363.613281 L 80 363.613281 Z M 80 184 " clip-rule="nonzero"/></clipPath></defs><path fill="#dc4242" d="M 273.003906 198.796875 L 273.003906 270.367188 C 255.003906 312.707031 216.847656 341.445312 173.460938 340.277344 C 133.125 339.207031 98.683594 312.535156 81.453125 274.019531 L 81.453125 242.847656 C 81.453125 229.949219 79.039062 216.011719 82.9375 203.296875 C 84.933594 197.859375 87.988281 193.109375 92.109375 189.039062 C 94.144531 186.703125 96.65625 185.128906 99.640625 184.3125 C 101.675781 185.085938 103.804688 185.96875 106.007812 186.929688 C 112.148438 189.625 118.964844 192.9375 126.34375 196.160156 C 136.9375 201 147.929688 204.636719 159.320312 207.0625 C 163.453125 207.878906 167.621094 208.429688 171.824219 208.722656 C 181.878906 209.246094 191.796875 208.304688 201.578125 205.894531 C 219.070312 201.867188 235.472656 194.746094 248.789062 190.566406 C 250.558594 190 252.289062 189.492188 253.949219 189.058594 C 256.152344 188.472656 258.242188 188.023438 260.238281 187.703125 C 266.546875 187.832031 273.003906 191.996094 273.003906 198.796875 Z M 273.003906 198.796875 " fill-opacity="1" fill-rule="nonzero"/><path fill="#d0e7ef" d="M 287.375 104.8125 C 285.90625 108.710938 284.210938 112.515625 282.402344 116.113281 C 277.734375 125.355469 272.59375 134.328125 266.980469 143.027344 C 261.230469 152.195312 256.835938 161.96875 253.796875 172.351562 C 251.253906 180.789062 249.164062 189.304688 246.265625 197.703125 C 241.386719 211.585938 236 225.730469 228.09375 238.214844 C 223.796875 244.957031 217.28125 254.132812 208.375 254.394531 C 207.492188 254.460938 206.621094 254.386719 205.761719 254.175781 C 204.898438 253.960938 204.09375 253.621094 203.34375 253.152344 C 202.589844 252.683594 201.929688 252.109375 201.363281 251.429688 C 200.792969 250.75 200.34375 250 200.015625 249.175781 C 197.472656 243.28125 198.339844 235.863281 198.882812 229.664062 C 199.695312 220.71875 201.105469 211.828125 202.011719 202.902344 C 203.183594 194.113281 203.183594 185.324219 202.011719 176.535156 C 201.460938 172.808594 200.320312 169.273438 198.582031 165.929688 C 196.398438 161.898438 193.5 157.625 188.261719 159.207031 C 184.121094 160.449219 180.503906 163.972656 177.832031 167.230469 C 174.476562 171.546875 171.78125 176.242188 169.753906 181.316406 C 165.949219 190.722656 162.722656 200.320312 160.074219 210.113281 C 157.679688 218.15625 155.496094 226.746094 151.148438 233.996094 C 148.246094 238.835938 143.800781 242.359375 138.113281 239.648438 C 130.054688 235.878906 127.777344 224.804688 126.570312 216.894531 C 124.347656 202.28125 125.121094 187.175781 126.234375 172.503906 C 126.910156 163.707031 128.453125 155.003906 129.527344 146.246094 C 130.929688 135.527344 130.851562 124.816406 129.300781 114.117188 C 127.652344 103.910156 126.546875 93.644531 125.988281 83.320312 C 125.140625 63.019531 128.210938 41.699219 142.011719 25.859375 C 143.78125 23.789062 145.726562 21.90625 147.851562 20.207031 C 159.5625 11.128906 174.574219 11.207031 188.113281 15.667969 C 193.960938 17.644531 199.546875 20.195312 204.871094 23.316406 C 208.375 25.351562 211.445312 28.101562 215.136719 29.871094 C 217.421875 30.96875 219.832031 31.496094 222.367188 31.453125 C 223.636719 31.433594 224.890625 31.289062 226.132812 31.019531 C 231.515625 29.984375 236.945312 29.355469 242.421875 29.136719 C 247.992188 28.761719 253.523438 29.089844 259.011719 30.113281 C 273.925781 33.054688 286.074219 42.167969 290.707031 57.011719 C 295.828125 73.132812 293.191406 89.574219 287.375 104.8125 Z M 287.375 104.8125 " fill-opacity="1" fill-rule="nonzero"/><g clip-path="url(#ce6c87d678)"><path fill="#ff6766" d="M 273.003906 198.796875 L 273.003906 363.597656 L 81.453125 363.597656 L 81.453125 242.847656 C 81.453125 229.949219 79.039062 216.011719 82.9375 203.296875 C 84.933594 197.859375 87.988281 193.109375 92.109375 189.039062 C 94.144531 186.703125 96.65625 185.128906 99.640625 184.3125 C 100.242188 184.191406 100.847656 184.160156 101.457031 184.222656 C 102.066406 184.28125 102.652344 184.425781 103.21875 184.660156 C 103.785156 184.890625 104.308594 185.203125 104.78125 185.589844 C 105.257812 185.976562 105.664062 186.421875 106.007812 186.929688 C 106.703125 187.839844 107.28125 188.820312 107.738281 189.867188 C 116.703125 209.71875 114.765625 229.421875 117.457031 249.910156 C 119.339844 264.507812 121.730469 279.445312 126.871094 293.230469 C 129.679688 300.765625 134.179688 311.011719 142.84375 313.121094 C 148.960938 314.589844 152.578125 310.238281 154.421875 304.910156 C 157.210938 296.921875 157.566406 287.957031 158.191406 279.6875 C 158.765625 269.574219 159.945312 259.527344 161.730469 249.554688 C 162.683594 244.164062 164.359375 239.011719 166.757812 234.089844 C 168.640625 230.324219 171.523438 226.160156 175.308594 224.089844 C 180.109375 221.472656 183.839844 225.050781 186.792969 228.554688 C 189.183594 231.46875 191.027344 234.699219 192.332031 238.234375 C 195.265625 246.597656 197.058594 255.199219 197.714844 264.039062 C 198.660156 272.964844 199.109375 281.949219 200.164062 290.875 C 200.878906 297.074219 201.558594 304.492188 205.269531 309.710938 C 205.761719 310.445312 206.355469 311.085938 207.050781 311.632812 C 207.746094 312.183594 208.507812 312.609375 209.339844 312.910156 C 210.171875 313.214844 211.027344 313.386719 211.910156 313.417969 C 212.796875 313.449219 213.664062 313.34375 214.515625 313.101562 C 223.195312 310.992188 227.695312 300.6875 230.484375 293.210938 C 235.660156 279.351562 238.015625 264.414062 239.898438 249.894531 C 242.101562 233.1875 240.257812 216.6875 246.226562 200.132812 C 247.902344 195.519531 249.992188 191.148438 253.757812 189.019531 C 255.3125 188.191406 256.972656 187.746094 258.730469 187.683594 C 259.171875 187.65625 259.609375 187.65625 260.046875 187.683594 C 266.546875 187.832031 273.003906 191.996094 273.003906 198.796875 Z M 273.003906 198.796875 " fill-opacity="1" fill-rule="nonzero"/></g></svg>