<svg xmlns="http://www.w3.org/2000/svg" xmlns:xlink="http://www.w3.org/1999/xlink" width="500" zoomAndPan="magnify" viewBox="0 0 375 374.999991" height="500" preserveAspectRatio="xMidYMid meet" version="1.0"><defs><clipPath id="66b0712c79"><path d="M 75 184 L 278 184 L 278 373.132812 L 75 373.132812 Z M 75 184 " clip-rule="nonzero"/></clipPath></defs><path fill="#dc4242" d="M 277.394531 199.546875 L 277.394531 274.925781 C 258.457031 319.519531 218.324219 349.789062 172.6875 348.558594 C 130.257812 347.429688 94.027344 319.339844 75.902344 278.773438 L 75.902344 245.945312 C 75.902344 232.359375 73.363281 217.679688 77.464844 204.289062 C 79.5625 198.5625 82.777344 193.558594 87.113281 189.273438 C 88.160156 188.070312 89.355469 187.042969 90.707031 186.195312 C 92.054688 185.347656 93.5 184.714844 95.035156 184.292969 C 97.175781 185.105469 99.414062 186.039062 101.730469 187.050781 C 108.1875 189.886719 115.359375 193.378906 123.125 196.769531 C 134.265625 201.871094 145.828125 205.699219 157.808594 208.257812 C 162.15625 209.113281 166.542969 209.695312 170.964844 210 C 181.542969 210.554688 191.976562 209.5625 202.261719 207.027344 C 220.664062 202.78125 237.917969 195.28125 251.921875 190.878906 C 253.785156 190.285156 255.605469 189.75 257.347656 189.292969 C 259.667969 188.675781 261.867188 188.203125 263.964844 187.863281 C 270.601562 188.003906 277.394531 192.386719 277.394531 199.546875 Z M 277.394531 199.546875 " fill-opacity="1" fill-rule="nonzero"/><path fill="#ffffff" d="M 292.511719 100.5625 C 290.964844 104.667969 289.183594 108.675781 287.28125 112.464844 C 282.371094 122.199219 276.964844 131.648438 271.058594 140.8125 C 265.011719 150.464844 260.390625 160.761719 257.191406 171.699219 C 254.515625 180.585938 252.316406 189.550781 249.265625 198.398438 C 244.136719 213.015625 238.472656 227.914062 230.152344 241.066406 C 225.636719 248.167969 218.78125 257.828125 209.414062 258.105469 C 208.484375 258.175781 207.566406 258.097656 206.660156 257.875 C 205.757812 257.652344 204.910156 257.292969 204.117188 256.796875 C 203.328125 256.304688 202.632812 255.699219 202.035156 254.984375 C 201.4375 254.269531 200.964844 253.476562 200.617188 252.609375 C 197.941406 246.402344 198.855469 238.585938 199.429688 232.058594 C 200.28125 222.636719 201.765625 213.273438 202.714844 203.871094 C 203.949219 194.617188 203.949219 185.359375 202.714844 176.101562 C 202.140625 172.175781 200.9375 168.453125 199.113281 164.933594 C 196.8125 160.6875 193.761719 156.183594 188.257812 157.851562 C 183.898438 159.160156 180.09375 162.871094 177.28125 166.300781 C 173.753906 170.847656 170.921875 175.792969 168.785156 181.140625 C 164.785156 191.046875 161.390625 201.15625 158.601562 211.46875 C 156.085938 219.941406 153.789062 228.984375 149.214844 236.621094 C 146.164062 241.71875 141.488281 245.429688 135.503906 242.574219 C 127.027344 238.605469 124.628906 226.941406 123.363281 218.609375 C 121.023438 203.21875 121.835938 187.308594 123.007812 171.855469 C 123.71875 162.59375 125.34375 153.429688 126.472656 144.203125 C 127.945312 132.914062 127.867188 121.632812 126.234375 110.363281 C 124.496094 99.613281 123.335938 88.804688 122.75 77.929688 C 121.855469 56.546875 125.085938 34.089844 139.605469 17.410156 C 141.464844 15.230469 143.511719 13.246094 145.746094 11.457031 C 158.066406 1.894531 173.855469 1.976562 188.097656 6.675781 C 194.25 8.757812 200.125 11.441406 205.726562 14.730469 C 209.414062 16.871094 212.640625 19.769531 216.523438 21.632812 C 218.925781 22.792969 221.464844 23.347656 224.128906 23.300781 C 225.464844 23.28125 226.785156 23.128906 228.09375 22.84375 C 233.753906 21.753906 239.464844 21.09375 245.226562 20.859375 C 251.085938 20.46875 256.90625 20.8125 262.679688 21.890625 C 278.367188 24.984375 291.144531 34.585938 296.015625 50.21875 C 301.40625 67.199219 298.632812 84.515625 292.511719 100.5625 Z M 292.511719 100.5625 " fill-opacity="1" fill-rule="nonzero"/><g clip-path="url(#66b0712c79)"><path fill="#ff6766" d="M 277.394531 199.546875 L 277.394531 373.117188 L 75.902344 373.117188 L 75.902344 245.945312 C 75.902344 232.359375 73.363281 217.679688 77.464844 204.289062 C 79.5625 198.5625 82.777344 193.558594 87.113281 189.273438 C 88.160156 188.070312 89.355469 187.042969 90.707031 186.195312 C 92.054688 185.347656 93.5 184.714844 95.035156 184.292969 C 95.667969 184.167969 96.304688 184.136719 96.945312 184.199219 C 97.585938 184.261719 98.203125 184.414062 98.800781 184.660156 C 99.394531 184.90625 99.941406 185.230469 100.441406 185.636719 C 100.941406 186.046875 101.371094 186.515625 101.730469 187.050781 C 102.464844 188.007812 103.070312 189.039062 103.554688 190.144531 C 112.984375 211.054688 110.941406 231.800781 113.773438 253.382812 C 115.753906 268.757812 118.273438 284.488281 123.679688 299.007812 C 126.632812 306.941406 131.363281 317.734375 140.476562 319.957031 C 146.914062 321.503906 150.71875 316.921875 152.660156 311.308594 C 155.589844 302.898438 155.96875 293.453125 156.621094 284.746094 C 157.230469 274.09375 158.46875 263.511719 160.34375 253.007812 C 161.347656 247.332031 163.109375 241.902344 165.632812 236.722656 C 167.617188 232.753906 170.644531 228.371094 174.628906 226.1875 C 179.679688 223.429688 183.601562 227.199219 186.710938 230.890625 C 189.222656 233.960938 191.164062 237.359375 192.535156 241.085938 C 195.621094 249.894531 197.507812 258.953125 198.199219 268.261719 C 199.191406 277.664062 199.667969 287.125 200.777344 296.527344 C 201.527344 303.054688 202.242188 310.871094 206.144531 316.367188 C 206.660156 317.140625 207.285156 317.816406 208.019531 318.390625 C 208.75 318.96875 209.550781 319.417969 210.425781 319.738281 C 211.300781 320.058594 212.203125 320.234375 213.132812 320.269531 C 214.0625 320.304688 214.976562 320.191406 215.871094 319.9375 C 225 317.714844 229.734375 306.863281 232.667969 298.988281 C 238.113281 284.390625 240.589844 268.660156 242.570312 253.363281 C 244.890625 235.769531 242.949219 218.394531 249.226562 200.957031 C 250.992188 196.097656 253.191406 191.496094 257.152344 189.253906 C 258.785156 188.382812 260.53125 187.910156 262.382812 187.84375 C 262.84375 187.816406 263.304688 187.816406 263.769531 187.84375 C 270.601562 188.003906 277.394531 192.386719 277.394531 199.546875 Z M 277.394531 199.546875 " fill-opacity="1" fill-rule="nonzero"/></g></svg>