<svg xmlns="http://www.w3.org/2000/svg" xmlns:xlink="http://www.w3.org/1999/xlink" width="500" zoomAndPan="magnify" viewBox="0 0 375 374.999991" height="500" preserveAspectRatio="xMidYMid meet" version="1.0"><defs><clipPath id="b3f889f583"><path d="M 4.019531 4.019531 L 370.769531 4.019531 L 370.769531 369 L 4.019531 369 Z M 4.019531 4.019531 " clip-rule="nonzero"/></clipPath><clipPath id="e9054b8248"><path d="M 112 75 L 270 75 L 270 370.769531 L 112 370.769531 Z M 112 75 " clip-rule="nonzero"/></clipPath></defs><g clip-path="url(#b3f889f583)"><path fill="#1877f2" d="M 370.769531 187.394531 C 370.769531 86.117188 288.667969 4.019531 187.394531 4.019531 C 86.117188 4.019531 4.019531 86.117188 4.019531 187.394531 C 4.019531 278.921875 71.078125 354.785156 158.742188 368.542969 L 158.742188 240.402344 L 112.179688 240.402344 L 112.179688 187.394531 L 158.742188 187.394531 L 158.742188 146.992188 C 158.742188 101.035156 186.117188 75.648438 228.003906 75.648438 C 248.066406 75.648438 269.054688 79.230469 269.054688 79.230469 L 269.054688 124.359375 L 245.929688 124.359375 C 223.152344 124.359375 216.046875 138.496094 216.046875 152.996094 L 216.046875 187.394531 L 266.902344 187.394531 L 258.773438 240.402344 L 216.046875 240.402344 L 216.046875 368.542969 C 303.710938 354.785156 370.769531 278.921875 370.769531 187.394531 " fill-opacity="1" fill-rule="nonzero"/></g><g clip-path="url(#e9054b8248)"><path fill="#ffffff" d="M 258.773438 240.402344 L 266.902344 187.394531 L 216.046875 187.394531 L 216.046875 152.996094 C 216.046875 138.496094 223.152344 124.359375 245.929688 124.359375 L 269.054688 124.359375 L 269.054688 79.230469 C 269.054688 79.230469 248.066406 75.648438 228.003906 75.648438 C 186.117188 75.648438 158.742188 101.035156 158.742188 146.992188 L 158.742188 187.394531 L 112.179688 187.394531 L 112.179688 240.402344 L 158.742188 240.402344 L 158.742188 368.542969 C 168.078125 370.007812 177.648438 370.769531 187.394531 370.769531 C 197.140625 370.769531 206.710938 370.007812 216.046875 368.542969 L 216.046875 240.402344 L 258.773438 240.402344 " fill-opacity="1" fill-rule="nonzero"/></g></svg>