<svg xmlns="http://www.w3.org/2000/svg" xmlns:xlink="http://www.w3.org/1999/xlink" width="500" zoomAndPan="magnify" viewBox="0 0 375 374.999991" height="500" preserveAspectRatio="xMidYMid meet" version="1.0"><defs><clipPath id="4643c145b8"><path d="M 112.5 169 L 162 169 L 162 193 L 112.5 193 Z M 112.5 169 " clip-rule="nonzero"/></clipPath><clipPath id="4fb282d294"><path d="M 112.5 175 L 161 175 L 161 219 L 112.5 219 Z M 112.5 175 " clip-rule="nonzero"/></clipPath><clipPath id="86197ff3bc"><path d="M 112.5 156 L 161 156 L 161 179 L 112.5 179 Z M 112.5 156 " clip-rule="nonzero"/></clipPath><clipPath id="44f3cb1b26"><path d="M 112.5 177 L 128 177 L 128 180 L 112.5 180 Z M 112.5 177 " clip-rule="nonzero"/></clipPath></defs><g clip-path="url(#4643c145b8)"><path fill="#ffffff" d="M 127.285156 172.835938 L 112.78125 179.0625 C 112.78125 179.0625 112.53125 180.6875 115.652344 184.066406 C 118.773438 187.445312 136.398438 192.515625 136.398438 192.515625 L 160.246094 178.722656 C 160.246094 178.722656 163.394531 174.976562 157.152344 172.320312 C 150.914062 169.660156 131.53125 169.972656 131.53125 169.972656 Z M 127.285156 172.835938 " fill-opacity="1" fill-rule="nonzero"/></g><path fill="#ffffff" d="M 176.183594 172.835938 L 163.707031 174.316406 C 163.707031 174.316406 160.265625 178.714844 164.546875 184.066406 C 167.421875 187.660156 185.296875 192.515625 185.296875 192.515625 L 209.144531 178.722656 C 209.144531 178.722656 212.289062 174.976562 206.050781 172.320312 C 199.808594 169.660156 180.429688 169.972656 180.429688 169.972656 Z M 176.183594 172.835938 " fill-opacity="1" fill-rule="nonzero"/><path fill="#ffffff" d="M 226.363281 172.835938 L 211.929688 174.316406 C 211.929688 174.316406 211.609375 180.6875 214.730469 184.066406 C 217.847656 187.445312 235.476562 192.515625 235.476562 192.515625 L 259.324219 178.722656 C 259.324219 178.722656 262.472656 174.976562 256.230469 172.320312 C 249.988281 169.660156 230.609375 169.972656 230.609375 169.972656 Z M 226.363281 172.835938 " fill-opacity="1" fill-rule="nonzero"/><path fill="#050606" d="M 150.460938 179.613281 C 150.460938 180.46875 150.378906 181.3125 150.21875 182.152344 C 150.058594 182.988281 149.820312 183.800781 149.507812 184.589844 C 149.191406 185.378906 148.808594 186.128906 148.351562 186.839844 C 147.894531 187.550781 147.378906 188.207031 146.796875 188.808594 C 146.214844 189.414062 145.585938 189.953125 144.902344 190.425781 C 144.21875 190.902344 143.5 191.300781 142.742188 191.628906 C 141.984375 191.957031 141.199219 192.203125 140.394531 192.371094 C 139.589844 192.535156 138.777344 192.621094 137.957031 192.621094 C 137.136719 192.621094 136.324219 192.535156 135.515625 192.371094 C 134.710938 192.203125 133.929688 191.957031 133.171875 191.628906 C 132.414062 191.300781 131.691406 190.902344 131.011719 190.425781 C 130.328125 189.953125 129.695312 189.414062 129.117188 188.808594 C 128.535156 188.207031 128.015625 187.550781 127.5625 186.839844 C 127.105469 186.128906 126.71875 185.378906 126.40625 184.589844 C 126.089844 183.800781 125.855469 182.988281 125.695312 182.152344 C 125.535156 181.3125 125.453125 180.46875 125.453125 179.613281 C 125.453125 178.761719 125.535156 177.914062 125.695312 177.078125 C 125.855469 176.238281 126.089844 175.425781 126.40625 174.636719 C 126.71875 173.847656 127.105469 173.097656 127.5625 172.386719 C 128.015625 171.679688 128.535156 171.023438 129.117188 170.417969 C 129.695312 169.8125 130.328125 169.273438 131.011719 168.800781 C 131.691406 168.324219 132.414062 167.925781 133.171875 167.597656 C 133.929688 167.273438 134.710938 167.023438 135.515625 166.859375 C 136.324219 166.691406 137.136719 166.609375 137.957031 166.609375 C 138.777344 166.609375 139.589844 166.691406 140.394531 166.859375 C 141.199219 167.023438 141.984375 167.273438 142.742188 167.597656 C 143.5 167.925781 144.21875 168.324219 144.902344 168.800781 C 145.585938 169.273438 146.214844 169.8125 146.796875 170.417969 C 147.378906 171.023438 147.894531 171.679688 148.351562 172.386719 C 148.808594 173.097656 149.191406 173.847656 149.507812 174.636719 C 149.820312 175.425781 150.058594 176.238281 150.21875 177.078125 C 150.378906 177.914062 150.460938 178.761719 150.460938 179.613281 Z M 150.460938 179.613281 " fill-opacity="1" fill-rule="nonzero"/><path fill="#050606" d="M 197.472656 179.613281 C 197.472656 180.46875 197.394531 181.3125 197.234375 182.152344 C 197.074219 182.988281 196.835938 183.800781 196.523438 184.589844 C 196.207031 185.378906 195.824219 186.128906 195.367188 186.839844 C 194.910156 187.550781 194.390625 188.207031 193.8125 188.808594 C 193.230469 189.414062 192.601562 189.953125 191.917969 190.425781 C 191.234375 190.902344 190.515625 191.300781 189.753906 191.628906 C 188.996094 191.957031 188.214844 192.203125 187.410156 192.371094 C 186.605469 192.535156 185.792969 192.621094 184.972656 192.621094 C 184.148438 192.621094 183.335938 192.535156 182.53125 192.371094 C 181.726562 192.203125 180.945312 191.957031 180.1875 191.628906 C 179.429688 191.300781 178.707031 190.902344 178.023438 190.425781 C 177.34375 189.953125 176.710938 189.414062 176.128906 188.808594 C 175.550781 188.207031 175.03125 187.550781 174.574219 186.839844 C 174.121094 186.128906 173.734375 185.378906 173.421875 184.589844 C 173.105469 183.800781 172.871094 182.988281 172.710938 182.152344 C 172.550781 181.3125 172.46875 180.46875 172.46875 179.613281 C 172.46875 178.761719 172.550781 177.914062 172.710938 177.078125 C 172.871094 176.238281 173.105469 175.425781 173.421875 174.636719 C 173.734375 173.847656 174.121094 173.097656 174.574219 172.386719 C 175.03125 171.679688 175.550781 171.023438 176.128906 170.417969 C 176.710938 169.8125 177.34375 169.273438 178.023438 168.800781 C 178.707031 168.324219 179.429688 167.925781 180.1875 167.597656 C 180.945312 167.273438 181.726562 167.023438 182.53125 166.859375 C 183.335938 166.691406 184.148438 166.609375 184.972656 166.609375 C 185.792969 166.609375 186.605469 166.691406 187.410156 166.859375 C 188.214844 167.023438 188.996094 167.273438 189.753906 167.597656 C 190.515625 167.925781 191.234375 168.324219 191.917969 168.800781 C 192.601562 169.273438 193.230469 169.8125 193.8125 170.417969 C 194.390625 171.023438 194.910156 171.679688 195.367188 172.386719 C 195.824219 173.097656 196.207031 173.847656 196.523438 174.636719 C 196.835938 175.425781 197.074219 176.238281 197.234375 177.078125 C 197.394531 177.914062 197.472656 178.761719 197.472656 179.613281 Z M 197.472656 179.613281 " fill-opacity="1" fill-rule="nonzero"/><path fill="#050606" d="M 248.488281 179.613281 C 248.488281 180.46875 248.40625 181.3125 248.246094 182.152344 C 248.085938 182.988281 247.851562 183.800781 247.535156 184.589844 C 247.222656 185.378906 246.835938 186.128906 246.382812 186.839844 C 245.925781 187.550781 245.40625 188.207031 244.824219 188.808594 C 244.246094 189.414062 243.613281 189.953125 242.929688 190.425781 C 242.25 190.902344 241.527344 191.300781 240.769531 191.628906 C 240.011719 191.957031 239.230469 192.203125 238.425781 192.371094 C 237.621094 192.535156 236.804688 192.621094 235.984375 192.621094 C 235.164062 192.621094 234.351562 192.535156 233.546875 192.371094 C 232.742188 192.203125 231.960938 191.957031 231.199219 191.628906 C 230.441406 191.300781 229.722656 190.902344 229.039062 190.425781 C 228.355469 189.953125 227.726562 189.414062 227.144531 188.808594 C 226.566406 188.207031 226.046875 187.550781 225.589844 186.839844 C 225.132812 186.128906 224.75 185.378906 224.433594 184.589844 C 224.121094 183.800781 223.882812 182.988281 223.722656 182.152344 C 223.5625 181.3125 223.484375 180.46875 223.484375 179.613281 C 223.484375 178.761719 223.5625 177.914062 223.722656 177.078125 C 223.882812 176.238281 224.121094 175.425781 224.433594 174.636719 C 224.75 173.847656 225.132812 173.097656 225.589844 172.386719 C 226.046875 171.679688 226.566406 171.023438 227.144531 170.417969 C 227.726562 169.8125 228.355469 169.273438 229.039062 168.800781 C 229.722656 168.324219 230.441406 167.925781 231.199219 167.597656 C 231.960938 167.273438 232.742188 167.023438 233.546875 166.859375 C 234.351562 166.691406 235.164062 166.609375 235.984375 166.609375 C 236.804688 166.609375 237.621094 166.691406 238.425781 166.859375 C 239.230469 167.023438 240.011719 167.273438 240.769531 167.597656 C 241.527344 167.925781 242.25 168.324219 242.929688 168.800781 C 243.613281 169.273438 244.246094 169.8125 244.824219 170.417969 C 245.40625 171.023438 245.925781 171.679688 246.382812 172.386719 C 246.835938 173.097656 247.222656 173.847656 247.535156 174.636719 C 247.851562 175.425781 248.085938 176.238281 248.246094 177.078125 C 248.40625 177.914062 248.488281 178.761719 248.488281 179.613281 Z M 248.488281 179.613281 " fill-opacity="1" fill-rule="nonzero"/><path fill="#ffffff" d="M 259.722656 175.671875 C 259.738281 176.910156 259.566406 178.136719 259.464844 179.367188 C 259.335938 180.871094 259.148438 182.371094 258.976562 183.871094 C 258.929688 184.265625 258.847656 184.65625 258.773438 185.046875 C 258.464844 186.679688 258.160156 188.3125 257.835938 189.9375 C 257.722656 190.5 257.578125 191.050781 257.425781 191.601562 C 257.089844 192.78125 256.945312 194.011719 256.484375 195.167969 C 256.296875 195.636719 256.238281 196.171875 256.113281 196.675781 C 255.890625 197.582031 255.746094 198.519531 255.492188 199.402344 C 255.265625 200.191406 255.078125 200.996094 254.847656 201.789062 C 254.636719 202.523438 254.5625 203.285156 254.378906 204.027344 C 254.128906 205.054688 253.785156 206.0625 253.582031 207.097656 C 253.332031 208.34375 252.777344 209.492188 252.496094 210.726562 C 252.441406 210.957031 252.300781 211.167969 252.207031 211.390625 C 251.644531 212.75 251.1875 214.152344 250.4375 215.425781 C 249.929688 216.292969 249.160156 216.882812 248.371094 217.480469 C 247.792969 217.917969 247.152344 218.117188 246.507812 218.347656 C 244.976562 218.890625 243.664062 218.507812 242.464844 217.457031 C 241.097656 216.253906 240.394531 214.71875 240.15625 212.96875 C 240.050781 212.183594 240.148438 211.367188 240.1875 210.570312 C 240.273438 208.722656 240.167969 206.882812 240 205.046875 C 239.925781 204.257812 239.851562 203.476562 239.628906 202.707031 C 239.085938 200.835938 236.960938 199.617188 235.042969 199.996094 C 233.722656 200.253906 233.136719 201.234375 232.519531 202.199219 C 231.882812 203.191406 231.644531 204.320312 231.445312 205.480469 C 231.277344 206.484375 231.039062 207.480469 230.933594 208.5 C 230.828125 209.566406 230.605469 210.613281 230.519531 211.683594 C 230.449219 212.597656 230.257812 213.492188 229.996094 214.382812 C 229.734375 215.273438 229.320312 216.09375 228.777344 216.765625 C 228.09375 217.621094 227.136719 218.183594 225.964844 218.359375 C 225.128906 218.484375 224.332031 218.359375 223.535156 218.257812 C 222.914062 218.175781 222.328125 217.824219 221.816406 217.445312 C 220.976562 216.828125 220.441406 216.007812 220.058594 215.011719 C 219.632812 213.902344 219.191406 212.789062 218.785156 211.675781 C 218.246094 210.21875 217.636719 208.769531 217.273438 207.269531 C 216.910156 205.789062 216.402344 204.351562 216.125 202.847656 C 215.945312 201.863281 215.675781 200.878906 215.378906 199.910156 C 215.128906 199.105469 214.914062 198.28125 214.777344 197.4375 C 214.652344 196.707031 214.445312 195.988281 214.261719 195.265625 C 214.09375 194.617188 213.960938 193.960938 213.824219 193.308594 C 213.667969 192.585938 213.597656 191.847656 213.457031 191.125 C 213.222656 189.9375 213.125 188.726562 212.972656 187.523438 C 212.738281 185.722656 212.5 183.921875 212.277344 182.117188 C 212.152344 181.105469 212 180.09375 211.890625 179.078125 C 211.828125 178.527344 211.738281 177.976562 211.753906 177.421875 C 213.183594 177.34375 214.617188 177.183594 216.042969 177.214844 C 217.90625 177.257812 219.757812 177.0625 221.621094 177.082031 C 223.066406 177.097656 224.53125 177.109375 225.980469 176.925781 C 225.976562 177.082031 225.96875 177.234375 225.972656 177.390625 C 225.992188 178.292969 225.972656 179.199219 226.042969 180.097656 C 226.132812 181.238281 226.328125 182.371094 226.414062 183.515625 C 226.460938 184.164062 226.632812 184.777344 226.789062 185.398438 C 226.996094 186.234375 227.597656 186.546875 228.386719 186.671875 C 229.558594 186.859375 230.742188 186.820312 231.921875 186.898438 C 232.285156 186.921875 232.652344 187.0625 233.011719 186.953125 C 233.648438 186.761719 234.304688 186.890625 234.925781 186.9375 C 236.734375 187.066406 238.535156 186.929688 240.335938 186.871094 C 241.109375 186.84375 241.878906 186.621094 242.65625 186.660156 C 244.371094 186.746094 245.328125 185.707031 245.363281 184.078125 C 245.386719 182.96875 245.5625 181.863281 245.488281 180.75 C 245.425781 179.828125 245.578125 178.90625 245.457031 177.988281 C 245.386719 177.457031 245.1875 176.941406 245.285156 176.394531 C 246.445312 176.53125 247.613281 176.429688 248.765625 176.355469 C 250.929688 176.214844 253.097656 176.273438 255.261719 176.222656 C 256.4375 176.191406 257.613281 176.046875 258.792969 176.085938 C 259.164062 176.097656 259.460938 175.917969 259.722656 175.671875 Z M 259.722656 175.671875 " fill-opacity="1" fill-rule="nonzero"/><path fill="#ffffff" d="M 209.898438 177.441406 C 209.75 179.171875 209.578125 180.898438 209.40625 182.625 C 209.304688 183.605469 209.066406 184.59375 208.875 185.574219 C 208.679688 186.589844 208.503906 187.613281 208.332031 188.636719 C 208.023438 190.472656 207.578125 192.285156 207.082031 194.066406 C 206.738281 195.308594 206.554688 196.613281 206.019531 197.804688 C 205.992188 197.867188 205.976562 197.941406 205.96875 198.007812 C 205.886719 198.765625 205.71875 199.488281 205.453125 200.21875 C 205.121094 201.121094 205.058594 202.113281 204.839844 203.0625 C 204.605469 204.070312 204.453125 205.097656 204.085938 206.078125 C 203.921875 206.515625 203.792969 206.972656 203.722656 207.433594 C 203.59375 208.285156 203.195312 209.054688 203.003906 209.878906 C 202.796875 210.792969 202.390625 211.636719 202.046875 212.484375 C 201.496094 213.835938 201.050781 215.296875 199.976562 216.363281 C 199.5625 216.777344 199.074219 217.148438 198.589844 217.507812 C 198.003906 217.941406 197.359375 218.125 196.71875 218.351562 C 195.136719 218.917969 193.8125 218.457031 192.609375 217.359375 C 191.335938 216.203125 190.675781 214.738281 190.421875 213.09375 C 190.304688 212.355469 190.371094 211.582031 190.429688 210.832031 C 190.554688 209.28125 190.429688 207.734375 190.363281 206.191406 C 190.3125 205.046875 190.285156 203.855469 189.871094 202.75 C 189.113281 200.734375 187.601562 199.660156 185.222656 200.019531 C 184.253906 200.167969 183.707031 200.820312 183.207031 201.523438 C 182.390625 202.660156 181.914062 203.925781 181.726562 205.339844 C 181.578125 206.453125 181.292969 207.550781 181.152344 208.667969 C 180.960938 210.230469 180.765625 211.789062 180.539062 213.34375 C 180.449219 213.957031 180.265625 214.59375 180.019531 215.132812 C 179.371094 216.558594 178.414062 217.78125 176.816406 218.257812 C 176.085938 218.476562 175.316406 218.441406 174.550781 218.375 C 173.359375 218.269531 172.335938 217.800781 171.507812 216.96875 C 170.996094 216.457031 170.636719 215.835938 170.332031 215.15625 C 170.023438 214.46875 169.941406 213.71875 169.605469 213.054688 C 169.140625 212.132812 168.804688 211.179688 168.566406 210.175781 C 168.371094 209.351562 167.898438 208.621094 167.691406 207.789062 C 167.402344 206.648438 167.078125 205.519531 166.742188 204.390625 C 166.273438 202.816406 166.035156 201.1875 165.542969 199.617188 C 165.132812 198.320312 164.972656 196.941406 164.585938 195.636719 C 164.125 194.085938 163.882812 192.496094 163.644531 190.917969 C 163.363281 189.039062 163.132812 187.144531 162.964844 185.246094 C 162.878906 184.234375 162.621094 183.21875 162.542969 182.199219 C 162.453125 181.023438 162.152344 179.875 162.109375 178.695312 C 163.21875 178.652344 164.332031 178.777344 165.4375 178.589844 C 166.625 178.386719 167.824219 178.574219 169.023438 178.507812 C 170.960938 178.402344 172.90625 178.40625 174.847656 178.386719 C 175.285156 178.382812 175.71875 178.367188 176.144531 178.273438 C 176.386719 178.921875 176.222656 179.605469 176.339844 180.273438 C 176.589844 181.726562 176.597656 183.214844 176.902344 184.664062 C 177.078125 185.5 177.460938 186.179688 178.402344 186.324219 C 179.277344 186.457031 180.164062 186.519531 181.050781 186.554688 C 182.417969 186.605469 183.792969 186.53125 185.152344 186.613281 C 186.984375 186.722656 188.804688 186.632812 190.621094 186.546875 C 191.550781 186.503906 192.472656 186.34375 193.414062 186.359375 C 194.160156 186.371094 195.21875 185.621094 195.382812 185.003906 C 195.699219 183.800781 195.675781 182.558594 195.730469 181.328125 C 195.78125 180.136719 195.722656 178.9375 195.789062 177.742188 C 195.945312 177.832031 196.117188 177.859375 196.292969 177.828125 C 197.910156 177.539062 199.546875 177.722656 201.171875 177.628906 C 202.160156 177.570312 203.148438 177.585938 204.140625 177.554688 C 204.78125 177.535156 205.425781 177.441406 206.0625 177.472656 C 207.34375 177.53125 208.621094 177.484375 209.898438 177.441406 Z M 209.898438 177.441406 " fill-opacity="1" fill-rule="nonzero"/><g clip-path="url(#4fb282d294)"><path fill="#ffffff" d="M 160.265625 178.714844 C 160.261719 179.410156 160.308594 180.101562 160.113281 180.78125 C 160.074219 180.933594 160.039062 181.089844 160.039062 181.246094 C 160.035156 182.691406 159.707031 184.085938 159.441406 185.5 C 159.246094 186.550781 159.113281 187.617188 158.882812 188.667969 C 158.492188 190.484375 158.207031 192.335938 157.648438 194.097656 C 157.253906 195.335938 157.117188 196.644531 156.570312 197.835938 C 156.542969 197.898438 156.535156 197.972656 156.527344 198.039062 C 156.445312 198.78125 156.28125 199.484375 156.023438 200.199219 C 155.691406 201.121094 155.628906 202.132812 155.398438 203.09375 C 155.15625 204.085938 155.023438 205.101562 154.65625 206.058594 C 154.5 206.464844 154.359375 206.886719 154.304688 207.3125 C 154.199219 208.152344 153.878906 208.925781 153.617188 209.710938 C 153.050781 211.394531 152.394531 213.042969 151.652344 214.660156 C 151.09375 215.875 150.226562 216.773438 149.113281 217.515625 C 148.1875 218.128906 147.199219 218.523438 146.125 218.582031 C 144.375 218.679688 143.238281 217.589844 142.242188 216.320312 C 141.5 215.375 141.144531 214.253906 140.992188 213.105469 C 140.867188 212.175781 140.984375 211.214844 141 210.265625 C 141.027344 208.632812 141.019531 207 140.835938 205.375 C 140.734375 204.484375 140.765625 203.566406 140.425781 202.707031 C 139.660156 200.757812 138.164062 199.652344 135.796875 200.019531 C 134.785156 200.171875 134.246094 200.871094 133.71875 201.601562 C 132.90625 202.730469 132.484375 203.992188 132.28125 205.382812 C 132.113281 206.511719 131.847656 207.628906 131.699219 208.765625 C 131.503906 210.289062 131.320312 211.816406 131.101562 213.335938 C 131.011719 213.953125 130.832031 214.589844 130.585938 215.125 C 129.933594 216.546875 128.988281 217.785156 127.382812 218.257812 C 126.652344 218.472656 125.882812 218.433594 125.117188 218.375 C 123.882812 218.28125 122.839844 217.757812 121.992188 216.90625 C 121.515625 216.425781 121.175781 215.816406 120.898438 215.164062 C 120.613281 214.488281 120.507812 213.757812 120.191406 213.109375 C 119.722656 212.152344 119.359375 211.171875 119.113281 210.132812 C 118.921875 209.328125 118.464844 208.609375 118.257812 207.796875 C 117.96875 206.652344 117.640625 205.523438 117.304688 204.394531 C 116.835938 202.820312 116.601562 201.191406 116.105469 199.625 C 115.707031 198.375 115.535156 197.054688 115.179688 195.792969 C 114.714844 194.15625 114.429688 192.484375 114.1875 190.8125 C 113.917969 188.949219 113.679688 187.074219 113.519531 185.191406 C 113.441406 184.246094 113.210938 183.300781 113.125 182.351562 C 112.957031 180.523438 112.53125 178.722656 112.53125 176.875 C 112.9375 175.046875 113.328125 175.441406 113.449219 175.257812 C 113.617188 175.597656 112.71875 176.953125 112.683594 177.300781 C 112.617188 178.023438 112.929688 178.359375 113.582031 178.113281 C 114.171875 177.894531 114.726562 177.914062 115.308594 177.949219 C 115.414062 177.953125 115.519531 177.941406 115.621094 177.921875 C 116.921875 177.632812 118.257812 177.835938 119.570312 177.6875 C 119.90625 177.648438 120.292969 177.609375 120.671875 177.648438 C 121.328125 177.710938 122.019531 177.695312 122.667969 177.636719 C 123.285156 177.582031 123.90625 177.578125 124.527344 177.542969 C 124.785156 177.527344 125.019531 177.613281 125.035156 177.9375 C 124.769531 178.070312 124.488281 178.019531 124.210938 178.023438 C 122.929688 178.042969 121.644531 178.039062 120.363281 178.078125 C 119.042969 178.117188 117.726562 178.203125 116.410156 178.265625 C 115.476562 178.308594 114.542969 178.351562 113.609375 178.390625 C 113.167969 178.410156 112.851562 178.628906 112.800781 179.054688 C 112.75 179.457031 113 179.75 113.378906 179.890625 C 113.539062 179.949219 113.71875 179.984375 113.890625 179.984375 C 115.386719 179.980469 116.886719 180.027344 118.378906 179.9375 C 120.441406 179.8125 122.507812 179.863281 124.570312 179.742188 C 125.484375 179.691406 126.402344 179.695312 127.316406 179.671875 C 127.414062 179.882812 127.410156 180.109375 127.445312 180.335938 C 127.65625 181.8125 127.675781 183.316406 128.019531 184.777344 C 128.253906 185.78125 128.746094 186.230469 129.652344 186.355469 C 130.847656 186.523438 132.046875 186.507812 133.246094 186.59375 C 134.25 186.660156 135.257812 186.515625 136.253906 186.601562 C 138.066406 186.761719 139.871094 186.632812 141.675781 186.550781 C 142.605469 186.507812 143.527344 186.347656 144.46875 186.363281 C 145.460938 186.378906 146.402344 185.515625 146.566406 184.523438 C 146.75 183.390625 146.8125 182.25 146.800781 181.101562 C 146.796875 180.441406 146.828125 179.777344 146.84375 179.117188 C 148.351562 179.105469 149.855469 179.058594 151.359375 179.023438 C 153.085938 178.980469 154.804688 178.847656 156.535156 178.882812 C 156.898438 178.886719 157.269531 178.984375 157.621094 178.898438 C 158.496094 178.683594 159.390625 178.867188 160.265625 178.714844 Z M 160.265625 178.714844 " fill-opacity="1" fill-rule="nonzero"/></g><path fill="#ffffff" d="M 161.960938 176.59375 C 162.234375 175.941406 161.960938 175.253906 162.121094 174.582031 C 162.253906 174.015625 162.25 173.417969 162.316406 172.835938 C 162.4375 171.753906 162.453125 170.660156 162.585938 169.582031 C 162.726562 168.378906 162.90625 167.179688 163.34375 166.035156 C 163.578125 165.425781 163.785156 164.808594 164.027344 164.203125 C 164.136719 163.929688 164.332031 163.695312 164.449219 163.425781 C 165.042969 162.046875 166.113281 161.015625 167.082031 159.929688 C 167.6875 159.257812 168.464844 158.738281 169.304688 158.332031 C 170.035156 157.976562 170.660156 157.433594 171.457031 157.183594 C 171.777344 157.082031 172.097656 157.011719 172.421875 156.996094 C 173.230469 156.964844 173.984375 156.695312 174.761719 156.527344 C 175.847656 156.296875 176.859375 156.636719 177.886719 156.84375 C 178.910156 157.046875 179.910156 157.378906 180.921875 157.625 C 181.769531 157.832031 182.640625 158.003906 183.511719 158.121094 C 184.640625 158.273438 185.78125 158.402344 186.917969 158.226562 C 187.960938 158.066406 189.019531 158.039062 190.035156 157.695312 C 190.589844 157.507812 191.179688 157.40625 191.765625 157.324219 C 192.761719 157.179688 193.691406 156.78125 194.679688 156.589844 C 197.402344 156.0625 200.09375 156.054688 202.664062 157.167969 C 203.953125 157.722656 205.152344 158.476562 206.050781 159.65625 C 206.914062 160.796875 207.746094 161.941406 208.238281 163.292969 C 208.609375 164.320312 208.789062 165.402344 209.035156 166.460938 C 209.367188 167.894531 209.695312 169.332031 209.914062 170.785156 C 210.070312 171.808594 210.113281 172.855469 210.0625 173.894531 C 210.035156 174.414062 210.054688 174.933594 210.054688 175.453125 C 209.957031 175.742188 209.6875 175.6875 209.488281 175.699219 C 207.769531 175.804688 206.046875 175.730469 204.324219 175.851562 C 202.972656 175.945312 201.613281 175.917969 200.257812 175.9375 C 198.660156 175.964844 197.0625 175.984375 195.460938 176.007812 C 195.378906 175.636719 195.371094 175.253906 195.328125 174.875 C 195.144531 173.207031 194.636719 172.476562 192.753906 172.367188 C 192.34375 172.339844 191.925781 172.367188 191.511719 172.34375 C 189.929688 172.246094 188.359375 172.472656 186.78125 172.496094 C 185.808594 172.511719 184.863281 172.757812 183.890625 172.785156 C 183.097656 172.804688 182.296875 172.90625 181.527344 173.046875 C 180.308594 173.265625 179.089844 173.414062 177.863281 173.5 C 177.03125 173.558594 176.632812 173.898438 176.382812 174.648438 C 176.171875 175.289062 176.289062 175.925781 176.203125 176.558594 C 175.554688 176.664062 174.890625 176.585938 174.246094 176.640625 C 172.726562 176.769531 171.203125 176.691406 169.683594 176.785156 C 168.542969 176.855469 167.398438 176.835938 166.257812 176.855469 C 164.925781 176.882812 163.597656 177.039062 162.257812 176.941406 C 161.96875 176.917969 161.945312 176.808594 161.960938 176.59375 Z M 161.960938 176.59375 " fill-opacity="1" fill-rule="nonzero"/><g clip-path="url(#86197ff3bc)"><path fill="#ffffff" d="M 112.777344 177.0625 C 113.054688 176.410156 112.78125 175.71875 112.9375 175.046875 C 113.070312 174.484375 113.066406 173.886719 113.132812 173.300781 C 113.253906 172.222656 113.273438 171.128906 113.402344 170.046875 C 113.546875 168.847656 113.722656 167.644531 114.164062 166.503906 C 114.394531 165.894531 114.601562 165.273438 114.847656 164.671875 C 114.957031 164.398438 115.152344 164.164062 115.265625 163.894531 C 115.859375 162.511719 116.929688 161.484375 117.902344 160.398438 C 118.503906 159.722656 119.285156 159.207031 120.121094 158.800781 C 120.851562 158.445312 121.480469 157.902344 122.273438 157.648438 C 122.597656 157.546875 122.917969 157.476562 123.238281 157.464844 C 124.046875 157.433594 124.804688 157.160156 125.582031 156.996094 C 126.664062 156.765625 127.679688 157.105469 128.703125 157.308594 C 129.726562 157.511719 130.726562 157.84375 131.738281 158.09375 C 132.585938 158.300781 133.460938 158.472656 134.332031 158.589844 C 135.457031 158.738281 136.597656 158.867188 137.738281 158.695312 C 138.777344 158.53125 139.839844 158.507812 140.855469 158.164062 C 141.410156 157.972656 142 157.875 142.582031 157.792969 C 143.582031 157.648438 144.507812 157.25 145.496094 157.058594 C 148.21875 156.53125 150.914062 156.523438 153.480469 157.632812 C 154.769531 158.191406 155.96875 158.945312 156.867188 160.125 C 157.734375 161.265625 158.5625 162.410156 159.054688 163.761719 C 159.429688 164.789062 159.609375 165.867188 159.851562 166.929688 C 160.183594 168.363281 160.511719 169.800781 160.734375 171.253906 C 160.890625 172.277344 160.933594 173.320312 160.878906 174.363281 C 160.855469 174.882812 160.871094 175.402344 160.871094 175.921875 C 160.773438 176.207031 160.640625 177.011719 160.4375 177.023438 C 158.71875 177.128906 156.902344 176.984375 155.179688 177.105469 C 153.832031 177.203125 152.5625 177.417969 151.207031 177.441406 C 149.609375 177.464844 148.410156 177.414062 146.8125 177.4375 C 146.730469 177.0625 146.1875 175.722656 146.144531 175.34375 C 145.964844 173.675781 145.453125 172.945312 143.574219 172.832031 C 143.160156 172.808594 142.742188 172.835938 142.328125 172.808594 C 140.746094 172.710938 139.175781 172.9375 137.597656 172.964844 C 136.628906 172.980469 135.683594 173.226562 134.710938 173.25 C 133.917969 173.269531 133.117188 173.375 132.34375 173.511719 C 131.128906 173.730469 129.910156 173.878906 128.683594 173.964844 C 127.847656 174.023438 128.054688 174.507812 127.804688 175.257812 C 127.59375 175.894531 127.382812 177.308594 127.296875 177.941406 C 126.644531 178.050781 126.078125 177.894531 125.433594 177.949219 C 123.914062 178.078125 122.5625 178.367188 121.042969 178.460938 C 119.902344 178.53125 118.234375 177.921875 117.089844 177.941406 C 115.757812 177.96875 114.113281 178.550781 112.773438 178.449219 C 112.484375 178.429688 112.761719 177.277344 112.777344 177.0625 Z M 112.777344 177.0625 " fill-opacity="1" fill-rule="nonzero"/></g><path fill="#ffffff" d="M 211.761719 175.601562 C 211.929688 174.628906 211.984375 173.636719 212.089844 172.65625 C 212.195312 171.660156 212.238281 170.652344 212.355469 169.652344 C 212.5 168.378906 212.753906 167.140625 213.128906 165.90625 C 213.507812 164.664062 214.222656 163.597656 214.695312 162.410156 C 214.761719 162.238281 214.921875 162.152344 215.035156 162.023438 C 215.5625 161.40625 216.078125 160.773438 216.613281 160.160156 C 217.28125 159.390625 218.121094 158.847656 219 158.359375 C 219.410156 158.132812 219.816406 157.894531 220.210938 157.644531 C 220.828125 157.257812 221.492188 157.007812 222.21875 156.984375 C 223.027344 156.960938 223.777344 156.679688 224.558594 156.527344 C 225.464844 156.355469 226.3125 156.570312 227.167969 156.742188 C 228.347656 156.984375 229.53125 157.210938 230.65625 157.664062 C 230.960938 157.785156 231.277344 157.675781 231.585938 157.765625 C 232.585938 158.054688 233.621094 158.214844 234.648438 158.292969 C 235.730469 158.375 236.824219 158.226562 237.910156 158.085938 C 239.339844 157.898438 240.738281 157.539062 242.128906 157.191406 C 243.410156 156.871094 244.683594 156.5625 245.988281 156.359375 C 247.433594 156.136719 248.867188 156.253906 250.292969 156.496094 C 251.628906 156.722656 252.863281 157.277344 253.980469 158 C 254.761719 158.507812 255.460938 159.160156 256.039062 159.945312 C 256.707031 160.859375 257.351562 161.785156 257.816406 162.8125 C 258.257812 163.792969 258.386719 164.878906 258.671875 165.917969 C 259.109375 167.523438 259.363281 169.171875 259.667969 170.804688 C 259.859375 171.824219 259.910156 172.90625 259.773438 173.960938 C 259.734375 174.273438 259.964844 174.578125 259.753906 174.878906 C 259.519531 174.472656 259.148438 174.261719 258.707031 174.328125 C 257.871094 174.460938 257.023438 174.257812 256.179688 174.476562 C 255.667969 174.609375 255.097656 174.347656 254.574219 174.402344 C 252.945312 174.570312 251.308594 174.480469 249.679688 174.585938 C 248.152344 174.6875 246.621094 174.6875 245.089844 174.730469 C 245.054688 174.671875 245.007812 174.621094 244.988281 174.554688 C 244.554688 173.1875 243.8125 172.652344 242.390625 172.679688 C 242.011719 172.6875 241.628906 172.683594 241.25 172.660156 C 239.671875 172.570312 238.101562 172.777344 236.527344 172.8125 C 235.554688 172.835938 234.609375 173.078125 233.640625 173.097656 C 232.84375 173.109375 232.042969 173.21875 231.269531 173.359375 C 230.054688 173.582031 228.835938 173.714844 227.613281 173.820312 C 226.792969 173.886719 226.371094 174.191406 226.148438 174.972656 C 226.113281 175.085938 226.039062 175.1875 225.984375 175.296875 C 225.796875 175.28125 225.605469 175.246094 225.417969 175.253906 C 223.996094 175.308594 222.578125 175.375 221.160156 175.429688 C 220.882812 175.4375 220.605469 175.382812 220.328125 175.390625 C 219.257812 175.433594 218.1875 175.507812 217.113281 175.53125 C 215.933594 175.558594 214.753906 175.574219 213.578125 175.53125 C 212.964844 175.511719 212.371094 175.71875 211.761719 175.601562 Z M 211.761719 175.601562 " fill-opacity="1" fill-rule="nonzero"/><path fill="#615b5b" d="M 211.742188 175.605469 C 212.351562 175.722656 212.945312 175.515625 213.558594 175.539062 C 214.734375 175.578125 215.914062 175.5625 217.09375 175.535156 C 218.167969 175.511719 219.238281 175.4375 220.308594 175.398438 C 220.585938 175.386719 220.863281 175.445312 221.140625 175.433594 C 222.558594 175.378906 223.976562 175.3125 225.398438 175.257812 C 225.585938 175.25 225.777344 175.285156 225.964844 175.300781 C 225.964844 175.84375 225.960938 176.386719 225.960938 176.929688 C 224.511719 177.113281 223.046875 177.101562 221.601562 177.085938 C 219.738281 177.066406 217.886719 177.261719 216.023438 177.222656 C 214.597656 177.191406 213.164062 177.351562 211.734375 177.425781 C 211.117188 177.433594 210.496094 177.4375 209.878906 177.445312 C 208.601562 177.492188 207.324219 177.539062 206.042969 177.476562 C 205.40625 177.445312 204.761719 177.539062 204.121094 177.558594 C 203.128906 177.589844 202.140625 177.578125 201.152344 177.632812 C 199.527344 177.726562 197.890625 177.542969 196.273438 177.832031 C 196.097656 177.863281 195.925781 177.839844 195.769531 177.746094 C 195.480469 177.203125 195.65625 176.570312 195.441406 176.015625 C 197.042969 175.992188 198.640625 175.96875 200.238281 175.945312 C 201.59375 175.921875 202.953125 175.949219 204.304688 175.855469 C 206.027344 175.734375 207.75 175.8125 209.46875 175.703125 C 209.667969 175.691406 209.9375 175.746094 210.035156 175.457031 C 210.601562 175.519531 211.140625 175.90625 211.742188 175.605469 Z M 211.742188 175.605469 " fill-opacity="1" fill-rule="nonzero"/><path fill="#615b5b" d="M 154.65625 177.121094 C 154.832031 177.117188 155.007812 177.113281 155.179688 177.105469 C 156.933594 177.175781 158.6875 177.125 160.4375 177.023438 C 160.777344 177.019531 161.121094 176.992188 161.460938 177.015625 C 161.789062 177.039062 161.941406 176.917969 161.941406 176.597656 C 161.925781 176.8125 161.949219 176.921875 162.238281 176.945312 C 163.578125 177.046875 164.90625 176.886719 166.238281 176.863281 C 167.378906 176.839844 168.523438 176.859375 169.664062 176.789062 C 171.183594 176.695312 172.707031 176.773438 174.226562 176.644531 C 174.871094 176.589844 175.535156 176.667969 176.183594 176.5625 C 176.074219 177.132812 176.191406 177.707031 176.125 178.277344 C 175.699219 178.371094 175.265625 178.390625 174.828125 178.394531 C 172.886719 178.410156 170.941406 178.40625 169.003906 178.511719 C 167.804688 178.578125 166.605469 178.394531 165.417969 178.59375 C 164.3125 178.78125 163.199219 178.65625 162.089844 178.699219 C 161.476562 178.707031 160.863281 178.714844 160.246094 178.722656 C 159.371094 178.875 158.476562 178.6875 157.601562 178.902344 C 157.25 178.988281 156.878906 178.894531 156.515625 178.886719 C 154.785156 178.851562 153.066406 178.984375 151.339844 179.027344 C 149.835938 179.0625 148.332031 179.109375 146.824219 179.121094 C 146.820312 178.558594 146.816406 178 146.8125 177.4375 C 147.070312 177.40625 147.335938 177.3125 147.582031 177.351562 C 148.996094 177.585938 150.390625 177.128906 151.808594 177.273438 C 152.746094 177.367188 153.707031 177.183594 154.65625 177.121094 Z M 154.65625 177.121094 " fill-opacity="1" fill-rule="nonzero"/><path fill="#615b5b" d="M 245.089844 174.730469 C 246.621094 174.6875 248.152344 174.6875 249.679688 174.585938 C 251.308594 174.480469 252.945312 174.570312 254.574219 174.402344 C 255.097656 174.347656 255.667969 174.609375 256.179688 174.476562 C 257.023438 174.257812 257.871094 174.460938 258.707031 174.328125 C 259.148438 174.261719 259.519531 174.472656 259.753906 174.878906 C 259.890625 175.148438 259.773438 175.410156 259.722656 175.671875 C 259.460938 175.917969 259.164062 176.097656 258.792969 176.085938 C 257.613281 176.046875 256.4375 176.191406 255.261719 176.222656 C 253.097656 176.273438 250.929688 176.214844 248.765625 176.355469 C 247.613281 176.429688 246.445312 176.53125 245.285156 176.394531 C 245.097656 175.855469 245.015625 175.300781 245.089844 174.730469 Z M 245.089844 174.730469 " fill-opacity="1" fill-rule="nonzero"/><path fill="#5ce1e6" d="M 245.070312 174.738281 C 244.996094 175.308594 245.078125 175.859375 245.265625 176.402344 C 245.167969 176.949219 245.367188 177.460938 245.4375 177.992188 C 245.558594 178.910156 245.40625 179.835938 245.46875 180.753906 C 245.542969 181.867188 245.367188 182.972656 245.34375 184.082031 C 245.308594 185.710938 244.351562 186.75 242.636719 186.664062 C 241.859375 186.625 241.089844 186.847656 240.316406 186.875 C 238.515625 186.933594 236.714844 187.070312 234.90625 186.941406 C 234.285156 186.898438 233.628906 186.765625 232.992188 186.957031 C 232.632812 187.066406 232.265625 186.925781 231.902344 186.902344 C 230.722656 186.828125 229.539062 186.863281 228.367188 186.679688 C 227.578125 186.554688 226.976562 186.238281 226.769531 185.402344 C 226.613281 184.78125 226.441406 184.171875 226.394531 183.519531 C 226.308594 182.378906 226.113281 181.246094 226.023438 180.105469 C 225.953125 179.207031 225.972656 178.300781 225.953125 177.398438 C 225.949219 177.242188 225.957031 177.085938 225.960938 176.929688 C 225.960938 176.386719 225.964844 175.84375 225.964844 175.300781 C 226.023438 175.195312 226.09375 175.09375 226.128906 174.976562 C 226.351562 174.195312 226.773438 173.890625 227.59375 173.824219 C 228.816406 173.722656 230.035156 173.585938 231.25 173.367188 C 232.023438 173.226562 232.824219 173.113281 233.621094 173.101562 C 234.589844 173.085938 235.535156 172.839844 236.507812 172.816406 C 238.082031 172.78125 239.652344 172.574219 241.230469 172.664062 C 241.609375 172.6875 241.992188 172.691406 242.371094 172.6875 C 243.792969 172.660156 244.535156 173.191406 244.96875 174.5625 C 244.988281 174.625 245.035156 174.679688 245.070312 174.738281 Z M 232.082031 182.019531 C 232.058594 182.019531 232.039062 182.019531 232.015625 182.019531 C 232.015625 181.636719 232.035156 181.25 232.007812 180.871094 C 232 180.695312 232.015625 180.609375 232.207031 180.597656 C 233.46875 180.519531 234.722656 180.378906 235.96875 180.15625 C 237.054688 179.964844 238.164062 180.320312 239.242188 180.011719 C 239.691406 179.882812 239.835938 180.097656 239.832031 180.523438 C 239.820312 181.425781 239.796875 182.332031 239.941406 183.230469 C 240.007812 183.65625 240.179688 183.964844 240.617188 184.050781 C 241.03125 184.132812 241.304688 183.914062 241.511719 183.570312 C 241.855469 183 241.683594 182.375 241.679688 181.78125 C 241.675781 180.585938 241.582031 179.390625 241.5 178.195312 C 241.457031 177.605469 241.378906 177.015625 241.28125 176.433594 C 241.21875 176.070312 240.945312 175.859375 240.574219 175.847656 C 240.210938 175.832031 239.929688 176.003906 239.820312 176.367188 C 239.714844 176.710938 239.609375 177.050781 239.679688 177.4375 C 239.824219 178.257812 239.753906 178.316406 238.910156 178.351562 C 238.859375 178.355469 238.808594 178.355469 238.753906 178.355469 C 236.675781 178.28125 234.617188 178.429688 232.574219 178.835938 C 231.945312 178.960938 231.828125 178.855469 231.871094 178.195312 C 231.878906 178.074219 231.925781 177.957031 231.933594 177.835938 C 231.980469 177.269531 231.652344 176.757812 231.21875 176.710938 C 230.734375 176.660156 230.464844 176.964844 230.34375 177.59375 C 230.15625 178.558594 230.292969 179.527344 230.261719 180.496094 C 230.230469 181.472656 230.304688 182.429688 230.570312 183.367188 C 230.691406 183.796875 230.988281 184 231.4375 183.929688 C 231.859375 183.859375 232.074219 183.59375 232.078125 183.167969 C 232.085938 182.785156 232.082031 182.402344 232.082031 182.019531 Z M 232.082031 182.019531 " fill-opacity="1" fill-rule="nonzero"/><path fill="#5ce1e6" d="M 176.125 178.277344 C 176.191406 177.707031 176.074219 177.132812 176.183594 176.5625 C 176.269531 175.929688 176.152344 175.292969 176.363281 174.65625 C 176.613281 173.90625 177.011719 173.5625 177.84375 173.503906 C 179.070312 173.417969 180.289062 173.269531 181.507812 173.050781 C 182.277344 172.910156 183.078125 172.808594 183.871094 172.789062 C 184.84375 172.761719 185.789062 172.519531 186.761719 172.5 C 188.339844 172.476562 189.910156 172.25 191.492188 172.347656 C 191.90625 172.371094 192.324219 172.347656 192.734375 172.371094 C 194.617188 172.484375 195.125 173.214844 195.308594 174.878906 C 195.351562 175.257812 195.359375 175.640625 195.441406 176.015625 C 195.65625 176.570312 195.480469 177.203125 195.769531 177.746094 C 195.703125 178.941406 195.761719 180.140625 195.710938 181.335938 C 195.65625 182.5625 195.679688 183.808594 195.363281 185.007812 C 195.199219 185.625 194.140625 186.378906 193.394531 186.367188 C 192.453125 186.351562 191.53125 186.507812 190.601562 186.550781 C 188.785156 186.636719 186.964844 186.726562 185.132812 186.617188 C 183.773438 186.535156 182.402344 186.609375 181.03125 186.558594 C 180.144531 186.523438 179.257812 186.464844 178.382812 186.328125 C 177.441406 186.183594 177.058594 185.507812 176.882812 184.667969 C 176.578125 183.21875 176.570312 181.730469 176.320312 180.277344 C 176.203125 179.609375 176.367188 178.925781 176.125 178.277344 Z M 180.539062 180.34375 C 180.4375 181.21875 180.566406 182.09375 180.773438 182.960938 C 180.851562 183.28125 181.023438 183.542969 181.375 183.617188 C 181.667969 183.683594 181.9375 183.605469 182.136719 183.378906 C 182.367188 183.109375 182.378906 182.78125 182.347656 182.4375 C 182.296875 181.832031 182.289062 181.21875 182.246094 180.613281 C 182.234375 180.429688 182.246094 180.320312 182.464844 180.289062 C 183.613281 180.113281 184.78125 180.160156 185.925781 179.859375 C 187.050781 179.5625 188.238281 179.9375 189.394531 179.738281 C 190.019531 179.628906 190.097656 179.738281 190.09375 180.367188 C 190.089844 181.164062 190.097656 181.960938 190.171875 182.757812 C 190.230469 183.410156 190.492188 183.742188 191.015625 183.738281 C 191.46875 183.734375 191.9375 183.292969 191.929688 182.769531 C 191.921875 182.371094 191.992188 181.96875 191.945312 181.582031 C 191.800781 180.335938 191.878906 179.078125 191.761719 177.832031 C 191.710938 177.296875 191.664062 176.757812 191.5625 176.230469 C 191.492188 175.855469 191.289062 175.550781 190.832031 175.535156 C 190.398438 175.523438 190.164062 175.753906 190.027344 176.140625 C 189.894531 176.519531 189.9375 176.898438 189.953125 177.28125 C 189.984375 178.027344 189.984375 178.0625 189.222656 178.042969 C 186.933594 177.984375 184.660156 178.097656 182.429688 178.640625 C 182.210938 178.695312 182.210938 178.558594 182.183594 178.414062 C 182.132812 178.101562 182.175781 177.789062 182.1875 177.476562 C 182.214844 176.871094 181.878906 176.421875 181.425781 176.394531 C 180.941406 176.367188 180.632812 176.714844 180.558594 177.363281 C 180.441406 178.347656 180.496094 179.335938 180.539062 180.34375 Z M 180.539062 180.34375 " fill-opacity="1" fill-rule="nonzero"/><path fill="#5ce1e6" d="M 146.8125 177.4375 C 146.816406 178 146.820312 178.558594 146.824219 179.121094 C 146.808594 179.785156 146.777344 180.445312 146.78125 181.105469 C 146.792969 182.253906 146.730469 183.394531 146.546875 184.527344 C 146.382812 185.519531 145.441406 186.382812 144.449219 186.367188 C 143.507812 186.351562 142.585938 186.515625 141.65625 186.554688 C 139.851562 186.640625 138.046875 186.769531 136.234375 186.609375 C 135.238281 186.519531 134.230469 186.667969 133.226562 186.597656 C 132.027344 186.515625 130.828125 186.527344 129.632812 186.363281 C 128.726562 186.234375 128.234375 185.785156 128 184.78125 C 127.65625 183.320312 127.636719 181.816406 127.425781 180.339844 C 127.390625 180.117188 127.394531 179.886719 127.296875 179.675781 C 127.296875 179.097656 127.296875 178.519531 127.296875 177.941406 C 127.296875 177.074219 127.261719 176.207031 127.3125 175.34375 C 127.386719 174.09375 127.882812 173.589844 128.90625 173.511719 C 130.136719 173.417969 131.367188 173.347656 132.566406 173.03125 C 132.699219 172.996094 132.84375 172.972656 132.980469 172.980469 C 133.628906 173.035156 134.242188 172.84375 134.871094 172.742188 C 134.933594 172.742188 135 172.742188 135.0625 172.742188 C 135.789062 172.917969 136.457031 172.484375 137.171875 172.523438 C 137.382812 172.59375 137.589844 172.554688 137.792969 172.492188 C 138.242188 172.367188 138.714844 172.578125 139.15625 172.386719 C 139.296875 172.386719 139.433594 172.386719 139.574219 172.390625 C 140.957031 172.398438 142.335938 172.25 143.722656 172.359375 C 144.804688 172.445312 145.75 172.664062 146.203125 173.792969 C 146.1875 173.820312 146.195312 173.839844 146.222656 173.851562 C 146.417969 174.847656 146.492188 175.859375 146.597656 176.867188 C 146.621094 177.078125 146.671875 177.273438 146.8125 177.4375 Z M 133.410156 181.769531 C 133.394531 181.769531 133.382812 181.769531 133.371094 181.769531 C 133.371094 181.4375 133.394531 181.101562 133.363281 180.773438 C 133.328125 180.4375 133.460938 180.324219 133.777344 180.261719 C 134.835938 180.054688 135.917969 180.195312 136.980469 179.867188 C 138.054688 179.535156 139.214844 179.914062 140.339844 179.746094 C 141.179688 179.617188 141.195312 179.695312 141.164062 180.578125 C 141.132812 181.398438 141.15625 182.214844 141.296875 183.027344 C 141.355469 183.363281 141.511719 183.625 141.855469 183.710938 C 142.226562 183.800781 142.546875 183.695312 142.777344 183.382812 C 142.960938 183.136719 143.046875 182.867188 143.03125 182.550781 C 142.988281 181.492188 143 180.433594 142.917969 179.378906 C 142.839844 178.335938 142.835938 177.289062 142.644531 176.257812 C 142.566406 175.820312 142.34375 175.554688 141.890625 175.539062 C 141.464844 175.527344 141.242188 175.753906 141.109375 176.160156 C 140.972656 176.578125 140.96875 176.984375 141.046875 177.398438 C 141.132812 177.859375 140.945312 178.054688 140.496094 178.042969 C 140.464844 178.042969 140.429688 178.046875 140.394531 178.046875 C 138.070312 177.976562 135.765625 178.085938 133.5 178.644531 C 133.332031 178.6875 133.285156 178.605469 133.265625 178.460938 C 133.226562 178.203125 133.164062 177.945312 133.234375 177.683594 C 133.324219 177.375 133.234375 177.089844 133.117188 176.820312 C 132.988281 176.523438 132.742188 176.363281 132.402344 176.394531 C 132.078125 176.429688 131.808594 176.605469 131.742188 176.910156 C 131.578125 177.636719 131.484375 178.382812 131.558594 179.125 C 131.617188 179.667969 131.617188 180.203125 131.597656 180.742188 C 131.566406 181.5625 131.679688 182.363281 131.933594 183.140625 C 132.054688 183.507812 132.355469 183.695312 132.757812 183.621094 C 133.144531 183.554688 133.394531 183.328125 133.40625 182.917969 C 133.417969 182.535156 133.410156 182.152344 133.410156 181.769531 Z M 133.410156 181.769531 " fill-opacity="1" fill-rule="nonzero"/><g clip-path="url(#44f3cb1b26)"><path fill="#615b5b" d="M 127.296875 177.941406 C 127.296875 178.519531 127.296875 179.097656 127.296875 179.675781 C 126.382812 179.699219 125.464844 179.695312 124.554688 179.75 C 122.488281 179.871094 120.421875 179.820312 118.359375 179.941406 C 116.867188 180.03125 115.367188 179.984375 113.871094 179.988281 C 113.699219 179.988281 113.519531 179.953125 113.359375 179.894531 C 112.980469 179.753906 112.730469 179.460938 112.78125 179.0625 C 112.832031 178.632812 113.148438 178.414062 113.589844 178.394531 C 114.523438 178.359375 115.457031 178.316406 116.390625 178.269531 C 117.707031 178.207031 119.023438 178.125 120.34375 178.082031 C 121.625 178.042969 122.910156 178.046875 124.191406 178.027344 C 124.46875 178.023438 124.75 178.074219 125.015625 177.945312 C 125.15625 177.945312 125.296875 177.945312 125.433594 177.949219 C 126.054688 177.945312 126.675781 177.945312 127.296875 177.941406 Z M 127.296875 177.941406 " fill-opacity="1" fill-rule="nonzero"/></g></svg>