<svg xmlns="http://www.w3.org/2000/svg" xmlns:xlink="http://www.w3.org/1999/xlink" width="120" zoomAndPan="magnify" viewBox="0 0 90 37.5" height="50" preserveAspectRatio="xMidYMid meet" version="1.0"><defs><clipPath id="cbe2f05e89"><path d="M 1.296875 8 L 30 8 L 30 22 L 1.296875 22 Z M 1.296875 8 " clip-rule="nonzero"/></clipPath><clipPath id="1910a84ad1"><path d="M 1.296875 11 L 30 11 L 30 37 L 1.296875 37 Z M 1.296875 11 " clip-rule="nonzero"/></clipPath><clipPath id="9790576f5e"><path d="M 1.296875 0 L 30 0 L 30 14 L 1.296875 14 Z M 1.296875 0 " clip-rule="nonzero"/></clipPath><clipPath id="e061c295f1"><path d="M 1.296875 12 L 10 12 L 10 15 L 1.296875 15 Z M 1.296875 12 " clip-rule="nonzero"/></clipPath></defs><g clip-path="url(#cbe2f05e89)"><path fill="#ffffff" d="M 9.984375 9.890625 L 1.460938 13.546875 C 1.460938 13.546875 1.316406 14.5 3.148438 16.488281 C 4.980469 18.472656 15.335938 21.449219 15.335938 21.449219 L 29.34375 13.347656 C 29.34375 13.347656 31.191406 11.148438 27.527344 9.585938 C 23.859375 8.023438 12.476562 8.207031 12.476562 8.207031 Z M 9.984375 9.890625 " fill-opacity="1" fill-rule="nonzero"/></g><path fill="#ffffff" d="M 38.703125 9.890625 L 31.375 10.757812 C 31.375 10.757812 29.355469 13.34375 31.871094 16.488281 C 33.558594 18.597656 44.058594 21.449219 44.058594 21.449219 L 58.066406 13.347656 C 58.066406 13.347656 59.914062 11.148438 56.25 9.585938 C 52.582031 8.023438 41.199219 8.207031 41.199219 8.207031 Z M 38.703125 9.890625 " fill-opacity="1" fill-rule="nonzero"/><path fill="#ffffff" d="M 68.179688 9.890625 L 59.703125 10.757812 C 59.703125 10.757812 59.511719 14.5 61.347656 16.488281 C 63.179688 18.472656 73.535156 21.449219 73.535156 21.449219 L 87.542969 13.347656 C 87.542969 13.347656 89.390625 11.148438 85.726562 9.585938 C 82.058594 8.023438 70.675781 8.207031 70.675781 8.207031 Z M 68.179688 9.890625 " fill-opacity="1" fill-rule="nonzero"/><path fill="#050606" d="M 23.59375 13.871094 C 23.59375 14.371094 23.546875 14.871094 23.453125 15.363281 C 23.359375 15.851562 23.21875 16.332031 23.035156 16.792969 C 22.851562 17.257812 22.625 17.699219 22.355469 18.117188 C 22.089844 18.53125 21.785156 18.917969 21.441406 19.273438 C 21.101562 19.628906 20.730469 19.945312 20.332031 20.222656 C 19.929688 20.5 19.507812 20.738281 19.0625 20.929688 C 18.613281 21.121094 18.15625 21.265625 17.683594 21.363281 C 17.210938 21.460938 16.734375 21.511719 16.25 21.511719 C 15.769531 21.511719 15.289062 21.460938 14.816406 21.363281 C 14.34375 21.265625 13.886719 21.121094 13.441406 20.929688 C 12.996094 20.738281 12.570312 20.5 12.171875 20.222656 C 11.769531 19.945312 11.398438 19.628906 11.058594 19.273438 C 10.714844 18.917969 10.410156 18.53125 10.144531 18.117188 C 9.875 17.699219 9.648438 17.257812 9.464844 16.792969 C 9.28125 16.332031 9.140625 15.851562 9.046875 15.363281 C 8.953125 14.871094 8.90625 14.371094 8.90625 13.871094 C 8.90625 13.371094 8.953125 12.871094 9.046875 12.378906 C 9.140625 11.890625 9.28125 11.410156 9.464844 10.949219 C 9.648438 10.484375 9.875 10.042969 10.144531 9.625 C 10.410156 9.210938 10.714844 8.824219 11.058594 8.46875 C 11.398438 8.113281 11.769531 7.796875 12.171875 7.519531 C 12.570312 7.242188 12.996094 7.003906 13.441406 6.8125 C 13.886719 6.621094 14.34375 6.476562 14.816406 6.378906 C 15.289062 6.28125 15.769531 6.230469 16.25 6.230469 C 16.734375 6.230469 17.210938 6.28125 17.683594 6.378906 C 18.15625 6.476562 18.613281 6.621094 19.0625 6.8125 C 19.507812 7.003906 19.929688 7.242188 20.332031 7.519531 C 20.730469 7.796875 21.101562 8.113281 21.441406 8.46875 C 21.785156 8.824219 22.089844 9.210938 22.355469 9.625 C 22.625 10.042969 22.851562 10.484375 23.035156 10.949219 C 23.21875 11.410156 23.359375 11.890625 23.453125 12.378906 C 23.546875 12.871094 23.59375 13.371094 23.59375 13.871094 Z M 23.59375 13.871094 " fill-opacity="1" fill-rule="nonzero"/><path fill="#050606" d="M 51.210938 13.871094 C 51.210938 14.371094 51.164062 14.871094 51.070312 15.363281 C 50.976562 15.851562 50.835938 16.332031 50.652344 16.792969 C 50.46875 17.257812 50.242188 17.699219 49.972656 18.117188 C 49.707031 18.53125 49.402344 18.917969 49.058594 19.273438 C 48.71875 19.628906 48.347656 19.945312 47.945312 20.222656 C 47.546875 20.5 47.121094 20.738281 46.675781 20.929688 C 46.230469 21.121094 45.773438 21.265625 45.300781 21.363281 C 44.828125 21.460938 44.347656 21.511719 43.867188 21.511719 C 43.382812 21.511719 42.90625 21.460938 42.433594 21.363281 C 41.960938 21.265625 41.5 21.121094 41.054688 20.929688 C 40.609375 20.738281 40.1875 20.5 39.785156 20.222656 C 39.386719 19.945312 39.015625 19.628906 38.671875 19.273438 C 38.332031 18.917969 38.027344 18.53125 37.761719 18.117188 C 37.492188 17.699219 37.265625 17.257812 37.082031 16.792969 C 36.898438 16.332031 36.757812 15.851562 36.664062 15.363281 C 36.570312 14.871094 36.523438 14.371094 36.523438 13.871094 C 36.523438 13.371094 36.570312 12.871094 36.664062 12.378906 C 36.757812 11.890625 36.898438 11.410156 37.082031 10.949219 C 37.265625 10.484375 37.492188 10.042969 37.761719 9.625 C 38.027344 9.210938 38.332031 8.824219 38.671875 8.46875 C 39.015625 8.113281 39.386719 7.796875 39.785156 7.519531 C 40.1875 7.242188 40.609375 7.003906 41.054688 6.8125 C 41.5 6.621094 41.960938 6.476562 42.433594 6.378906 C 42.90625 6.28125 43.382812 6.230469 43.867188 6.230469 C 44.347656 6.230469 44.828125 6.28125 45.300781 6.378906 C 45.773438 6.476562 46.230469 6.621094 46.675781 6.8125 C 47.121094 7.003906 47.546875 7.242188 47.945312 7.519531 C 48.347656 7.796875 48.71875 8.113281 49.058594 8.46875 C 49.402344 8.824219 49.707031 9.210938 49.972656 9.625 C 50.242188 10.042969 50.46875 10.484375 50.652344 10.949219 C 50.835938 11.410156 50.976562 11.890625 51.070312 12.378906 C 51.164062 12.871094 51.210938 13.371094 51.210938 13.871094 Z M 51.210938 13.871094 " fill-opacity="1" fill-rule="nonzero"/><path fill="#050606" d="M 81.175781 13.871094 C 81.175781 14.371094 81.128906 14.871094 81.035156 15.363281 C 80.941406 15.851562 80.800781 16.332031 80.617188 16.792969 C 80.433594 17.257812 80.207031 17.699219 79.9375 18.117188 C 79.671875 18.53125 79.367188 18.917969 79.027344 19.273438 C 78.683594 19.628906 78.3125 19.945312 77.914062 20.222656 C 77.511719 20.5 77.089844 20.738281 76.644531 20.929688 C 76.199219 21.121094 75.738281 21.265625 75.265625 21.363281 C 74.792969 21.460938 74.316406 21.511719 73.832031 21.511719 C 73.351562 21.511719 72.871094 21.460938 72.398438 21.363281 C 71.925781 21.265625 71.46875 21.121094 71.023438 20.929688 C 70.578125 20.738281 70.152344 20.5 69.753906 20.222656 C 69.351562 19.945312 68.980469 19.628906 68.640625 19.273438 C 68.296875 18.917969 67.996094 18.53125 67.726562 18.117188 C 67.457031 17.699219 67.230469 17.257812 67.046875 16.792969 C 66.863281 16.332031 66.722656 15.851562 66.628906 15.363281 C 66.535156 14.871094 66.488281 14.371094 66.488281 13.871094 C 66.488281 13.371094 66.535156 12.871094 66.628906 12.378906 C 66.722656 11.890625 66.863281 11.410156 67.046875 10.949219 C 67.230469 10.484375 67.457031 10.042969 67.726562 9.625 C 67.996094 9.210938 68.296875 8.824219 68.640625 8.46875 C 68.980469 8.113281 69.351562 7.796875 69.753906 7.519531 C 70.152344 7.242188 70.578125 7.003906 71.023438 6.8125 C 71.46875 6.621094 71.925781 6.476562 72.398438 6.378906 C 72.871094 6.28125 73.351562 6.230469 73.832031 6.230469 C 74.316406 6.230469 74.792969 6.28125 75.265625 6.378906 C 75.738281 6.476562 76.199219 6.621094 76.644531 6.8125 C 77.089844 7.003906 77.511719 7.242188 77.914062 7.519531 C 78.3125 7.796875 78.683594 8.113281 79.027344 8.46875 C 79.367188 8.824219 79.671875 9.210938 79.9375 9.625 C 80.207031 10.042969 80.433594 10.484375 80.617188 10.949219 C 80.800781 11.410156 80.941406 11.890625 81.035156 12.378906 C 81.128906 12.871094 81.175781 13.371094 81.175781 13.871094 Z M 81.175781 13.871094 " fill-opacity="1" fill-rule="nonzero"/><path fill="#ffffff" d="M 87.773438 11.554688 C 87.785156 12.28125 87.683594 13.003906 87.625 13.726562 C 87.546875 14.609375 87.4375 15.488281 87.335938 16.371094 C 87.3125 16.601562 87.261719 16.832031 87.21875 17.0625 C 87.035156 18.019531 86.855469 18.980469 86.667969 19.9375 C 86.601562 20.265625 86.515625 20.589844 86.425781 20.910156 C 86.230469 21.605469 86.144531 22.328125 85.871094 23.007812 C 85.761719 23.28125 85.726562 23.597656 85.65625 23.894531 C 85.523438 24.425781 85.441406 24.976562 85.292969 25.492188 C 85.15625 25.957031 85.046875 26.433594 84.914062 26.898438 C 84.789062 27.328125 84.746094 27.773438 84.636719 28.210938 C 84.492188 28.816406 84.289062 29.40625 84.167969 30.015625 C 84.023438 30.746094 83.695312 31.421875 83.53125 32.144531 C 83.5 32.28125 83.414062 32.40625 83.359375 32.539062 C 83.03125 33.335938 82.761719 34.15625 82.320312 34.90625 C 82.023438 35.414062 81.570312 35.761719 81.105469 36.113281 C 80.769531 36.371094 80.390625 36.488281 80.011719 36.625 C 79.113281 36.941406 78.34375 36.71875 77.636719 36.097656 C 76.835938 35.394531 76.421875 34.492188 76.28125 33.464844 C 76.21875 33.003906 76.277344 32.523438 76.300781 32.054688 C 76.351562 30.96875 76.289062 29.890625 76.191406 28.808594 C 76.148438 28.347656 76.101562 27.886719 75.972656 27.433594 C 75.65625 26.335938 74.40625 25.621094 73.277344 25.84375 C 72.503906 25.996094 72.160156 26.570312 71.796875 27.136719 C 71.421875 27.71875 71.28125 28.382812 71.167969 29.0625 C 71.066406 29.65625 70.925781 30.242188 70.867188 30.839844 C 70.800781 31.464844 70.671875 32.082031 70.621094 32.710938 C 70.578125 33.246094 70.46875 33.773438 70.3125 34.296875 C 70.160156 34.816406 69.917969 35.296875 69.597656 35.695312 C 69.199219 36.195312 68.636719 36.527344 67.945312 36.628906 C 67.457031 36.703125 66.988281 36.628906 66.519531 36.570312 C 66.152344 36.523438 65.8125 36.316406 65.507812 36.09375 C 65.015625 35.730469 64.703125 35.25 64.476562 34.664062 C 64.226562 34.011719 63.96875 33.359375 63.726562 32.703125 C 63.414062 31.847656 63.054688 30.996094 62.839844 30.117188 C 62.628906 29.246094 62.328125 28.402344 62.167969 27.519531 C 62.058594 26.9375 61.902344 26.363281 61.726562 25.792969 C 61.582031 25.320312 61.457031 24.835938 61.375 24.339844 C 61.300781 23.910156 61.179688 23.488281 61.070312 23.066406 C 60.972656 22.683594 60.894531 22.300781 60.8125 21.914062 C 60.722656 21.492188 60.683594 21.058594 60.597656 20.632812 C 60.460938 19.9375 60.40625 19.222656 60.3125 18.519531 C 60.179688 17.460938 60.035156 16.402344 59.90625 15.34375 C 59.832031 14.746094 59.746094 14.152344 59.679688 13.558594 C 59.644531 13.230469 59.589844 12.910156 59.597656 12.582031 C 60.4375 12.539062 61.28125 12.445312 62.121094 12.460938 C 63.214844 12.488281 64.300781 12.371094 65.394531 12.382812 C 66.246094 12.394531 67.105469 12.398438 67.953125 12.289062 C 67.953125 12.382812 67.949219 12.472656 67.953125 12.566406 C 67.960938 13.097656 67.949219 13.628906 67.992188 14.15625 C 68.042969 14.824219 68.160156 15.492188 68.210938 16.164062 C 68.238281 16.542969 68.339844 16.902344 68.429688 17.269531 C 68.550781 17.757812 68.90625 17.945312 69.367188 18.015625 C 70.058594 18.125 70.753906 18.105469 71.445312 18.148438 C 71.660156 18.164062 71.875 18.246094 72.085938 18.183594 C 72.460938 18.070312 72.84375 18.144531 73.210938 18.171875 C 74.273438 18.25 75.332031 18.167969 76.390625 18.132812 C 76.84375 18.117188 77.292969 17.984375 77.75 18.007812 C 78.757812 18.058594 79.320312 17.449219 79.339844 16.492188 C 79.355469 15.839844 79.457031 15.191406 79.414062 14.539062 C 79.378906 13.996094 79.46875 13.453125 79.394531 12.914062 C 79.355469 12.605469 79.238281 12.300781 79.296875 11.980469 C 79.976562 12.0625 80.660156 12 81.339844 11.957031 C 82.609375 11.875 83.882812 11.910156 85.15625 11.878906 C 85.847656 11.859375 86.535156 11.773438 87.230469 11.796875 C 87.449219 11.804688 87.621094 11.699219 87.773438 11.554688 Z M 87.773438 11.554688 " fill-opacity="1" fill-rule="nonzero"/><path fill="#ffffff" d="M 58.507812 12.59375 C 58.421875 13.609375 58.320312 14.625 58.21875 15.640625 C 58.160156 16.214844 58.019531 16.796875 57.910156 17.371094 C 57.792969 17.96875 57.691406 18.570312 57.589844 19.171875 C 57.410156 20.25 57.144531 21.3125 56.855469 22.359375 C 56.652344 23.089844 56.542969 23.855469 56.230469 24.558594 C 56.214844 24.59375 56.203125 24.636719 56.199219 24.675781 C 56.152344 25.121094 56.054688 25.542969 55.898438 25.972656 C 55.703125 26.503906 55.664062 27.089844 55.539062 27.644531 C 55.398438 28.238281 55.308594 28.839844 55.09375 29.414062 C 55 29.671875 54.921875 29.941406 54.882812 30.214844 C 54.804688 30.714844 54.570312 31.164062 54.460938 31.648438 C 54.335938 32.183594 54.101562 32.679688 53.898438 33.179688 C 53.574219 33.972656 53.3125 34.832031 52.683594 35.457031 C 52.4375 35.703125 52.152344 35.917969 51.867188 36.128906 C 51.523438 36.382812 51.144531 36.492188 50.765625 36.625 C 49.839844 36.957031 49.0625 36.6875 48.351562 36.042969 C 47.605469 35.363281 47.21875 34.503906 47.066406 33.535156 C 47 33.105469 47.039062 32.648438 47.074219 32.207031 C 47.148438 31.296875 47.074219 30.386719 47.035156 29.484375 C 47.003906 28.808594 46.988281 28.109375 46.746094 27.460938 C 46.300781 26.277344 45.410156 25.644531 44.015625 25.855469 C 43.445312 25.945312 43.125 26.328125 42.828125 26.738281 C 42.351562 27.410156 42.070312 28.152344 41.960938 28.984375 C 41.871094 29.636719 41.707031 30.28125 41.625 30.9375 C 41.511719 31.855469 41.394531 32.769531 41.261719 33.683594 C 41.210938 34.042969 41.101562 34.417969 40.957031 34.734375 C 40.578125 35.570312 40.015625 36.289062 39.078125 36.570312 C 38.648438 36.699219 38.195312 36.679688 37.746094 36.640625 C 37.046875 36.578125 36.445312 36.304688 35.957031 35.8125 C 35.660156 35.511719 35.449219 35.148438 35.269531 34.75 C 35.085938 34.34375 35.039062 33.902344 34.839844 33.515625 C 34.566406 32.972656 34.371094 32.414062 34.230469 31.824219 C 34.117188 31.339844 33.839844 30.910156 33.714844 30.421875 C 33.546875 29.75 33.355469 29.085938 33.15625 28.425781 C 32.882812 27.5 32.746094 26.542969 32.453125 25.621094 C 32.214844 24.859375 32.121094 24.050781 31.890625 23.28125 C 31.621094 22.371094 31.476562 21.4375 31.339844 20.511719 C 31.175781 19.40625 31.039062 18.296875 30.941406 17.179688 C 30.890625 16.585938 30.738281 15.988281 30.691406 15.390625 C 30.640625 14.699219 30.464844 14.023438 30.4375 13.332031 C 31.089844 13.304688 31.742188 13.378906 32.390625 13.269531 C 33.089844 13.152344 33.796875 13.261719 34.5 13.222656 C 35.636719 13.160156 36.78125 13.160156 37.921875 13.152344 C 38.179688 13.148438 38.429688 13.136719 38.683594 13.082031 C 38.824219 13.464844 38.726562 13.867188 38.796875 14.257812 C 38.941406 15.109375 38.949219 15.984375 39.125 16.835938 C 39.230469 17.328125 39.457031 17.726562 40.007812 17.8125 C 40.523438 17.890625 41.042969 17.925781 41.566406 17.949219 C 42.367188 17.976562 43.175781 17.933594 43.972656 17.980469 C 45.046875 18.046875 46.117188 17.992188 47.1875 17.941406 C 47.730469 17.917969 48.273438 17.824219 48.824219 17.832031 C 49.265625 17.839844 49.886719 17.398438 49.980469 17.035156 C 50.167969 16.332031 50.15625 15.601562 50.1875 14.878906 C 50.214844 14.179688 50.183594 13.472656 50.222656 12.769531 C 50.3125 12.824219 50.414062 12.839844 50.515625 12.820312 C 51.464844 12.652344 52.429688 12.761719 53.382812 12.703125 C 53.960938 12.671875 54.542969 12.679688 55.125 12.660156 C 55.503906 12.648438 55.882812 12.59375 56.257812 12.613281 C 57.007812 12.648438 57.757812 12.621094 58.507812 12.59375 Z M 58.507812 12.59375 " fill-opacity="1" fill-rule="nonzero"/><g clip-path="url(#1910a84ad1)"><path fill="#ffffff" d="M 29.355469 13.34375 C 29.351562 13.75 29.378906 14.160156 29.265625 14.558594 C 29.242188 14.644531 29.222656 14.738281 29.222656 14.828125 C 29.21875 15.679688 29.027344 16.496094 28.871094 17.328125 C 28.753906 17.945312 28.675781 18.574219 28.542969 19.191406 C 28.3125 20.253906 28.144531 21.34375 27.816406 22.378906 C 27.585938 23.105469 27.503906 23.875 27.183594 24.574219 C 27.167969 24.609375 27.164062 24.652344 27.160156 24.695312 C 27.109375 25.128906 27.015625 25.542969 26.863281 25.964844 C 26.667969 26.503906 26.632812 27.097656 26.496094 27.664062 C 26.355469 28.246094 26.273438 28.839844 26.058594 29.40625 C 25.96875 29.644531 25.886719 29.890625 25.855469 30.140625 C 25.792969 30.632812 25.605469 31.089844 25.449219 31.550781 C 25.117188 32.539062 24.730469 33.507812 24.296875 34.457031 C 23.964844 35.171875 23.457031 35.699219 22.800781 36.132812 C 22.257812 36.496094 21.679688 36.726562 21.050781 36.761719 C 20.019531 36.816406 19.351562 36.175781 18.769531 35.433594 C 18.332031 34.878906 18.125 34.21875 18.03125 33.542969 C 17.960938 33 18.027344 32.433594 18.039062 31.875 C 18.054688 30.917969 18.046875 29.957031 17.941406 29.003906 C 17.882812 28.480469 17.898438 27.941406 17.703125 27.4375 C 17.25 26.292969 16.371094 25.640625 14.980469 25.855469 C 14.386719 25.949219 14.070312 26.355469 13.761719 26.785156 C 13.28125 27.449219 13.035156 28.191406 12.914062 29.007812 C 12.820312 29.667969 12.660156 30.328125 12.574219 30.992188 C 12.460938 31.890625 12.351562 32.785156 12.222656 33.679688 C 12.171875 34.042969 12.066406 34.414062 11.921875 34.730469 C 11.535156 35.566406 10.984375 36.292969 10.039062 36.570312 C 9.609375 36.695312 9.160156 36.671875 8.710938 36.640625 C 7.980469 36.585938 7.371094 36.277344 6.871094 35.777344 C 6.59375 35.492188 6.394531 35.136719 6.230469 34.753906 C 6.0625 34.355469 6 33.925781 5.816406 33.546875 C 5.539062 32.984375 5.324219 32.40625 5.179688 31.800781 C 5.070312 31.324219 4.800781 30.902344 4.679688 30.425781 C 4.507812 29.753906 4.316406 29.089844 4.121094 28.425781 C 3.84375 27.503906 3.707031 26.546875 3.414062 25.625 C 3.183594 24.890625 3.082031 24.117188 2.871094 23.375 C 2.597656 22.414062 2.429688 21.429688 2.289062 20.449219 C 2.128906 19.355469 1.988281 18.253906 1.898438 17.148438 C 1.851562 16.59375 1.714844 16.035156 1.664062 15.480469 C 1.566406 14.40625 1.316406 13.347656 1.316406 12.261719 C 1.554688 11.1875 1.78125 11.417969 1.855469 11.3125 C 1.953125 11.511719 1.425781 12.308594 1.40625 12.511719 C 1.367188 12.9375 1.546875 13.132812 1.933594 12.988281 C 2.277344 12.859375 2.605469 12.875 2.945312 12.894531 C 3.007812 12.894531 3.070312 12.890625 3.128906 12.875 C 3.894531 12.707031 4.679688 12.828125 5.449219 12.738281 C 5.644531 12.71875 5.875 12.695312 6.097656 12.714844 C 6.484375 12.753906 6.890625 12.746094 7.269531 12.710938 C 7.632812 12.675781 7.996094 12.675781 8.359375 12.652344 C 8.511719 12.644531 8.648438 12.695312 8.660156 12.886719 C 8.503906 12.964844 8.339844 12.933594 8.175781 12.9375 C 7.421875 12.949219 6.667969 12.945312 5.914062 12.96875 C 5.140625 12.992188 4.367188 13.042969 3.59375 13.078125 C 3.046875 13.105469 2.496094 13.128906 1.949219 13.152344 C 1.6875 13.164062 1.503906 13.292969 1.472656 13.542969 C 1.445312 13.777344 1.589844 13.949219 1.8125 14.03125 C 1.910156 14.066406 2.015625 14.089844 2.113281 14.089844 C 2.992188 14.085938 3.875 14.113281 4.75 14.0625 C 5.960938 13.988281 7.175781 14.019531 8.386719 13.945312 C 8.925781 13.914062 9.460938 13.917969 10 13.90625 C 10.058594 14.027344 10.054688 14.164062 10.074219 14.292969 C 10.199219 15.164062 10.210938 16.046875 10.414062 16.902344 C 10.550781 17.492188 10.839844 17.757812 11.375 17.832031 C 12.074219 17.929688 12.78125 17.921875 13.480469 17.96875 C 14.074219 18.011719 14.664062 17.925781 15.25 17.976562 C 16.316406 18.070312 17.375 17.996094 18.433594 17.945312 C 18.980469 17.921875 19.523438 17.824219 20.074219 17.835938 C 20.660156 17.84375 21.210938 17.335938 21.304688 16.753906 C 21.414062 16.089844 21.453125 15.417969 21.445312 14.746094 C 21.441406 14.355469 21.460938 13.96875 21.472656 13.578125 C 22.355469 13.570312 23.238281 13.542969 24.125 13.523438 C 25.136719 13.5 26.148438 13.421875 27.164062 13.441406 C 27.375 13.445312 27.59375 13.5 27.800781 13.449219 C 28.316406 13.324219 28.839844 13.433594 29.355469 13.34375 Z M 29.355469 13.34375 " fill-opacity="1" fill-rule="nonzero"/></g><path fill="#ffffff" d="M 30.351562 12.097656 C 30.511719 11.714844 30.351562 11.308594 30.445312 10.914062 C 30.523438 10.582031 30.519531 10.230469 30.558594 9.890625 C 30.628906 9.253906 30.640625 8.613281 30.714844 7.976562 C 30.800781 7.273438 30.90625 6.566406 31.164062 5.894531 C 31.300781 5.539062 31.421875 5.171875 31.566406 4.820312 C 31.628906 4.660156 31.746094 4.519531 31.8125 4.363281 C 32.160156 3.550781 32.789062 2.945312 33.359375 2.308594 C 33.714844 1.914062 34.171875 1.609375 34.664062 1.371094 C 35.09375 1.160156 35.460938 0.84375 35.929688 0.695312 C 36.117188 0.636719 36.304688 0.59375 36.496094 0.585938 C 36.96875 0.566406 37.414062 0.40625 37.871094 0.308594 C 38.507812 0.175781 39.101562 0.375 39.703125 0.496094 C 40.304688 0.613281 40.894531 0.808594 41.488281 0.953125 C 41.984375 1.078125 42.5 1.179688 43.007812 1.246094 C 43.671875 1.335938 44.339844 1.410156 45.011719 1.308594 C 45.621094 1.214844 46.246094 1.199219 46.839844 0.996094 C 47.167969 0.886719 47.515625 0.828125 47.855469 0.777344 C 48.445312 0.695312 48.988281 0.460938 49.570312 0.347656 C 51.167969 0.0351562 52.75 0.03125 54.257812 0.683594 C 55.015625 1.011719 55.722656 1.457031 56.25 2.148438 C 56.757812 2.816406 57.246094 3.488281 57.535156 4.285156 C 57.753906 4.886719 57.859375 5.523438 58.003906 6.144531 C 58.195312 6.988281 58.386719 7.832031 58.519531 8.6875 C 58.609375 9.285156 58.636719 9.898438 58.605469 10.511719 C 58.589844 10.816406 58.601562 11.121094 58.601562 11.425781 C 58.542969 11.597656 58.386719 11.5625 58.265625 11.570312 C 57.257812 11.632812 56.246094 11.589844 55.234375 11.660156 C 54.441406 11.714844 53.644531 11.699219 52.847656 11.710938 C 51.90625 11.726562 50.96875 11.738281 50.027344 11.753906 C 49.980469 11.535156 49.976562 11.308594 49.949219 11.085938 C 49.84375 10.109375 49.542969 9.679688 48.4375 9.613281 C 48.195312 9.597656 47.953125 9.613281 47.707031 9.597656 C 46.777344 9.542969 45.855469 9.675781 44.929688 9.691406 C 44.359375 9.699219 43.804688 9.84375 43.234375 9.859375 C 42.765625 9.871094 42.296875 9.929688 41.84375 10.011719 C 41.128906 10.140625 40.414062 10.226562 39.691406 10.277344 C 39.203125 10.3125 38.96875 10.515625 38.820312 10.953125 C 38.695312 11.328125 38.765625 11.703125 38.71875 12.074219 C 38.335938 12.136719 37.945312 12.089844 37.566406 12.125 C 36.671875 12.199219 35.777344 12.152344 34.886719 12.207031 C 34.21875 12.25 33.546875 12.238281 32.875 12.25 C 32.089844 12.265625 31.3125 12.359375 30.523438 12.300781 C 30.355469 12.289062 30.339844 12.222656 30.351562 12.097656 Z M 30.351562 12.097656 " fill-opacity="1" fill-rule="nonzero"/><g clip-path="url(#9790576f5e)"><path fill="#ffffff" d="M 1.460938 12.371094 C 1.621094 11.988281 1.460938 11.582031 1.554688 11.1875 C 1.632812 10.859375 1.628906 10.507812 1.667969 10.164062 C 1.742188 9.527344 1.75 8.886719 1.828125 8.253906 C 1.910156 7.546875 2.015625 6.839844 2.273438 6.171875 C 2.410156 5.8125 2.53125 5.449219 2.675781 5.09375 C 2.738281 4.933594 2.855469 4.796875 2.921875 4.636719 C 3.269531 3.824219 3.898438 3.222656 4.46875 2.582031 C 4.824219 2.1875 5.28125 1.882812 5.773438 1.644531 C 6.203125 1.4375 6.570312 1.117188 7.039062 0.96875 C 7.226562 0.910156 7.417969 0.867188 7.605469 0.859375 C 8.082031 0.839844 8.523438 0.683594 8.980469 0.585938 C 9.617188 0.449219 10.210938 0.648438 10.816406 0.769531 C 11.417969 0.890625 12.003906 1.082031 12.597656 1.230469 C 13.09375 1.351562 13.609375 1.453125 14.121094 1.519531 C 14.78125 1.609375 15.453125 1.683594 16.121094 1.582031 C 16.734375 1.488281 17.355469 1.472656 17.953125 1.269531 C 18.277344 1.160156 18.625 1.101562 18.96875 1.050781 C 19.554688 0.96875 20.097656 0.734375 20.679688 0.621094 C 22.277344 0.3125 23.859375 0.308594 25.371094 0.960938 C 26.125 1.285156 26.832031 1.730469 27.359375 2.421875 C 27.867188 3.09375 28.355469 3.765625 28.644531 4.558594 C 28.863281 5.164062 28.96875 5.796875 29.113281 6.421875 C 29.304688 7.261719 29.5 8.105469 29.628906 8.960938 C 29.722656 9.5625 29.746094 10.175781 29.714844 10.789062 C 29.699219 11.089844 29.710938 11.398438 29.710938 11.703125 C 29.652344 11.871094 29.574219 12.339844 29.457031 12.347656 C 28.445312 12.410156 27.378906 12.328125 26.367188 12.398438 C 25.574219 12.453125 24.832031 12.582031 24.035156 12.59375 C 23.09375 12.609375 22.390625 12.578125 21.453125 12.589844 C 21.402344 12.371094 21.085938 11.585938 21.0625 11.363281 C 20.953125 10.382812 20.65625 9.953125 19.550781 9.886719 C 19.308594 9.875 19.0625 9.890625 18.820312 9.875 C 17.890625 9.816406 16.96875 9.949219 16.039062 9.964844 C 15.46875 9.972656 14.914062 10.117188 14.34375 10.132812 C 13.878906 10.144531 13.40625 10.207031 12.953125 10.289062 C 12.238281 10.414062 11.523438 10.503906 10.800781 10.554688 C 10.3125 10.585938 10.433594 10.871094 10.285156 11.3125 C 10.160156 11.6875 10.039062 12.519531 9.988281 12.890625 C 9.605469 12.953125 9.273438 12.859375 8.894531 12.894531 C 8 12.96875 7.207031 13.140625 6.316406 13.195312 C 5.644531 13.234375 4.664062 12.875 3.992188 12.890625 C 3.210938 12.902344 2.242188 13.246094 1.457031 13.1875 C 1.289062 13.175781 1.449219 12.496094 1.460938 12.371094 Z M 1.460938 12.371094 " fill-opacity="1" fill-rule="nonzero"/></g><path fill="#ffffff" d="M 59.601562 11.511719 C 59.703125 10.941406 59.734375 10.359375 59.796875 9.785156 C 59.859375 9.199219 59.882812 8.609375 59.953125 8.019531 C 60.039062 7.273438 60.1875 6.542969 60.40625 5.820312 C 60.628906 5.089844 61.046875 4.460938 61.324219 3.765625 C 61.367188 3.664062 61.460938 3.613281 61.527344 3.539062 C 61.835938 3.175781 62.140625 2.804688 62.453125 2.445312 C 62.84375 1.992188 63.339844 1.675781 63.855469 1.386719 C 64.097656 1.253906 64.335938 1.113281 64.566406 0.96875 C 64.929688 0.738281 65.320312 0.589844 65.746094 0.578125 C 66.21875 0.566406 66.664062 0.398438 67.121094 0.308594 C 67.652344 0.207031 68.148438 0.335938 68.652344 0.4375 C 69.347656 0.578125 70.042969 0.710938 70.703125 0.976562 C 70.878906 1.050781 71.066406 0.984375 71.246094 1.035156 C 71.835938 1.207031 72.445312 1.300781 73.046875 1.347656 C 73.683594 1.394531 74.324219 1.308594 74.960938 1.226562 C 75.804688 1.117188 76.625 0.902344 77.441406 0.699219 C 78.195312 0.511719 78.941406 0.332031 79.710938 0.210938 C 80.558594 0.0820312 81.398438 0.148438 82.238281 0.292969 C 83.023438 0.425781 83.746094 0.75 84.402344 1.175781 C 84.863281 1.472656 85.273438 1.855469 85.613281 2.316406 C 86.003906 2.855469 86.382812 3.398438 86.65625 4 C 86.917969 4.578125 86.992188 5.214844 87.15625 5.824219 C 87.414062 6.769531 87.566406 7.738281 87.742188 8.695312 C 87.855469 9.296875 87.886719 9.929688 87.804688 10.550781 C 87.78125 10.734375 87.917969 10.914062 87.792969 11.089844 C 87.65625 10.851562 87.4375 10.726562 87.179688 10.765625 C 86.6875 10.84375 86.191406 10.722656 85.695312 10.851562 C 85.394531 10.933594 85.058594 10.777344 84.75 10.808594 C 83.792969 10.910156 82.832031 10.855469 81.875 10.917969 C 80.980469 10.976562 80.078125 10.976562 79.179688 11.003906 C 79.160156 10.96875 79.132812 10.9375 79.121094 10.898438 C 78.867188 10.097656 78.429688 9.78125 77.59375 9.796875 C 77.371094 9.800781 77.148438 9.800781 76.925781 9.785156 C 75.996094 9.734375 75.074219 9.855469 74.148438 9.875 C 73.578125 9.886719 73.027344 10.03125 72.453125 10.042969 C 71.988281 10.050781 71.515625 10.113281 71.0625 10.199219 C 70.347656 10.328125 69.632812 10.40625 68.914062 10.464844 C 68.433594 10.507812 68.1875 10.683594 68.054688 11.144531 C 68.035156 11.210938 67.992188 11.273438 67.960938 11.335938 C 67.847656 11.324219 67.734375 11.304688 67.625 11.308594 C 66.792969 11.339844 65.957031 11.382812 65.125 11.414062 C 64.960938 11.417969 64.796875 11.386719 64.636719 11.390625 C 64.007812 11.414062 63.378906 11.457031 62.746094 11.472656 C 62.054688 11.488281 61.363281 11.496094 60.671875 11.472656 C 60.3125 11.460938 59.960938 11.582031 59.601562 11.511719 Z M 59.601562 11.511719 " fill-opacity="1" fill-rule="nonzero"/><path fill="#615b5b" d="M 59.589844 11.515625 C 59.949219 11.585938 60.300781 11.464844 60.660156 11.476562 C 61.351562 11.5 62.042969 11.492188 62.734375 11.476562 C 63.367188 11.460938 63.996094 11.417969 64.625 11.394531 C 64.789062 11.386719 64.949219 11.421875 65.113281 11.414062 C 65.945312 11.382812 66.78125 11.34375 67.613281 11.3125 C 67.722656 11.308594 67.835938 11.328125 67.949219 11.339844 C 67.945312 11.65625 67.945312 11.976562 67.945312 12.292969 C 67.09375 12.402344 66.234375 12.394531 65.382812 12.386719 C 64.289062 12.375 63.203125 12.488281 62.109375 12.464844 C 61.269531 12.449219 60.425781 12.542969 59.585938 12.585938 C 59.222656 12.589844 58.859375 12.59375 58.496094 12.597656 C 57.746094 12.625 56.996094 12.652344 56.246094 12.617188 C 55.871094 12.597656 55.492188 12.652344 55.113281 12.664062 C 54.535156 12.683594 53.949219 12.675781 53.371094 12.707031 C 52.417969 12.761719 51.457031 12.65625 50.503906 12.824219 C 50.402344 12.84375 50.300781 12.828125 50.210938 12.773438 C 50.039062 12.453125 50.144531 12.082031 50.015625 11.757812 C 50.957031 11.742188 51.894531 11.730469 52.835938 11.714844 C 53.632812 11.703125 54.429688 11.71875 55.222656 11.664062 C 56.234375 11.59375 57.246094 11.636719 58.253906 11.574219 C 58.375 11.566406 58.53125 11.597656 58.589844 11.429688 C 58.921875 11.46875 59.238281 11.695312 59.589844 11.515625 Z M 59.589844 11.515625 " fill-opacity="1" fill-rule="nonzero"/><path fill="#615b5b" d="M 26.058594 12.40625 C 26.164062 12.40625 26.265625 12.402344 26.367188 12.398438 C 27.398438 12.441406 28.425781 12.410156 29.457031 12.347656 C 29.65625 12.347656 29.859375 12.332031 30.058594 12.34375 C 30.25 12.359375 30.339844 12.289062 30.339844 12.097656 C 30.328125 12.226562 30.34375 12.289062 30.515625 12.304688 C 31.300781 12.363281 32.078125 12.269531 32.863281 12.253906 C 33.535156 12.242188 34.207031 12.253906 34.875 12.210938 C 35.769531 12.15625 36.660156 12.203125 37.554688 12.125 C 37.933594 12.09375 38.324219 12.140625 38.707031 12.078125 C 38.640625 12.414062 38.707031 12.75 38.671875 13.085938 C 38.417969 13.140625 38.167969 13.152344 37.910156 13.152344 C 36.769531 13.164062 35.625 13.160156 34.488281 13.222656 C 33.785156 13.261719 33.078125 13.15625 32.378906 13.273438 C 31.730469 13.382812 31.078125 13.308594 30.425781 13.335938 C 30.066406 13.339844 29.703125 13.34375 29.34375 13.347656 C 28.832031 13.4375 28.304688 13.328125 27.789062 13.453125 C 27.582031 13.503906 27.363281 13.449219 27.152344 13.445312 C 26.136719 13.421875 25.125 13.503906 24.113281 13.527344 C 23.226562 13.546875 22.34375 13.574219 21.460938 13.582031 C 21.457031 13.253906 21.453125 12.921875 21.453125 12.589844 C 21.601562 12.574219 21.761719 12.519531 21.90625 12.542969 C 22.734375 12.679688 23.554688 12.410156 24.386719 12.496094 C 24.9375 12.550781 25.503906 12.441406 26.058594 12.40625 Z M 26.058594 12.40625 " fill-opacity="1" fill-rule="nonzero"/><path fill="#615b5b" d="M 79.179688 11.003906 C 80.078125 10.976562 80.980469 10.976562 81.875 10.917969 C 82.832031 10.855469 83.792969 10.910156 84.75 10.808594 C 85.058594 10.777344 85.394531 10.933594 85.695312 10.851562 C 86.191406 10.722656 86.6875 10.84375 87.179688 10.765625 C 87.4375 10.726562 87.65625 10.851562 87.792969 11.089844 C 87.875 11.246094 87.804688 11.402344 87.773438 11.554688 C 87.621094 11.699219 87.449219 11.804688 87.230469 11.796875 C 86.535156 11.773438 85.847656 11.859375 85.15625 11.878906 C 83.882812 11.910156 82.609375 11.875 81.339844 11.957031 C 80.660156 12 79.976562 12.0625 79.296875 11.980469 C 79.1875 11.664062 79.136719 11.339844 79.179688 11.003906 Z M 79.179688 11.003906 " fill-opacity="1" fill-rule="nonzero"/><path fill="#5ce1e6" d="M 79.167969 11.007812 C 79.125 11.339844 79.175781 11.667969 79.285156 11.984375 C 79.226562 12.304688 79.34375 12.605469 79.382812 12.917969 C 79.457031 13.457031 79.367188 14 79.402344 14.539062 C 79.445312 15.195312 79.34375 15.84375 79.332031 16.496094 C 79.308594 17.453125 78.746094 18.0625 77.738281 18.011719 C 77.28125 17.988281 76.832031 18.121094 76.378906 18.136719 C 75.320312 18.171875 74.261719 18.25 73.199219 18.175781 C 72.832031 18.148438 72.449219 18.070312 72.074219 18.183594 C 71.863281 18.25 71.648438 18.164062 71.433594 18.152344 C 70.742188 18.109375 70.046875 18.128906 69.355469 18.019531 C 68.894531 17.945312 68.539062 17.761719 68.417969 17.273438 C 68.328125 16.90625 68.226562 16.546875 68.199219 16.164062 C 68.148438 15.496094 68.035156 14.828125 67.980469 14.160156 C 67.9375 13.632812 67.949219 13.097656 67.941406 12.570312 C 67.9375 12.476562 67.941406 12.386719 67.945312 12.292969 C 67.945312 11.976562 67.945312 11.65625 67.949219 11.339844 C 67.980469 11.273438 68.023438 11.214844 68.042969 11.148438 C 68.175781 10.6875 68.421875 10.511719 68.902344 10.46875 C 69.621094 10.410156 70.335938 10.332031 71.050781 10.199219 C 71.503906 10.117188 71.976562 10.054688 72.441406 10.046875 C 73.015625 10.035156 73.566406 9.890625 74.140625 9.878906 C 75.0625 9.859375 75.984375 9.734375 76.914062 9.789062 C 77.136719 9.800781 77.359375 9.804688 77.582031 9.800781 C 78.417969 9.785156 78.855469 10.097656 79.109375 10.902344 C 79.121094 10.941406 79.148438 10.972656 79.167969 11.007812 Z M 71.539062 15.285156 C 71.527344 15.285156 71.515625 15.285156 71.5 15.285156 C 71.5 15.058594 71.511719 14.832031 71.496094 14.609375 C 71.492188 14.507812 71.5 14.457031 71.613281 14.449219 C 72.355469 14.402344 73.09375 14.320312 73.824219 14.191406 C 74.460938 14.078125 75.113281 14.285156 75.746094 14.105469 C 76.007812 14.03125 76.09375 14.15625 76.089844 14.40625 C 76.085938 14.9375 76.070312 15.46875 76.15625 15.996094 C 76.195312 16.246094 76.296875 16.425781 76.554688 16.476562 C 76.796875 16.523438 76.957031 16.398438 77.078125 16.195312 C 77.28125 15.859375 77.179688 15.492188 77.179688 15.144531 C 77.175781 14.441406 77.121094 13.742188 77.070312 13.039062 C 77.046875 12.691406 77 12.34375 76.941406 12.003906 C 76.90625 11.789062 76.746094 11.664062 76.527344 11.65625 C 76.316406 11.652344 76.148438 11.75 76.085938 11.964844 C 76.023438 12.167969 75.960938 12.363281 76 12.59375 C 76.085938 13.074219 76.046875 13.109375 75.550781 13.128906 C 75.519531 13.132812 75.488281 13.132812 75.460938 13.132812 C 74.238281 13.089844 73.027344 13.175781 71.828125 13.414062 C 71.457031 13.488281 71.390625 13.425781 71.414062 13.039062 C 71.421875 12.96875 71.445312 12.898438 71.453125 12.828125 C 71.480469 12.492188 71.289062 12.195312 71.035156 12.167969 C 70.746094 12.136719 70.589844 12.3125 70.519531 12.683594 C 70.410156 13.25 70.488281 13.820312 70.46875 14.386719 C 70.453125 14.960938 70.496094 15.523438 70.652344 16.074219 C 70.722656 16.328125 70.898438 16.449219 71.160156 16.40625 C 71.410156 16.367188 71.535156 16.207031 71.539062 15.960938 C 71.542969 15.734375 71.539062 15.507812 71.539062 15.285156 Z M 71.539062 15.285156 " fill-opacity="1" fill-rule="nonzero"/><path fill="#5ce1e6" d="M 38.671875 13.085938 C 38.707031 12.75 38.640625 12.414062 38.707031 12.078125 C 38.753906 11.707031 38.683594 11.332031 38.808594 10.957031 C 38.957031 10.519531 39.191406 10.316406 39.679688 10.28125 C 40.402344 10.230469 41.117188 10.144531 41.832031 10.015625 C 42.285156 9.933594 42.753906 9.875 43.222656 9.863281 C 43.792969 9.847656 44.347656 9.703125 44.917969 9.695312 C 45.84375 9.679688 46.769531 9.546875 47.695312 9.601562 C 47.941406 9.617188 48.183594 9.601562 48.429688 9.617188 C 49.53125 9.683594 49.832031 10.109375 49.9375 11.089844 C 49.964844 11.3125 49.96875 11.535156 50.015625 11.757812 C 50.144531 12.082031 50.039062 12.453125 50.210938 12.773438 C 50.171875 13.476562 50.203125 14.179688 50.175781 14.882812 C 50.144531 15.601562 50.15625 16.335938 49.96875 17.039062 C 49.875 17.402344 49.253906 17.84375 48.8125 17.835938 C 48.261719 17.828125 47.71875 17.921875 47.175781 17.945312 C 46.105469 17.996094 45.035156 18.050781 43.960938 17.984375 C 43.164062 17.9375 42.355469 17.980469 41.554688 17.949219 C 41.03125 17.929688 40.511719 17.894531 39.996094 17.816406 C 39.445312 17.730469 39.21875 17.332031 39.113281 16.839844 C 38.9375 15.988281 38.933594 15.113281 38.785156 14.261719 C 38.71875 13.867188 38.8125 13.46875 38.671875 13.085938 Z M 41.265625 14.296875 C 41.203125 14.8125 41.28125 15.328125 41.402344 15.835938 C 41.445312 16.023438 41.546875 16.179688 41.753906 16.222656 C 41.925781 16.261719 42.085938 16.214844 42.199219 16.082031 C 42.335938 15.925781 42.34375 15.730469 42.328125 15.53125 C 42.296875 15.171875 42.292969 14.816406 42.265625 14.457031 C 42.257812 14.351562 42.265625 14.285156 42.394531 14.265625 C 43.070312 14.164062 43.753906 14.191406 44.425781 14.015625 C 45.089844 13.839844 45.785156 14.058594 46.464844 13.941406 C 46.832031 13.878906 46.878906 13.945312 46.875 14.3125 C 46.875 14.78125 46.878906 15.25 46.921875 15.71875 C 46.957031 16.101562 47.109375 16.296875 47.417969 16.292969 C 47.683594 16.292969 47.957031 16.03125 47.953125 15.726562 C 47.949219 15.492188 47.992188 15.253906 47.964844 15.027344 C 47.878906 14.292969 47.921875 13.558594 47.855469 12.824219 C 47.824219 12.507812 47.796875 12.191406 47.738281 11.882812 C 47.699219 11.664062 47.578125 11.484375 47.308594 11.476562 C 47.054688 11.46875 46.917969 11.601562 46.835938 11.832031 C 46.757812 12.050781 46.785156 12.277344 46.792969 12.5 C 46.8125 12.9375 46.8125 12.960938 46.363281 12.949219 C 45.019531 12.914062 43.683594 12.980469 42.371094 13.300781 C 42.246094 13.332031 42.246094 13.253906 42.230469 13.167969 C 42.199219 12.980469 42.226562 12.800781 42.230469 12.617188 C 42.246094 12.261719 42.050781 11.996094 41.785156 11.980469 C 41.5 11.964844 41.316406 12.167969 41.273438 12.546875 C 41.207031 13.128906 41.238281 13.707031 41.265625 14.296875 Z M 41.265625 14.296875 " fill-opacity="1" fill-rule="nonzero"/><path fill="#5ce1e6" d="M 21.453125 12.589844 C 21.453125 12.921875 21.457031 13.253906 21.460938 13.582031 C 21.449219 13.96875 21.433594 14.359375 21.433594 14.746094 C 21.441406 15.421875 21.402344 16.09375 21.296875 16.757812 C 21.199219 17.339844 20.648438 17.847656 20.0625 17.839844 C 19.511719 17.828125 18.96875 17.925781 18.421875 17.949219 C 17.363281 17.996094 16.304688 18.074219 15.238281 17.980469 C 14.652344 17.925781 14.0625 18.011719 13.472656 17.972656 C 12.769531 17.925781 12.0625 17.933594 11.363281 17.835938 C 10.828125 17.761719 10.539062 17.496094 10.402344 16.90625 C 10.199219 16.046875 10.1875 15.164062 10.0625 14.296875 C 10.042969 14.164062 10.046875 14.03125 9.988281 13.910156 C 9.988281 13.570312 9.988281 13.230469 9.988281 12.890625 C 9.988281 12.378906 9.96875 11.871094 10 11.363281 C 10.039062 10.628906 10.332031 10.332031 10.933594 10.285156 C 11.65625 10.230469 12.378906 10.191406 13.085938 10.003906 C 13.164062 9.984375 13.246094 9.96875 13.328125 9.976562 C 13.707031 10.007812 14.070312 9.894531 14.4375 9.835938 C 14.476562 9.835938 14.511719 9.835938 14.550781 9.832031 C 14.976562 9.9375 15.371094 9.683594 15.789062 9.707031 C 15.914062 9.746094 16.035156 9.722656 16.15625 9.6875 C 16.417969 9.613281 16.695312 9.738281 16.953125 9.625 C 17.035156 9.625 17.117188 9.625 17.199219 9.628906 C 18.011719 9.632812 18.820312 9.546875 19.636719 9.609375 C 20.273438 9.660156 20.828125 9.789062 21.09375 10.453125 C 21.085938 10.46875 21.089844 10.476562 21.105469 10.484375 C 21.21875 11.070312 21.265625 11.664062 21.328125 12.257812 C 21.339844 12.382812 21.367188 12.496094 21.453125 12.589844 Z M 13.578125 15.136719 C 13.570312 15.136719 13.5625 15.136719 13.554688 15.136719 C 13.554688 14.941406 13.570312 14.746094 13.550781 14.550781 C 13.53125 14.355469 13.609375 14.289062 13.796875 14.25 C 14.417969 14.128906 15.050781 14.210938 15.675781 14.019531 C 16.308594 13.824219 16.988281 14.046875 17.652344 13.949219 C 18.144531 13.875 18.152344 13.917969 18.132812 14.4375 C 18.117188 14.917969 18.128906 15.398438 18.210938 15.875 C 18.246094 16.074219 18.335938 16.226562 18.539062 16.277344 C 18.757812 16.332031 18.945312 16.269531 19.082031 16.082031 C 19.1875 15.941406 19.238281 15.78125 19.230469 15.59375 C 19.207031 14.976562 19.214844 14.351562 19.164062 13.734375 C 19.117188 13.121094 19.117188 12.503906 19.003906 11.898438 C 18.957031 11.640625 18.828125 11.484375 18.5625 11.476562 C 18.3125 11.46875 18.179688 11.605469 18.101562 11.84375 C 18.023438 12.089844 18.019531 12.328125 18.066406 12.570312 C 18.117188 12.839844 18.007812 12.953125 17.742188 12.949219 C 17.722656 12.945312 17.703125 12.953125 17.679688 12.949219 C 16.316406 12.910156 14.964844 12.972656 13.632812 13.300781 C 13.535156 13.328125 13.507812 13.277344 13.492188 13.191406 C 13.472656 13.042969 13.433594 12.890625 13.476562 12.738281 C 13.527344 12.558594 13.476562 12.386719 13.40625 12.230469 C 13.332031 12.054688 13.1875 11.960938 12.988281 11.980469 C 12.796875 12 12.640625 12.101562 12.597656 12.28125 C 12.503906 12.707031 12.449219 13.148438 12.492188 13.582031 C 12.523438 13.902344 12.527344 14.21875 12.515625 14.535156 C 12.496094 15.015625 12.5625 15.484375 12.714844 15.941406 C 12.785156 16.160156 12.960938 16.269531 13.199219 16.226562 C 13.421875 16.183594 13.570312 16.054688 13.578125 15.8125 C 13.585938 15.585938 13.578125 15.363281 13.578125 15.136719 Z M 13.578125 15.136719 " fill-opacity="1" fill-rule="nonzero"/><g clip-path="url(#e061c295f1)"><path fill="#615b5b" d="M 9.988281 12.890625 C 9.988281 13.230469 9.988281 13.570312 9.988281 13.910156 C 9.453125 13.921875 8.914062 13.917969 8.375 13.949219 C 7.164062 14.019531 5.949219 13.992188 4.738281 14.0625 C 3.863281 14.117188 2.980469 14.089844 2.101562 14.089844 C 2.003906 14.089844 1.898438 14.070312 1.800781 14.035156 C 1.578125 13.953125 1.433594 13.78125 1.460938 13.546875 C 1.492188 13.296875 1.675781 13.167969 1.9375 13.15625 C 2.484375 13.132812 3.035156 13.109375 3.582031 13.082031 C 4.355469 13.042969 5.128906 12.996094 5.902344 12.972656 C 6.65625 12.949219 7.410156 12.949219 8.164062 12.9375 C 8.328125 12.9375 8.492188 12.96875 8.648438 12.890625 C 8.730469 12.890625 8.8125 12.890625 8.894531 12.894531 C 9.257812 12.890625 9.625 12.890625 9.988281 12.890625 Z M 9.988281 12.890625 " fill-opacity="1" fill-rule="nonzero"/></g></svg>