<svg xmlns="http://www.w3.org/2000/svg" xmlns:xlink="http://www.w3.org/1999/xlink" width="500" zoomAndPan="magnify" viewBox="0 0 375 374.999991" height="500" preserveAspectRatio="xMidYMid meet" version="1.0"><defs><clipPath id="045deb8888"><path d="M 27.089844 154 L 131 154 L 131 203 L 27.089844 203 Z M 27.089844 154 " clip-rule="nonzero"/></clipPath><clipPath id="8a184b2377"><path d="M 27.089844 165 L 130 165 L 130 259 L 27.089844 259 Z M 27.089844 165 " clip-rule="nonzero"/></clipPath><clipPath id="c89a8df174"><path d="M 132 124.375 L 236 124.375 L 236 170 L 132 170 Z M 132 124.375 " clip-rule="nonzero"/></clipPath><clipPath id="05eceb328f"><path d="M 27.089844 125 L 131 125 L 131 173 L 27.089844 173 Z M 27.089844 125 " clip-rule="nonzero"/></clipPath><clipPath id="da2f2acfd3"><path d="M 239 124.375 L 343 124.375 L 343 167 L 239 167 Z M 239 124.375 " clip-rule="nonzero"/></clipPath><clipPath id="712bdd3f68"><path d="M 27.089844 171 L 59 171 L 59 176 L 27.089844 176 Z M 27.089844 171 " clip-rule="nonzero"/></clipPath></defs><g clip-path="url(#045deb8888)"><path fill="#ffffff" d="M 58.730469 160.449219 L 27.6875 173.792969 C 27.6875 173.792969 27.15625 177.277344 33.832031 184.519531 C 40.511719 191.761719 78.234375 202.625 78.234375 202.625 L 129.265625 173.066406 C 129.265625 173.066406 136.003906 165.042969 122.648438 159.34375 C 109.292969 153.648438 67.816406 154.316406 67.816406 154.316406 Z M 58.730469 160.449219 " fill-opacity="1" fill-rule="nonzero"/></g><path fill="#ffffff" d="M 163.367188 160.449219 L 136.671875 163.625 C 136.671875 163.625 129.308594 173.054688 138.46875 184.519531 C 144.621094 192.21875 182.871094 202.625 182.871094 202.625 L 233.90625 173.066406 C 233.90625 173.066406 240.640625 165.042969 227.285156 159.34375 C 213.929688 153.648438 172.457031 154.316406 172.457031 154.316406 Z M 163.367188 160.449219 " fill-opacity="1" fill-rule="nonzero"/><path fill="#ffffff" d="M 270.753906 160.449219 L 239.871094 163.625 C 239.871094 163.625 239.179688 177.277344 245.859375 184.519531 C 252.535156 191.761719 290.257812 202.625 290.257812 202.625 L 341.292969 173.066406 C 341.292969 173.066406 348.027344 165.042969 334.671875 159.34375 C 321.316406 153.648438 279.84375 154.316406 279.84375 154.316406 Z M 270.753906 160.449219 " fill-opacity="1" fill-rule="nonzero"/><path fill="#050606" d="M 108.320312 174.976562 C 108.320312 175.890625 108.277344 176.800781 108.191406 177.710938 C 108.105469 178.617188 107.976562 179.519531 107.804688 180.414062 C 107.636719 181.308594 107.421875 182.195312 107.167969 183.066406 C 106.914062 183.941406 106.617188 184.800781 106.285156 185.640625 C 105.949219 186.484375 105.574219 187.308594 105.160156 188.113281 C 104.75 188.917969 104.296875 189.703125 103.8125 190.460938 C 103.324219 191.21875 102.804688 191.953125 102.246094 192.65625 C 101.691406 193.363281 101.105469 194.039062 100.484375 194.683594 C 99.863281 195.328125 99.214844 195.941406 98.539062 196.519531 C 97.859375 197.097656 97.15625 197.640625 96.429688 198.148438 C 95.699219 198.65625 94.949219 199.125 94.175781 199.554688 C 93.40625 199.984375 92.613281 200.375 91.804688 200.726562 C 90.996094 201.074219 90.171875 201.382812 89.332031 201.644531 C 88.492188 201.910156 87.644531 202.132812 86.785156 202.3125 C 85.925781 202.488281 85.058594 202.621094 84.1875 202.710938 C 83.316406 202.800781 82.441406 202.847656 81.566406 202.847656 C 80.6875 202.847656 79.816406 202.800781 78.941406 202.710938 C 78.070312 202.621094 77.203125 202.488281 76.34375 202.3125 C 75.484375 202.132812 74.636719 201.910156 73.796875 201.644531 C 72.960938 201.382812 72.136719 201.074219 71.328125 200.726562 C 70.515625 200.375 69.726562 199.984375 68.953125 199.554688 C 68.179688 199.125 67.429688 198.65625 66.699219 198.148438 C 65.972656 197.640625 65.269531 197.097656 64.59375 196.519531 C 63.914062 195.941406 63.265625 195.328125 62.648438 194.683594 C 62.027344 194.039062 61.4375 193.363281 60.882812 192.65625 C 60.328125 191.953125 59.804688 191.21875 59.320312 190.460938 C 58.832031 189.703125 58.382812 188.917969 57.96875 188.113281 C 57.554688 187.308594 57.183594 186.484375 56.847656 185.640625 C 56.511719 184.800781 56.214844 183.941406 55.960938 183.066406 C 55.707031 182.195312 55.496094 181.308594 55.324219 180.414062 C 55.152344 179.519531 55.023438 178.617188 54.9375 177.710938 C 54.851562 176.800781 54.808594 175.890625 54.808594 174.976562 C 54.808594 174.066406 54.851562 173.15625 54.9375 172.246094 C 55.023438 171.335938 55.152344 170.4375 55.324219 169.539062 C 55.496094 168.644531 55.707031 167.761719 55.960938 166.886719 C 56.214844 166.015625 56.511719 165.15625 56.847656 164.3125 C 57.183594 163.46875 57.554688 162.644531 57.96875 161.839844 C 58.382812 161.035156 58.832031 160.253906 59.320312 159.496094 C 59.804688 158.734375 60.328125 158.003906 60.882812 157.296875 C 61.4375 156.59375 62.027344 155.917969 62.648438 155.273438 C 63.265625 154.625 63.914062 154.015625 64.59375 153.433594 C 65.269531 152.855469 65.972656 152.3125 66.699219 151.804688 C 67.429688 151.296875 68.179688 150.832031 68.953125 150.398438 C 69.726562 149.96875 70.515625 149.578125 71.328125 149.230469 C 72.136719 148.882812 72.960938 148.574219 73.796875 148.308594 C 74.636719 148.042969 75.484375 147.824219 76.34375 147.644531 C 77.203125 147.464844 78.070312 147.332031 78.941406 147.242188 C 79.816406 147.152344 80.6875 147.109375 81.566406 147.109375 C 82.441406 147.109375 83.316406 147.152344 84.1875 147.242188 C 85.058594 147.332031 85.925781 147.464844 86.785156 147.644531 C 87.644531 147.824219 88.492188 148.042969 89.332031 148.308594 C 90.171875 148.574219 90.996094 148.882812 91.804688 149.230469 C 92.613281 149.578125 93.40625 149.96875 94.175781 150.398438 C 94.949219 150.832031 95.699219 151.296875 96.429688 151.804688 C 97.15625 152.3125 97.859375 152.855469 98.539062 153.433594 C 99.214844 154.015625 99.863281 154.625 100.484375 155.273438 C 101.105469 155.917969 101.691406 156.59375 102.246094 157.296875 C 102.804688 158.003906 103.324219 158.734375 103.8125 159.496094 C 104.296875 160.253906 104.75 161.035156 105.160156 161.839844 C 105.574219 162.644531 105.949219 163.46875 106.285156 164.3125 C 106.617188 165.15625 106.914062 166.015625 107.167969 166.886719 C 107.421875 167.761719 107.636719 168.644531 107.804688 169.539062 C 107.976562 170.4375 108.105469 171.335938 108.191406 172.246094 C 108.277344 173.15625 108.320312 174.066406 108.320312 174.976562 Z M 108.320312 174.976562 " fill-opacity="1" fill-rule="nonzero"/><path fill="#050606" d="M 208.929688 174.976562 C 208.929688 175.890625 208.886719 176.800781 208.800781 177.710938 C 208.714844 178.617188 208.589844 179.519531 208.417969 180.414062 C 208.246094 181.308594 208.035156 182.195312 207.78125 183.066406 C 207.523438 183.941406 207.230469 184.800781 206.894531 185.640625 C 206.558594 186.484375 206.183594 187.308594 205.773438 188.113281 C 205.359375 188.917969 204.910156 189.703125 204.421875 190.460938 C 203.9375 191.21875 203.414062 191.953125 202.859375 192.65625 C 202.300781 193.363281 201.714844 194.039062 201.09375 194.683594 C 200.476562 195.328125 199.828125 195.941406 199.148438 196.519531 C 198.472656 197.097656 197.769531 197.640625 197.039062 198.148438 C 196.3125 198.65625 195.5625 199.125 194.789062 199.554688 C 194.015625 199.984375 193.226562 200.375 192.414062 200.726562 C 191.605469 201.074219 190.78125 201.382812 189.941406 201.644531 C 189.105469 201.910156 188.253906 202.132812 187.394531 202.3125 C 186.535156 202.488281 185.671875 202.621094 184.800781 202.710938 C 183.925781 202.800781 183.050781 202.847656 182.175781 202.847656 C 181.300781 202.847656 180.425781 202.800781 179.554688 202.710938 C 178.683594 202.621094 177.816406 202.488281 176.957031 202.3125 C 176.097656 202.132812 175.25 201.910156 174.410156 201.644531 C 173.570312 201.382812 172.746094 201.074219 171.9375 200.726562 C 171.128906 200.375 170.335938 199.984375 169.5625 199.554688 C 168.792969 199.125 168.039062 198.65625 167.3125 198.148438 C 166.582031 197.640625 165.878906 197.097656 165.203125 196.519531 C 164.527344 195.941406 163.878906 195.328125 163.257812 194.683594 C 162.636719 194.039062 162.050781 193.363281 161.496094 192.65625 C 160.9375 191.953125 160.417969 191.21875 159.929688 190.460938 C 159.445312 189.703125 158.992188 188.917969 158.582031 188.113281 C 158.167969 187.308594 157.792969 186.484375 157.457031 185.640625 C 157.121094 184.800781 156.828125 183.941406 156.574219 183.066406 C 156.320312 182.195312 156.105469 181.308594 155.933594 180.414062 C 155.765625 179.519531 155.636719 178.617188 155.550781 177.710938 C 155.464844 176.800781 155.421875 175.890625 155.421875 174.976562 C 155.421875 174.066406 155.464844 173.15625 155.550781 172.246094 C 155.636719 171.335938 155.765625 170.4375 155.933594 169.539062 C 156.105469 168.644531 156.320312 167.761719 156.574219 166.886719 C 156.828125 166.015625 157.121094 165.15625 157.457031 164.3125 C 157.792969 163.46875 158.167969 162.644531 158.582031 161.839844 C 158.992188 161.035156 159.445312 160.253906 159.929688 159.496094 C 160.417969 158.734375 160.9375 158.003906 161.496094 157.296875 C 162.050781 156.59375 162.636719 155.917969 163.257812 155.273438 C 163.878906 154.625 164.527344 154.015625 165.203125 153.433594 C 165.878906 152.855469 166.582031 152.3125 167.3125 151.804688 C 168.039062 151.296875 168.792969 150.832031 169.5625 150.398438 C 170.335938 149.96875 171.128906 149.578125 171.9375 149.230469 C 172.746094 148.882812 173.570312 148.574219 174.410156 148.308594 C 175.25 148.042969 176.097656 147.824219 176.957031 147.644531 C 177.816406 147.464844 178.683594 147.332031 179.554688 147.242188 C 180.425781 147.152344 181.300781 147.109375 182.175781 147.109375 C 183.050781 147.109375 183.925781 147.152344 184.800781 147.242188 C 185.671875 147.332031 186.535156 147.464844 187.394531 147.644531 C 188.253906 147.824219 189.105469 148.042969 189.941406 148.308594 C 190.78125 148.574219 191.605469 148.882812 192.414062 149.230469 C 193.226562 149.578125 194.015625 149.96875 194.789062 150.398438 C 195.5625 150.832031 196.3125 151.296875 197.039062 151.804688 C 197.769531 152.3125 198.472656 152.855469 199.148438 153.433594 C 199.828125 154.015625 200.476562 154.625 201.09375 155.273438 C 201.714844 155.917969 202.300781 156.59375 202.859375 157.296875 C 203.414062 158.003906 203.9375 158.734375 204.421875 159.496094 C 204.910156 160.253906 205.359375 161.035156 205.773438 161.839844 C 206.183594 162.644531 206.558594 163.46875 206.894531 164.3125 C 207.230469 165.15625 207.523438 166.015625 207.78125 166.886719 C 208.035156 167.761719 208.246094 168.644531 208.417969 169.539062 C 208.589844 170.4375 208.714844 171.335938 208.800781 172.246094 C 208.886719 173.15625 208.929688 174.066406 208.929688 174.976562 Z M 208.929688 174.976562 " fill-opacity="1" fill-rule="nonzero"/><path fill="#050606" d="M 318.101562 174.976562 C 318.101562 175.890625 318.058594 176.800781 317.972656 177.710938 C 317.886719 178.617188 317.757812 179.519531 317.589844 180.414062 C 317.417969 181.308594 317.203125 182.195312 316.949219 183.066406 C 316.695312 183.941406 316.402344 184.800781 316.066406 185.640625 C 315.730469 186.484375 315.355469 187.308594 314.941406 188.113281 C 314.53125 188.917969 314.078125 189.703125 313.59375 190.460938 C 313.105469 191.21875 312.585938 191.953125 312.027344 192.65625 C 311.472656 193.363281 310.886719 194.039062 310.265625 194.683594 C 309.644531 195.328125 308.996094 195.941406 308.320312 196.519531 C 307.644531 197.097656 306.941406 197.640625 306.210938 198.148438 C 305.484375 198.65625 304.730469 199.125 303.960938 199.554688 C 303.1875 199.984375 302.394531 200.375 301.585938 200.726562 C 300.777344 201.074219 299.953125 201.382812 299.113281 201.644531 C 298.273438 201.910156 297.425781 202.132812 296.566406 202.3125 C 295.707031 202.488281 294.839844 202.621094 293.96875 202.710938 C 293.097656 202.800781 292.222656 202.847656 291.347656 202.847656 C 290.472656 202.847656 289.597656 202.800781 288.726562 202.710938 C 287.851562 202.621094 286.988281 202.488281 286.128906 202.3125 C 285.269531 202.132812 284.417969 201.910156 283.582031 201.644531 C 282.742188 201.382812 281.917969 201.074219 281.109375 200.726562 C 280.296875 200.375 279.507812 199.984375 278.734375 199.554688 C 277.960938 199.125 277.210938 198.65625 276.484375 198.148438 C 275.753906 197.640625 275.050781 197.097656 274.375 196.519531 C 273.695312 195.941406 273.046875 195.328125 272.429688 194.683594 C 271.808594 194.039062 271.222656 193.363281 270.664062 192.65625 C 270.109375 191.953125 269.585938 191.21875 269.101562 190.460938 C 268.613281 189.703125 268.164062 188.917969 267.75 188.113281 C 267.339844 187.308594 266.964844 186.484375 266.628906 185.640625 C 266.292969 184.800781 266 183.941406 265.742188 183.066406 C 265.488281 182.195312 265.277344 181.308594 265.105469 180.414062 C 264.933594 179.519531 264.808594 178.617188 264.722656 177.710938 C 264.636719 176.800781 264.59375 175.890625 264.59375 174.976562 C 264.59375 174.066406 264.636719 173.15625 264.722656 172.246094 C 264.808594 171.335938 264.933594 170.4375 265.105469 169.539062 C 265.277344 168.644531 265.488281 167.761719 265.742188 166.886719 C 266 166.015625 266.292969 165.15625 266.628906 164.3125 C 266.964844 163.46875 267.339844 162.644531 267.75 161.839844 C 268.164062 161.035156 268.613281 160.253906 269.101562 159.496094 C 269.585938 158.734375 270.109375 158.003906 270.664062 157.296875 C 271.222656 156.59375 271.808594 155.917969 272.429688 155.273438 C 273.046875 154.625 273.695312 154.015625 274.375 153.433594 C 275.050781 152.855469 275.753906 152.3125 276.484375 151.804688 C 277.210938 151.296875 277.960938 150.832031 278.734375 150.398438 C 279.507812 149.96875 280.296875 149.578125 281.109375 149.230469 C 281.917969 148.882812 282.742188 148.574219 283.582031 148.308594 C 284.417969 148.042969 285.269531 147.824219 286.128906 147.644531 C 286.988281 147.464844 287.851562 147.332031 288.726562 147.242188 C 289.597656 147.152344 290.472656 147.109375 291.347656 147.109375 C 292.222656 147.109375 293.097656 147.152344 293.96875 147.242188 C 294.839844 147.332031 295.707031 147.464844 296.566406 147.644531 C 297.425781 147.824219 298.273438 148.042969 299.113281 148.308594 C 299.953125 148.574219 300.777344 148.882812 301.585938 149.230469 C 302.394531 149.578125 303.1875 149.96875 303.960938 150.398438 C 304.730469 150.832031 305.484375 151.296875 306.210938 151.804688 C 306.941406 152.3125 307.644531 152.855469 308.320312 153.433594 C 308.996094 154.015625 309.644531 154.625 310.265625 155.273438 C 310.886719 155.917969 311.472656 156.59375 312.027344 157.296875 C 312.585938 158.003906 313.105469 158.734375 313.59375 159.496094 C 314.078125 160.253906 314.53125 161.035156 314.941406 161.839844 C 315.355469 162.644531 315.730469 163.46875 316.066406 164.3125 C 316.402344 165.15625 316.695312 166.015625 316.949219 166.886719 C 317.203125 167.761719 317.417969 168.644531 317.589844 169.539062 C 317.757812 170.4375 317.886719 171.335938 317.972656 172.246094 C 318.058594 173.15625 318.101562 174.066406 318.101562 174.976562 Z M 318.101562 174.976562 " fill-opacity="1" fill-rule="nonzero"/><path fill="#ffffff" d="M 342.140625 166.53125 C 342.175781 169.183594 341.8125 171.8125 341.589844 174.445312 C 341.3125 177.667969 340.917969 180.882812 340.546875 184.097656 C 340.449219 184.945312 340.269531 185.78125 340.113281 186.621094 C 339.449219 190.117188 338.796875 193.613281 338.105469 197.101562 C 337.867188 198.300781 337.558594 199.488281 337.226562 200.660156 C 336.507812 203.195312 336.203125 205.832031 335.210938 208.308594 C 334.8125 209.308594 334.683594 210.457031 334.421875 211.539062 C 333.945312 213.476562 333.636719 215.492188 333.09375 217.378906 C 332.605469 219.074219 332.207031 220.800781 331.714844 222.496094 C 331.257812 224.070312 331.101562 225.699219 330.710938 227.289062 C 330.175781 229.496094 329.441406 231.652344 329 233.871094 C 328.46875 236.542969 327.285156 239.003906 326.679688 241.644531 C 326.566406 242.140625 326.257812 242.59375 326.058594 243.074219 C 324.855469 245.980469 323.878906 248.984375 322.273438 251.714844 C 321.183594 253.570312 319.539062 254.839844 317.851562 256.121094 C 316.617188 257.058594 315.246094 257.484375 313.863281 257.976562 C 310.589844 259.144531 307.777344 258.324219 305.210938 256.066406 C 302.289062 253.492188 300.78125 250.199219 300.273438 246.453125 C 300.046875 244.769531 300.257812 243.023438 300.339844 241.308594 C 300.527344 237.351562 300.296875 233.414062 299.9375 229.476562 C 299.78125 227.789062 299.617188 226.113281 299.140625 224.460938 C 297.984375 220.453125 293.429688 217.84375 289.328125 218.648438 C 286.503906 219.203125 285.253906 221.304688 283.929688 223.375 C 282.570312 225.5 282.054688 227.917969 281.632812 230.402344 C 281.269531 232.558594 280.761719 234.695312 280.539062 236.875 C 280.308594 239.15625 279.835938 241.40625 279.652344 243.699219 C 279.496094 245.65625 279.089844 247.574219 278.527344 249.484375 C 277.972656 251.386719 277.082031 253.144531 275.925781 254.589844 C 274.460938 256.421875 272.410156 257.628906 269.902344 258 C 268.113281 258.269531 266.410156 258.003906 264.707031 257.78125 C 263.371094 257.609375 262.125 256.859375 261.023438 256.042969 C 259.230469 254.71875 258.082031 252.964844 257.261719 250.828125 C 256.351562 248.453125 255.410156 246.066406 254.535156 243.679688 C 253.386719 240.5625 252.085938 237.449219 251.300781 234.238281 C 250.527344 231.070312 249.4375 227.988281 248.847656 224.765625 C 248.457031 222.652344 247.886719 220.546875 247.246094 218.464844 C 246.71875 216.742188 246.257812 214.976562 245.957031 213.175781 C 245.699219 211.605469 245.253906 210.0625 244.855469 208.515625 C 244.5 207.128906 244.214844 205.722656 243.917969 204.324219 C 243.589844 202.773438 243.441406 201.195312 243.132812 199.644531 C 242.632812 197.101562 242.425781 194.503906 242.097656 191.929688 C 241.601562 188.066406 241.085938 184.207031 240.609375 180.34375 C 240.34375 178.171875 240.019531 176.007812 239.78125 173.832031 C 239.652344 172.648438 239.460938 171.472656 239.492188 170.277344 C 242.550781 170.117188 245.617188 169.773438 248.671875 169.839844 C 252.660156 169.925781 256.621094 169.511719 260.605469 169.550781 C 263.703125 169.585938 266.835938 169.609375 269.933594 169.214844 C 269.929688 169.546875 269.914062 169.882812 269.921875 170.214844 C 269.960938 172.148438 269.917969 174.089844 270.070312 176.015625 C 270.261719 178.460938 270.679688 180.890625 270.863281 183.335938 C 270.96875 184.730469 271.332031 186.039062 271.664062 187.375 C 272.109375 189.160156 273.398438 189.835938 275.082031 190.101562 C 277.59375 190.5 280.128906 190.421875 282.652344 190.582031 C 283.429688 190.632812 284.214844 190.9375 284.980469 190.703125 C 286.347656 190.289062 287.746094 190.574219 289.078125 190.667969 C 292.953125 190.949219 296.804688 190.652344 300.660156 190.523438 C 302.3125 190.46875 303.957031 189.988281 305.621094 190.074219 C 309.292969 190.257812 311.339844 188.03125 311.417969 184.542969 C 311.46875 182.164062 311.84375 179.796875 311.683594 177.410156 C 311.550781 175.4375 311.878906 173.457031 311.613281 171.492188 C 311.464844 170.355469 311.035156 169.253906 311.25 168.082031 C 313.734375 168.375 316.226562 168.15625 318.695312 167.996094 C 323.328125 167.695312 327.964844 167.824219 332.59375 167.707031 C 335.117188 167.644531 337.628906 167.332031 340.152344 167.417969 C 340.945312 167.445312 341.582031 167.058594 342.140625 166.53125 Z M 342.140625 166.53125 " fill-opacity="1" fill-rule="nonzero"/><path fill="#ffffff" d="M 235.519531 170.320312 C 235.207031 174.027344 234.832031 177.730469 234.464844 181.429688 C 234.253906 183.53125 233.742188 185.652344 233.332031 187.75 C 232.910156 189.921875 232.535156 192.121094 232.167969 194.316406 C 231.511719 198.246094 230.550781 202.125 229.496094 205.945312 C 228.757812 208.613281 228.363281 211.402344 227.21875 213.960938 C 227.160156 214.09375 227.125 214.246094 227.109375 214.394531 C 226.933594 216.019531 226.578125 217.5625 226.007812 219.128906 C 225.300781 221.058594 225.164062 223.195312 224.695312 225.21875 C 224.191406 227.382812 223.863281 229.585938 223.082031 231.683594 C 222.730469 232.621094 222.453125 233.605469 222.304688 234.59375 C 222.027344 236.417969 221.171875 238.0625 220.769531 239.832031 C 220.324219 241.785156 219.457031 243.597656 218.71875 245.410156 C 217.539062 248.3125 216.589844 251.4375 214.289062 253.730469 C 213.402344 254.617188 212.355469 255.40625 211.320312 256.175781 C 210.066406 257.105469 208.6875 257.496094 207.3125 257.988281 C 203.933594 259.199219 201.101562 258.210938 198.523438 255.859375 C 195.796875 253.378906 194.386719 250.242188 193.835938 246.71875 C 193.589844 245.140625 193.730469 243.480469 193.859375 241.871094 C 194.125 238.550781 193.855469 235.230469 193.714844 231.929688 C 193.605469 229.472656 193.550781 226.921875 192.664062 224.554688 C 191.042969 220.238281 187.804688 217.929688 182.714844 218.703125 C 180.640625 219.019531 179.472656 220.421875 178.398438 221.921875 C 176.652344 224.363281 175.636719 227.074219 175.230469 230.109375 C 174.914062 232.488281 174.304688 234.839844 174.007812 237.238281 C 173.59375 240.582031 173.175781 243.921875 172.691406 247.25 C 172.5 248.570312 172.109375 249.929688 171.582031 251.089844 C 170.191406 254.140625 168.140625 256.761719 164.726562 257.785156 C 163.164062 258.25 161.515625 258.179688 159.878906 258.035156 C 157.328125 257.8125 155.140625 256.808594 153.359375 255.019531 C 152.273438 253.925781 151.503906 252.59375 150.851562 251.144531 C 150.191406 249.667969 150.011719 248.054688 149.296875 246.636719 C 148.300781 244.664062 147.578125 242.617188 147.070312 240.46875 C 146.652344 238.699219 145.644531 237.132812 145.195312 235.355469 C 144.582031 232.910156 143.882812 230.484375 143.164062 228.070312 C 142.160156 224.699219 141.65625 221.210938 140.597656 217.84375 C 139.722656 215.058594 139.378906 212.109375 138.546875 209.308594 C 137.5625 205.992188 137.042969 202.585938 136.539062 199.199219 C 135.933594 195.171875 135.4375 191.117188 135.085938 187.046875 C 134.894531 184.878906 134.347656 182.703125 134.183594 180.523438 C 133.988281 177.996094 133.347656 175.539062 133.253906 173.007812 C 135.625 172.914062 138.007812 173.183594 140.371094 172.785156 C 142.917969 172.351562 145.484375 172.75 148.046875 172.609375 C 152.195312 172.378906 156.355469 172.390625 160.511719 172.351562 C 161.453125 172.339844 162.375 172.304688 163.289062 172.105469 C 163.804688 173.492188 163.457031 174.957031 163.703125 176.390625 C 164.238281 179.5 164.257812 182.691406 164.90625 185.796875 C 165.285156 187.59375 166.105469 189.046875 168.117188 189.355469 C 169.996094 189.644531 171.890625 189.777344 173.789062 189.847656 C 176.714844 189.960938 179.65625 189.796875 182.566406 189.972656 C 186.480469 190.210938 190.375 190.019531 194.269531 189.832031 C 196.257812 189.738281 198.230469 189.402344 200.242188 189.433594 C 201.84375 189.460938 204.105469 187.847656 204.453125 186.527344 C 205.136719 183.953125 205.085938 181.285156 205.199219 178.65625 C 205.308594 176.097656 205.183594 173.527344 205.324219 170.964844 C 205.664062 171.164062 206.027344 171.214844 206.40625 171.148438 C 209.863281 170.53125 213.367188 170.925781 216.84375 170.722656 C 218.957031 170.601562 221.078125 170.628906 223.195312 170.5625 C 224.570312 170.519531 225.945312 170.324219 227.3125 170.386719 C 230.050781 170.519531 232.785156 170.417969 235.519531 170.320312 Z M 235.519531 170.320312 " fill-opacity="1" fill-rule="nonzero"/><g clip-path="url(#8a184b2377)"><path fill="#ffffff" d="M 129.308594 173.054688 C 129.292969 174.535156 129.394531 176.027344 128.984375 177.480469 C 128.894531 177.800781 128.820312 178.140625 128.820312 178.472656 C 128.816406 181.574219 128.109375 184.558594 127.546875 187.589844 C 127.125 189.839844 126.839844 192.128906 126.351562 194.378906 C 125.507812 198.269531 124.90625 202.238281 123.703125 206.011719 C 122.859375 208.667969 122.570312 211.476562 121.402344 214.023438 C 121.339844 214.15625 121.328125 214.316406 121.308594 214.460938 C 121.132812 216.050781 120.777344 217.558594 120.226562 219.089844 C 119.511719 221.0625 119.386719 223.234375 118.890625 225.292969 C 118.375 227.414062 118.085938 229.589844 117.300781 231.648438 C 116.96875 232.511719 116.667969 233.417969 116.554688 234.332031 C 116.324219 236.128906 115.640625 237.785156 115.078125 239.472656 C 113.867188 243.078125 112.464844 246.613281 110.875 250.074219 C 109.675781 252.679688 107.820312 254.605469 105.4375 256.191406 C 103.457031 257.511719 101.339844 258.351562 99.046875 258.480469 C 95.300781 258.6875 92.867188 256.351562 90.738281 253.632812 C 89.152344 251.609375 88.386719 249.203125 88.058594 246.746094 C 87.792969 244.753906 88.046875 242.691406 88.078125 240.664062 C 88.136719 237.164062 88.117188 233.664062 87.726562 230.183594 C 87.511719 228.265625 87.574219 226.304688 86.851562 224.464844 C 85.207031 220.289062 82.007812 217.917969 76.941406 218.699219 C 74.777344 219.035156 73.625 220.523438 72.496094 222.09375 C 70.753906 224.511719 69.851562 227.21875 69.417969 230.195312 C 69.0625 232.613281 68.488281 235.007812 68.175781 237.441406 C 67.757812 240.707031 67.367188 243.980469 66.898438 247.238281 C 66.707031 248.558594 66.320312 249.921875 65.789062 251.074219 C 64.390625 254.117188 62.375 256.769531 58.941406 257.78125 C 57.375 258.242188 55.730469 258.160156 54.089844 258.035156 C 51.445312 257.835938 49.214844 256.710938 47.402344 254.886719 C 46.378906 253.859375 45.65625 252.550781 45.0625 251.15625 C 44.449219 249.710938 44.222656 248.140625 43.546875 246.753906 C 42.546875 244.703125 41.765625 242.601562 41.242188 240.378906 C 40.832031 238.648438 39.847656 237.109375 39.410156 235.367188 C 38.792969 232.921875 38.089844 230.496094 37.371094 228.078125 C 36.367188 224.707031 35.867188 221.21875 34.800781 217.855469 C 33.953125 215.179688 33.585938 212.355469 32.820312 209.648438 C 31.824219 206.144531 31.214844 202.554688 30.699219 198.976562 C 30.125 194.980469 29.609375 190.964844 29.273438 186.925781 C 29.105469 184.90625 28.605469 182.878906 28.421875 180.84375 C 28.066406 176.921875 27.15625 173.066406 27.15625 169.109375 C 28.023438 165.195312 28.859375 166.03125 29.121094 165.640625 C 29.476562 166.367188 27.554688 169.28125 27.484375 170.019531 C 27.339844 171.570312 28.003906 172.285156 29.40625 171.761719 C 30.664062 171.289062 31.851562 171.335938 33.101562 171.410156 C 33.320312 171.421875 33.550781 171.394531 33.765625 171.347656 C 36.554688 170.734375 39.40625 171.167969 42.222656 170.851562 C 42.933594 170.769531 43.765625 170.683594 44.570312 170.761719 C 45.980469 170.902344 47.464844 170.867188 48.84375 170.742188 C 50.171875 170.621094 51.5 170.613281 52.824219 170.539062 C 53.378906 170.507812 53.875 170.6875 53.914062 171.390625 C 53.347656 171.667969 52.742188 171.558594 52.152344 171.566406 C 49.40625 171.609375 46.65625 171.597656 43.910156 171.683594 C 41.089844 171.773438 38.273438 171.953125 35.453125 172.085938 C 33.457031 172.183594 31.460938 172.273438 29.464844 172.355469 C 28.511719 172.394531 27.839844 172.867188 27.730469 173.78125 C 27.625 174.640625 28.160156 175.265625 28.972656 175.570312 C 29.316406 175.695312 29.699219 175.769531 30.066406 175.769531 C 33.265625 175.761719 36.476562 175.859375 39.667969 175.667969 C 44.082031 175.40625 48.507812 175.515625 52.921875 175.253906 C 54.875 175.140625 56.835938 175.148438 58.796875 175.101562 C 59.003906 175.554688 59 176.039062 59.066406 176.519531 C 59.527344 179.6875 59.5625 182.910156 60.296875 186.039062 C 60.804688 188.191406 61.851562 189.15625 63.796875 189.425781 C 66.347656 189.78125 68.921875 189.753906 71.480469 189.929688 C 73.632812 190.078125 75.789062 189.761719 77.925781 189.953125 C 81.800781 190.296875 85.664062 190.019531 89.523438 189.84375 C 91.511719 189.75 93.484375 189.402344 95.5 189.4375 C 97.625 189.472656 99.640625 187.621094 99.984375 185.496094 C 100.378906 183.070312 100.515625 180.621094 100.496094 178.164062 C 100.484375 176.746094 100.554688 175.328125 100.585938 173.914062 C 103.808594 173.886719 107.027344 173.785156 110.25 173.707031 C 113.9375 173.621094 117.625 173.335938 121.320312 173.40625 C 122.097656 173.421875 122.894531 173.628906 123.652344 173.441406 C 125.519531 172.980469 127.4375 173.378906 129.308594 173.054688 Z M 129.308594 173.054688 " fill-opacity="1" fill-rule="nonzero"/></g><g clip-path="url(#c89a8df174)"><path fill="#ffffff" d="M 132.933594 168.503906 C 133.523438 167.113281 132.9375 165.632812 133.273438 164.191406 C 133.558594 162.984375 133.550781 161.699219 133.691406 160.453125 C 133.953125 158.136719 133.992188 155.792969 134.269531 153.476562 C 134.574219 150.902344 134.957031 148.332031 135.894531 145.882812 C 136.394531 144.578125 136.835938 143.25 137.359375 141.953125 C 137.59375 141.371094 138.011719 140.867188 138.257812 140.289062 C 139.527344 137.332031 141.820312 135.125 143.894531 132.800781 C 145.183594 131.355469 146.855469 130.246094 148.648438 129.375 C 150.210938 128.613281 151.550781 127.453125 153.253906 126.910156 C 153.945312 126.691406 154.632812 126.542969 155.320312 126.515625 C 157.050781 126.441406 158.667969 125.863281 160.328125 125.507812 C 162.652344 125.011719 164.816406 125.746094 167.011719 126.183594 C 169.203125 126.617188 171.34375 127.328125 173.511719 127.859375 C 175.320312 128.304688 177.191406 128.671875 179.054688 128.921875 C 181.46875 129.246094 183.90625 129.523438 186.34375 129.144531 C 188.574219 128.804688 190.839844 128.746094 193.015625 128.007812 C 194.203125 127.605469 195.464844 127.390625 196.714844 127.214844 C 198.851562 126.90625 200.835938 126.054688 202.953125 125.640625 C 208.777344 124.507812 214.539062 124.496094 220.039062 126.875 C 222.796875 128.066406 225.363281 129.6875 227.285156 132.214844 C 229.136719 134.65625 230.914062 137.109375 231.964844 140.003906 C 232.765625 142.207031 233.152344 144.519531 233.671875 146.792969 C 234.378906 149.867188 235.082031 152.949219 235.558594 156.0625 C 235.890625 158.25 235.984375 160.492188 235.871094 162.726562 C 235.816406 163.835938 235.855469 164.949219 235.851562 166.0625 C 235.640625 166.675781 235.070312 166.5625 234.640625 166.589844 C 230.960938 166.820312 227.273438 166.652344 223.59375 166.910156 C 220.703125 167.117188 217.792969 167.058594 214.894531 167.105469 C 211.472656 167.160156 208.046875 167.203125 204.625 167.253906 C 204.449219 166.453125 204.429688 165.632812 204.339844 164.824219 C 203.949219 161.25 202.859375 159.6875 198.835938 159.445312 C 197.949219 159.394531 197.058594 159.449219 196.171875 159.394531 C 192.789062 159.1875 189.425781 159.671875 186.050781 159.726562 C 183.96875 159.761719 181.945312 160.285156 179.867188 160.339844 C 178.167969 160.382812 176.457031 160.605469 174.804688 160.902344 C 172.199219 161.371094 169.59375 161.691406 166.96875 161.875 C 165.183594 162 164.332031 162.734375 163.796875 164.339844 C 163.34375 165.707031 163.597656 167.074219 163.414062 168.425781 C 162.019531 168.65625 160.601562 168.488281 159.222656 168.605469 C 155.96875 168.882812 152.710938 168.710938 149.460938 168.914062 C 147.023438 169.0625 144.574219 169.023438 142.128906 169.070312 C 139.277344 169.125 136.433594 169.460938 133.570312 169.246094 C 132.953125 169.199219 132.898438 168.964844 132.933594 168.503906 Z M 132.933594 168.503906 " fill-opacity="1" fill-rule="nonzero"/></g><g clip-path="url(#05eceb328f)"><path fill="#ffffff" d="M 27.683594 169.507812 C 28.273438 168.113281 27.6875 166.632812 28.023438 165.195312 C 28.308594 163.984375 28.300781 162.703125 28.441406 161.453125 C 28.703125 159.136719 28.742188 156.792969 29.019531 154.480469 C 29.328125 151.90625 29.707031 149.332031 30.644531 146.886719 C 31.144531 145.582031 31.585938 144.25 32.109375 142.957031 C 32.34375 142.375 32.761719 141.867188 33.011719 141.292969 C 34.277344 138.332031 36.570312 136.128906 38.648438 133.800781 C 39.9375 132.355469 41.605469 131.25 43.402344 130.375 C 44.960938 129.613281 46.304688 128.453125 48.007812 127.914062 C 48.695312 127.695312 49.382812 127.542969 50.070312 127.515625 C 51.800781 127.445312 53.417969 126.863281 55.082031 126.507812 C 57.402344 126.011719 59.570312 126.746094 61.761719 127.183594 C 63.953125 127.621094 66.09375 128.332031 68.261719 128.859375 C 70.070312 129.304688 71.941406 129.675781 73.804688 129.925781 C 76.21875 130.25 78.65625 130.523438 81.097656 130.148438 C 83.324219 129.804688 85.59375 129.75 87.765625 129.011719 C 88.953125 128.605469 90.21875 128.394531 91.464844 128.214844 C 93.601562 127.910156 95.589844 127.054688 97.703125 126.644531 C 103.527344 125.511719 109.289062 125.496094 114.789062 127.878906 C 117.546875 129.070312 120.113281 130.6875 122.035156 133.21875 C 123.886719 135.660156 125.664062 138.109375 126.714844 141.007812 C 127.515625 143.207031 127.902344 145.523438 128.425781 147.796875 C 129.132812 150.867188 129.832031 153.949219 130.308594 157.0625 C 130.640625 159.253906 130.734375 161.492188 130.621094 163.726562 C 130.566406 164.835938 130.605469 165.953125 130.601562 167.0625 C 130.394531 167.679688 130.105469 169.398438 129.675781 169.425781 C 125.996094 169.65625 122.109375 169.347656 118.425781 169.605469 C 115.535156 169.808594 112.824219 170.273438 109.921875 170.320312 C 106.5 170.375 103.9375 170.261719 100.515625 170.3125 C 100.335938 169.511719 99.179688 166.636719 99.089844 165.824219 C 98.699219 162.253906 97.609375 160.6875 93.585938 160.449219 C 92.699219 160.394531 91.808594 160.449219 90.925781 160.398438 C 87.539062 160.1875 84.175781 160.671875 80.800781 160.726562 C 78.71875 160.761719 76.699219 161.289062 74.617188 161.34375 C 72.921875 161.386719 71.207031 161.605469 69.554688 161.902344 C 66.953125 162.371094 64.34375 162.691406 61.71875 162.875 C 59.933594 163 60.375 164.035156 59.839844 165.640625 C 59.386719 167.007812 58.933594 170.042969 58.75 171.394531 C 57.359375 171.625 56.144531 171.292969 54.769531 171.410156 C 51.511719 171.6875 48.621094 172.308594 45.371094 172.507812 C 42.933594 172.660156 39.355469 171.347656 36.914062 171.394531 C 34.0625 171.449219 30.535156 172.699219 27.675781 172.484375 C 27.058594 172.4375 27.648438 169.96875 27.683594 169.507812 Z M 27.683594 169.507812 " fill-opacity="1" fill-rule="nonzero"/></g><g clip-path="url(#da2f2acfd3)"><path fill="#ffffff" d="M 239.507812 166.378906 C 239.871094 164.292969 239.984375 162.171875 240.210938 160.070312 C 240.4375 157.9375 240.53125 155.777344 240.777344 153.636719 C 241.089844 150.90625 241.632812 148.253906 242.4375 145.605469 C 243.25 142.941406 244.773438 140.652344 245.78125 138.113281 C 245.929688 137.742188 246.273438 137.5625 246.511719 137.28125 C 247.644531 135.960938 248.746094 134.609375 249.886719 133.292969 C 251.316406 131.644531 253.117188 130.480469 255 129.433594 C 255.878906 128.945312 256.742188 128.4375 257.589844 127.902344 C 258.910156 127.074219 260.335938 126.535156 261.882812 126.488281 C 263.617188 126.4375 265.226562 125.828125 266.894531 125.507812 C 268.835938 125.132812 270.644531 125.597656 272.480469 125.96875 C 275.003906 126.484375 277.535156 126.976562 279.9375 127.941406 C 280.589844 128.203125 281.269531 127.964844 281.929688 128.15625 C 284.070312 128.78125 286.285156 129.121094 288.488281 129.285156 C 290.804688 129.460938 293.140625 129.148438 295.460938 128.847656 C 298.527344 128.445312 301.519531 127.671875 304.492188 126.933594 C 307.234375 126.246094 309.964844 125.582031 312.757812 125.148438 C 315.84375 124.671875 318.914062 124.921875 321.964844 125.4375 C 324.824219 125.921875 327.460938 127.113281 329.855469 128.667969 C 331.53125 129.753906 333.027344 131.144531 334.261719 132.832031 C 335.691406 134.792969 337.070312 136.777344 338.0625 138.972656 C 339.015625 141.074219 339.289062 143.40625 339.894531 145.625 C 340.828125 149.070312 341.378906 152.601562 342.027344 156.097656 C 342.433594 158.285156 342.546875 160.605469 342.253906 162.867188 C 342.167969 163.53125 342.664062 164.1875 342.207031 164.828125 C 341.710938 163.960938 340.914062 163.503906 339.972656 163.652344 C 338.179688 163.933594 336.367188 163.496094 334.566406 163.96875 C 333.464844 164.257812 332.25 163.695312 331.125 163.8125 C 327.636719 164.171875 324.136719 163.976562 320.648438 164.203125 C 317.382812 164.417969 314.105469 164.421875 310.832031 164.515625 C 310.757812 164.390625 310.652344 164.273438 310.609375 164.140625 C 309.683594 161.207031 308.09375 160.0625 305.050781 160.121094 C 304.242188 160.136719 303.425781 160.125 302.617188 160.078125 C 299.234375 159.878906 295.875 160.328125 292.503906 160.402344 C 290.421875 160.449219 288.40625 160.976562 286.324219 161.011719 C 284.625 161.039062 282.910156 161.277344 281.257812 161.578125 C 278.65625 162.050781 276.050781 162.339844 273.429688 162.558594 C 271.675781 162.707031 270.773438 163.355469 270.292969 165.03125 C 270.222656 165.277344 270.066406 165.496094 269.949219 165.726562 C 269.542969 165.691406 269.132812 165.617188 268.730469 165.632812 C 265.691406 165.75 262.65625 165.894531 259.621094 166.007812 C 259.03125 166.03125 258.433594 165.910156 257.84375 165.929688 C 255.550781 166.015625 253.257812 166.175781 250.960938 166.230469 C 248.441406 166.285156 245.914062 166.316406 243.394531 166.230469 C 242.085938 166.1875 240.8125 166.628906 239.507812 166.378906 Z M 239.507812 166.378906 " fill-opacity="1" fill-rule="nonzero"/></g><path fill="#615b5b" d="M 239.464844 166.390625 C 240.769531 166.636719 242.042969 166.199219 243.351562 166.242188 C 245.871094 166.328125 248.398438 166.296875 250.917969 166.238281 C 253.214844 166.1875 255.507812 166.027344 257.800781 165.941406 C 258.394531 165.921875 258.988281 166.042969 259.578125 166.019531 C 262.617188 165.90625 265.652344 165.761719 268.6875 165.644531 C 269.09375 165.628906 269.5 165.703125 269.90625 165.738281 C 269.902344 166.898438 269.898438 168.0625 269.890625 169.226562 C 266.792969 169.621094 263.660156 169.597656 260.5625 169.5625 C 256.578125 169.523438 252.617188 169.9375 248.632812 169.851562 C 245.574219 169.785156 242.507812 170.128906 239.449219 170.289062 C 238.125 170.300781 236.800781 170.316406 235.476562 170.332031 C 232.742188 170.429688 230.011719 170.527344 227.269531 170.398438 C 225.902344 170.335938 224.527344 170.53125 223.152344 170.574219 C 221.035156 170.640625 218.914062 170.613281 216.800781 170.734375 C 213.324219 170.9375 209.824219 170.542969 206.363281 171.160156 C 205.984375 171.226562 205.621094 171.175781 205.285156 170.976562 C 204.664062 169.8125 205.046875 168.457031 204.585938 167.261719 C 208.007812 167.214844 211.429688 167.171875 214.851562 167.113281 C 217.753906 167.066406 220.660156 167.128906 223.550781 166.921875 C 227.234375 166.664062 230.921875 166.828125 234.597656 166.601562 C 235.03125 166.574219 235.601562 166.6875 235.8125 166.074219 C 237.027344 166.207031 238.183594 167.035156 239.464844 166.390625 Z M 239.464844 166.390625 " fill-opacity="1" fill-rule="nonzero"/><path fill="#615b5b" d="M 117.304688 169.636719 C 117.679688 169.628906 118.050781 169.617188 118.425781 169.605469 C 122.179688 169.753906 125.925781 169.644531 129.675781 169.425781 C 130.40625 169.414062 131.140625 169.359375 131.867188 169.410156 C 132.5625 169.460938 132.894531 169.199219 132.890625 168.511719 C 132.855469 168.976562 132.914062 169.210938 133.527344 169.257812 C 136.390625 169.472656 139.234375 169.136719 142.085938 169.082031 C 144.53125 169.035156 146.980469 169.074219 149.417969 168.925781 C 152.671875 168.722656 155.929688 168.890625 159.183594 168.617188 C 160.558594 168.5 161.980469 168.667969 163.375 168.4375 C 163.136719 169.65625 163.386719 170.894531 163.246094 172.117188 C 162.332031 172.316406 161.410156 172.351562 160.472656 172.363281 C 156.3125 172.402344 152.152344 172.390625 148.003906 172.621094 C 145.441406 172.761719 142.875 172.363281 140.328125 172.792969 C 137.964844 173.195312 135.582031 172.925781 133.210938 173.019531 C 131.898438 173.035156 130.582031 173.050781 129.265625 173.066406 C 127.394531 173.390625 125.480469 172.992188 123.609375 173.453125 C 122.855469 173.640625 122.054688 173.433594 121.277344 173.417969 C 117.582031 173.34375 113.898438 173.632812 110.207031 173.71875 C 106.988281 173.796875 103.765625 173.898438 100.542969 173.925781 C 100.535156 172.71875 100.523438 171.515625 100.515625 170.3125 C 101.066406 170.242188 101.640625 170.042969 102.167969 170.132812 C 105.191406 170.628906 108.171875 169.652344 111.210938 169.960938 C 113.210938 170.164062 115.273438 169.765625 117.304688 169.636719 Z M 117.304688 169.636719 " fill-opacity="1" fill-rule="nonzero"/><path fill="#615b5b" d="M 310.832031 164.515625 C 314.105469 164.421875 317.382812 164.417969 320.648438 164.203125 C 324.136719 163.976562 327.636719 164.171875 331.125 163.8125 C 332.25 163.695312 333.464844 164.257812 334.566406 163.96875 C 336.367188 163.496094 338.179688 163.933594 339.972656 163.652344 C 340.914062 163.503906 341.710938 163.960938 342.207031 164.828125 C 342.503906 165.40625 342.257812 165.96875 342.140625 166.53125 C 341.582031 167.058594 340.945312 167.445312 340.152344 167.417969 C 337.628906 167.332031 335.117188 167.644531 332.59375 167.707031 C 327.964844 167.824219 323.328125 167.695312 318.695312 167.996094 C 316.226562 168.15625 313.734375 168.375 311.246094 168.082031 C 310.847656 166.921875 310.671875 165.738281 310.832031 164.515625 Z M 310.832031 164.515625 " fill-opacity="1" fill-rule="nonzero"/><path fill="#0cc0df" d="M 310.789062 164.527344 C 310.632812 165.75 310.808594 166.933594 311.207031 168.09375 C 310.992188 169.265625 311.421875 170.367188 311.574219 171.503906 C 311.835938 173.46875 311.511719 175.449219 311.640625 177.417969 C 311.800781 179.808594 311.425781 182.175781 311.375 184.554688 C 311.300781 188.042969 309.25 190.269531 305.582031 190.085938 C 303.914062 190 302.269531 190.480469 300.617188 190.535156 C 296.761719 190.664062 292.910156 190.957031 289.035156 190.679688 C 287.707031 190.585938 286.308594 190.300781 284.941406 190.714844 C 284.171875 190.949219 283.386719 190.644531 282.609375 190.59375 C 280.089844 190.433594 277.550781 190.511719 275.042969 190.113281 C 273.359375 189.847656 272.066406 189.171875 271.625 187.386719 C 271.292969 186.050781 270.925781 184.742188 270.820312 183.347656 C 270.636719 180.902344 270.21875 178.472656 270.027344 176.027344 C 269.875 174.101562 269.917969 172.160156 269.878906 170.226562 C 269.871094 169.894531 269.886719 169.558594 269.890625 169.226562 C 269.898438 168.0625 269.902344 166.898438 269.90625 165.738281 C 270.023438 165.507812 270.183594 165.289062 270.253906 165.042969 C 270.730469 163.367188 271.632812 162.71875 273.386719 162.570312 C 276.007812 162.351562 278.613281 162.0625 281.214844 161.589844 C 282.867188 161.285156 284.585938 161.050781 286.285156 161.023438 C 288.363281 160.988281 290.382812 160.460938 292.460938 160.414062 C 295.832031 160.339844 299.191406 159.890625 302.574219 160.089844 C 303.382812 160.136719 304.199219 160.148438 305.011719 160.132812 C 308.050781 160.074219 309.644531 161.21875 310.566406 164.152344 C 310.609375 164.285156 310.714844 164.402344 310.789062 164.527344 Z M 282.988281 180.132812 C 282.945312 180.132812 282.898438 180.132812 282.855469 180.132812 C 282.855469 179.3125 282.890625 178.488281 282.839844 177.667969 C 282.816406 177.292969 282.855469 177.109375 283.261719 177.085938 C 285.960938 176.921875 288.648438 176.617188 291.3125 176.144531 C 293.632812 175.730469 296.007812 176.496094 298.316406 175.832031 C 299.273438 175.554688 299.585938 176.015625 299.578125 176.925781 C 299.554688 178.863281 299.503906 180.800781 299.8125 182.730469 C 299.957031 183.640625 300.324219 184.300781 301.257812 184.484375 C 302.148438 184.65625 302.730469 184.191406 303.175781 183.453125 C 303.914062 182.230469 303.542969 180.890625 303.535156 179.625 C 303.523438 177.0625 303.324219 174.5 303.144531 171.941406 C 303.058594 170.675781 302.894531 169.414062 302.679688 168.164062 C 302.542969 167.382812 301.964844 166.933594 301.171875 166.902344 C 300.390625 166.875 299.785156 167.238281 299.550781 168.015625 C 299.324219 168.757812 299.101562 169.480469 299.25 170.316406 C 299.5625 172.070312 299.40625 172.199219 297.609375 172.277344 C 297.496094 172.28125 297.386719 172.28125 297.273438 172.277344 C 292.828125 172.125 288.417969 172.441406 284.050781 173.308594 C 282.699219 173.578125 282.453125 173.347656 282.542969 171.9375 C 282.558594 171.679688 282.65625 171.425781 282.675781 171.167969 C 282.773438 169.953125 282.074219 168.859375 281.148438 168.761719 C 280.109375 168.648438 279.53125 169.296875 279.273438 170.644531 C 278.875 172.714844 279.167969 174.792969 279.097656 176.863281 C 279.027344 178.960938 279.1875 181.007812 279.757812 183.019531 C 280.015625 183.941406 280.652344 184.378906 281.613281 184.226562 C 282.515625 184.078125 282.972656 183.507812 282.988281 182.597656 C 283 181.773438 282.988281 180.953125 282.988281 180.132812 Z M 282.988281 180.132812 " fill-opacity="1" fill-rule="nonzero"/><path fill="#0cc0df" d="M 163.246094 172.117188 C 163.386719 170.894531 163.136719 169.65625 163.375 168.4375 C 163.554688 167.085938 163.300781 165.71875 163.753906 164.351562 C 164.289062 162.746094 165.140625 162.011719 166.925781 161.886719 C 169.550781 161.699219 172.160156 161.382812 174.761719 160.914062 C 176.414062 160.613281 178.128906 160.394531 179.824219 160.351562 C 181.90625 160.296875 183.929688 159.773438 186.007812 159.738281 C 189.382812 159.683594 192.746094 159.199219 196.132812 159.40625 C 197.015625 159.460938 197.90625 159.40625 198.792969 159.457031 C 202.820312 159.695312 203.90625 161.261719 204.300781 164.835938 C 204.386719 165.644531 204.40625 166.460938 204.585938 167.261719 C 205.046875 168.457031 204.664062 169.8125 205.285156 170.976562 C 205.140625 173.539062 205.265625 176.109375 205.15625 178.667969 C 205.042969 181.296875 205.097656 183.960938 204.414062 186.539062 C 204.0625 187.859375 201.800781 189.472656 200.199219 189.445312 C 198.1875 189.414062 196.214844 189.75 194.226562 189.84375 C 190.335938 190.027344 186.441406 190.222656 182.523438 189.984375 C 179.613281 189.808594 176.675781 189.972656 173.75 189.859375 C 171.847656 189.789062 169.953125 189.65625 168.074219 189.367188 C 166.0625 189.058594 165.242188 187.605469 164.867188 185.804688 C 164.214844 182.703125 164.199219 179.511719 163.660156 176.398438 C 163.414062 174.96875 163.765625 173.503906 163.246094 172.117188 Z M 172.691406 176.539062 C 172.476562 178.417969 172.753906 180.292969 173.195312 182.148438 C 173.359375 182.835938 173.730469 183.394531 174.476562 183.558594 C 175.109375 183.699219 175.6875 183.527344 176.105469 183.042969 C 176.601562 182.46875 176.625 181.769531 176.566406 181.03125 C 176.457031 179.730469 176.4375 178.421875 176.347656 177.117188 C 176.320312 176.722656 176.347656 176.492188 176.8125 176.421875 C 179.269531 176.046875 181.769531 176.148438 184.214844 175.503906 C 186.628906 174.867188 189.164062 175.667969 191.644531 175.242188 C 192.976562 175.011719 193.144531 175.246094 193.136719 176.589844 C 193.128906 178.300781 193.148438 180.011719 193.304688 181.71875 C 193.429688 183.113281 193.996094 183.824219 195.109375 183.816406 C 196.085938 183.808594 197.082031 182.859375 197.066406 181.742188 C 197.050781 180.890625 197.203125 180.027344 197.105469 179.199219 C 196.789062 176.523438 196.957031 173.832031 196.703125 171.160156 C 196.597656 170.011719 196.5 168.855469 196.285156 167.726562 C 196.132812 166.921875 195.699219 166.269531 194.722656 166.242188 C 193.789062 166.210938 193.289062 166.703125 192.996094 167.535156 C 192.714844 168.34375 192.804688 169.160156 192.839844 169.980469 C 192.90625 171.578125 192.902344 171.652344 191.269531 171.613281 C 186.371094 171.484375 181.515625 171.730469 176.734375 172.894531 C 176.269531 173.007812 176.265625 172.71875 176.214844 172.40625 C 176.105469 171.734375 176.195312 171.070312 176.222656 170.398438 C 176.273438 169.101562 175.558594 168.136719 174.585938 168.082031 C 173.554688 168.019531 172.890625 168.765625 172.730469 170.152344 C 172.484375 172.265625 172.597656 174.382812 172.691406 176.539062 Z M 172.691406 176.539062 " fill-opacity="1" fill-rule="nonzero"/><path fill="#0cc0df" d="M 100.515625 170.3125 C 100.523438 171.515625 100.535156 172.71875 100.542969 173.925781 C 100.511719 175.339844 100.441406 176.757812 100.453125 178.175781 C 100.472656 180.632812 100.339844 183.082031 99.945312 185.507812 C 99.597656 187.632812 97.582031 189.484375 95.457031 189.449219 C 93.441406 189.414062 91.472656 189.761719 89.480469 189.855469 C 85.621094 190.03125 81.757812 190.308594 77.882812 189.964844 C 75.746094 189.773438 73.589844 190.089844 71.4375 189.941406 C 68.878906 189.765625 66.304688 189.792969 63.757812 189.4375 C 61.8125 189.167969 60.761719 188.203125 60.253906 186.050781 C 59.519531 182.921875 59.484375 179.699219 59.027344 176.53125 C 58.957031 176.050781 58.960938 175.566406 58.753906 175.113281 C 58.753906 173.875 58.753906 172.636719 58.75 171.394531 C 58.757812 169.539062 58.679688 167.675781 58.789062 165.828125 C 58.941406 163.148438 60.003906 162.066406 62.199219 161.898438 C 64.828125 161.695312 67.464844 161.550781 70.03125 160.871094 C 70.316406 160.796875 70.625 160.742188 70.914062 160.765625 C 72.300781 160.882812 73.621094 160.472656 74.964844 160.253906 C 75.101562 160.253906 75.234375 160.25 75.371094 160.25 C 76.929688 160.625 78.355469 159.703125 79.886719 159.785156 C 80.339844 159.9375 80.777344 159.847656 81.21875 159.714844 C 82.175781 159.449219 83.183594 159.898438 84.132812 159.492188 C 84.429688 159.492188 84.730469 159.496094 85.027344 159.496094 C 87.984375 159.511719 90.933594 159.195312 93.902344 159.433594 C 96.21875 159.621094 98.246094 160.085938 99.210938 162.503906 C 99.179688 162.558594 99.191406 162.601562 99.253906 162.628906 C 99.667969 164.765625 99.832031 166.933594 100.058594 169.09375 C 100.109375 169.546875 100.210938 169.960938 100.515625 170.3125 Z M 71.835938 179.59375 C 71.804688 179.59375 71.777344 179.59375 71.75 179.59375 C 71.75 178.882812 71.804688 178.167969 71.734375 177.464844 C 71.664062 176.742188 71.945312 176.5 72.625 176.367188 C 74.882812 175.921875 77.199219 176.222656 79.472656 175.519531 C 81.773438 174.8125 84.257812 175.625 86.667969 175.261719 C 88.460938 174.988281 88.5 175.152344 88.429688 177.042969 C 88.367188 178.796875 88.414062 180.550781 88.710938 182.289062 C 88.835938 183.011719 89.167969 183.570312 89.90625 183.753906 C 90.699219 183.953125 91.390625 183.726562 91.886719 183.050781 C 92.269531 182.523438 92.457031 181.945312 92.429688 181.269531 C 92.332031 179.003906 92.359375 176.730469 92.1875 174.472656 C 92.015625 172.242188 92.003906 169.996094 91.597656 167.78125 C 91.429688 166.84375 90.957031 166.277344 89.984375 166.246094 C 89.074219 166.21875 88.601562 166.707031 88.316406 167.582031 C 88.023438 168.476562 88.011719 169.34375 88.179688 170.226562 C 88.367188 171.21875 87.960938 171.632812 87.003906 171.609375 C 86.929688 171.605469 86.855469 171.621094 86.78125 171.621094 C 81.8125 171.472656 76.875 171.703125 72.027344 172.902344 C 71.671875 172.992188 71.566406 172.820312 71.523438 172.503906 C 71.445312 171.949219 71.304688 171.398438 71.464844 170.839844 C 71.648438 170.183594 71.457031 169.566406 71.207031 168.988281 C 70.929688 168.355469 70.40625 168.007812 69.679688 168.082031 C 68.980469 168.152344 68.410156 168.53125 68.261719 169.179688 C 67.914062 170.738281 67.710938 172.339844 67.875 173.929688 C 67.996094 175.089844 67.996094 176.242188 67.957031 177.394531 C 67.894531 179.152344 68.136719 180.871094 68.679688 182.53125 C 68.9375 183.320312 69.582031 183.722656 70.441406 183.566406 C 71.265625 183.421875 71.796875 182.9375 71.828125 182.058594 C 71.855469 181.238281 71.835938 180.414062 71.835938 179.59375 Z M 71.835938 179.59375 " fill-opacity="1" fill-rule="nonzero"/><g clip-path="url(#712bdd3f68)"><path fill="#615b5b" d="M 58.75 171.394531 C 58.753906 172.636719 58.753906 173.875 58.753906 175.113281 C 56.796875 175.160156 54.835938 175.152344 52.882812 175.265625 C 48.464844 175.523438 44.042969 175.417969 39.625 175.679688 C 36.433594 175.871094 33.226562 175.769531 30.023438 175.78125 C 29.660156 175.78125 29.273438 175.707031 28.929688 175.578125 C 28.117188 175.277344 27.582031 174.652344 27.6875 173.792969 C 27.800781 172.878906 28.472656 172.40625 29.421875 172.367188 C 31.417969 172.285156 33.414062 172.195312 35.410156 172.097656 C 38.230469 171.964844 41.046875 171.785156 43.871094 171.695312 C 46.617188 171.609375 49.363281 171.621094 52.109375 171.578125 C 52.699219 171.570312 53.308594 171.679688 53.871094 171.398438 C 54.171875 171.402344 54.46875 171.40625 54.769531 171.410156 C 56.097656 171.402344 57.421875 171.398438 58.75 171.394531 Z M 58.75 171.394531 " fill-opacity="1" fill-rule="nonzero"/></g></svg>