<svg xmlns="http://www.w3.org/2000/svg" xmlns:xlink="http://www.w3.org/1999/xlink" width="500" zoomAndPan="magnify" viewBox="0 0 375 374.999991" height="500" preserveAspectRatio="xMidYMid meet" version="1.0"><defs><clipPath id="8fb5a5bb89"><path d="M 17.484375 183.210938 L 357.847656 183.210938 L 357.847656 291.464844 L 17.484375 291.464844 Z M 17.484375 183.210938 " clip-rule="nonzero"/></clipPath></defs><g clip-path="url(#8fb5a5bb89)"><path fill="#f3908a" d="M 357.769531 228.699219 C 356.625 223.257812 356.335938 193.171875 349.746094 188.042969 C 343.15625 182.910156 336.566406 183.433594 336.566406 183.433594 C 298.289062 214.074219 250.957031 222.738281 220.109375 222.871094 C 217.832031 222.878906 215.652344 220.277344 213.566406 220.230469 C 211.359375 220.183594 209.261719 222.679688 207.285156 222.585938 C 198.863281 222.167969 192.699219 220.144531 189.75 218.964844 C 189.078125 218.695312 188.371094 218.566406 187.667969 218.585938 C 186.957031 218.566406 186.25 218.695312 185.582031 218.964844 C 182.632812 220.144531 176.46875 222.167969 168.042969 222.585938 C 166.070312 222.679688 163.976562 220.183594 161.765625 220.230469 C 159.679688 220.277344 157.496094 222.878906 155.226562 222.871094 C 124.375 222.738281 77.042969 214.074219 38.761719 183.433594 C 38.761719 183.433594 32.171875 182.910156 25.582031 188.042969 C 18.996094 193.171875 18.710938 223.257812 17.5625 228.699219 C 16.417969 234.144531 26.222656 296.320312 187.347656 291.160156 C 187.453125 291.160156 187.554688 291.15625 187.667969 291.152344 C 187.773438 291.15625 187.875 291.160156 187.984375 291.160156 C 349.109375 296.320312 358.914062 234.144531 357.769531 228.699219 " fill-opacity="1" fill-rule="nonzero"/></g><path fill="#e87777" d="M 207.285156 222.585938 C 198.863281 222.167969 192.699219 220.144531 189.75 218.964844 C 189.378906 218.816406 188.996094 218.710938 188.609375 218.652344 C 189.300781 225.757812 190.542969 234.679688 192.160156 238.066406 C 195.484375 245.050781 204.1875 246.984375 208.203125 237.566406 C 210.480469 232.21875 211.835938 225.578125 212.59375 220.363281 C 210.738281 220.871094 208.96875 222.667969 207.285156 222.585938 " fill-opacity="1" fill-rule="nonzero"/><path fill="#e87777" d="M 339.664062 183.628906 C 337.777344 183.339844 336.566406 183.433594 336.566406 183.433594 C 306.289062 207.667969 270.355469 218.148438 241.382812 221.539062 C 241.480469 221.96875 241.585938 222.398438 241.71875 222.8125 C 243.222656 227.554688 252.464844 249.042969 261.054688 247.539062 C 269.652344 246.035156 264.675781 224.355469 265.179688 222.21875 C 265.3125 221.664062 265.484375 220.601562 265.644531 219.292969 C 267.511719 222.636719 270.089844 224.328125 271.308594 226.300781 C 273.3125 229.558594 284.339844 241.449219 287.351562 235.71875 C 290.582031 228.53125 291.457031 222.246094 291.023438 216.882812 C 293.957031 220.757812 300.28125 228.910156 302.628906 224.5 C 304.890625 219.46875 305.871094 214.910156 306.035156 210.855469 C 307.460938 212.714844 309.449219 215.515625 311.667969 217.542969 C 313.421875 219.144531 318.839844 217.914062 320.449219 214.882812 C 320.824219 214.171875 321.300781 213.5 321.964844 213.035156 C 324.054688 211.574219 326.089844 211.335938 326.230469 208.535156 C 326.382812 205.507812 326.261719 202.851562 325.949219 200.515625 C 326.46875 201.109375 327.011719 201.683594 327.574219 202.195312 C 329.101562 203.59375 333.699219 201.335938 335.222656 199.566406 C 335.625 199.097656 336.007812 198.621094 336.464844 198.210938 C 338.179688 196.675781 340.210938 195.289062 340.335938 192.851562 C 340.523438 189.109375 340.234375 186.085938 339.664062 183.628906 " fill-opacity="1" fill-rule="nonzero"/><path fill="#e87777" d="M 185.582031 218.964844 C 182.632812 220.144531 176.46875 222.167969 168.042969 222.585938 C 166.410156 222.664062 164.695312 220.96875 162.898438 220.410156 C 163.660156 225.609375 164.859375 232.230469 167.128906 237.566406 C 171.144531 246.984375 179.84375 245.050781 183.171875 238.066406 C 184.792969 234.675781 186.1875 225.746094 186.878906 218.632812 C 186.4375 218.6875 186.003906 218.792969 185.582031 218.964844 " fill-opacity="1" fill-rule="nonzero"/><path fill="#e87777" d="M 155.226562 222.871094 C 149.019531 222.84375 142.144531 222.464844 134.8125 221.640625 C 135.660156 228.515625 139.226562 246.175781 145.867188 246.175781 C 152.886719 246.175781 157.796875 233.675781 159.9375 223.46875 C 160.117188 222.617188 160.25 221.636719 160.355469 220.589844 C 158.703125 221.3125 156.992188 222.878906 155.226562 222.871094 " fill-opacity="1" fill-rule="nonzero"/><path fill="#e87777" d="M 38.761719 183.433594 C 38.761719 183.433594 37.617188 183.347656 35.820312 183.609375 C 35.25 186.066406 34.960938 189.097656 35.148438 192.851562 C 35.273438 195.289062 37.304688 196.675781 39.019531 198.210938 C 39.476562 198.621094 39.863281 199.097656 40.261719 199.566406 C 41.785156 201.335938 46.382812 203.59375 47.910156 202.195312 C 48.472656 201.683594 49.015625 201.109375 49.535156 200.515625 C 49.226562 202.851562 49.101562 205.507812 49.257812 208.535156 C 49.398438 211.335938 51.433594 211.574219 53.519531 213.035156 C 54.1875 213.5 54.660156 214.171875 55.039062 214.882812 C 56.648438 217.914062 62.066406 219.144531 63.816406 217.542969 C 66.03125 215.515625 68.023438 212.714844 69.449219 210.855469 C 69.613281 214.910156 70.59375 219.46875 72.855469 224.5 C 75.203125 228.910156 81.53125 220.757812 84.460938 216.882812 C 84.027344 222.246094 84.902344 228.53125 88.132812 235.71875 C 91.144531 241.449219 102.175781 229.558594 104.179688 226.300781 C 105.398438 224.328125 107.972656 222.636719 109.839844 219.292969 C 110.003906 220.601562 110.171875 221.664062 110.304688 222.21875 C 110.808594 224.355469 105.832031 246.035156 114.429688 247.539062 C 123.023438 249.042969 132.261719 227.554688 133.765625 222.8125 C 133.898438 222.402344 134.003906 221.984375 134.101562 221.558594 C 105.101562 218.1875 69.09375 207.710938 38.761719 183.433594 " fill-opacity="1" fill-rule="nonzero"/><path fill="#e87777" d="M 220.109375 222.871094 C 218.398438 222.878906 216.738281 221.410156 215.132812 220.660156 C 215.234375 221.679688 215.371094 222.632812 215.546875 223.46875 C 217.6875 233.675781 222.597656 246.175781 229.617188 246.175781 C 236.265625 246.175781 239.832031 228.484375 240.675781 221.617188 C 233.285156 222.457031 226.355469 222.84375 220.109375 222.871094 " fill-opacity="1" fill-rule="nonzero"/><path fill="#ea7f7f" d="M 353.71875 228.980469 C 353.144531 224.964844 349.703125 194.960938 349.703125 194.960938 C 345.769531 204.703125 335.164062 212.175781 332.15625 213.683594 C 329.148438 215.183594 331.371094 225.804688 319.910156 227.027344 C 313.265625 227.738281 322.488281 235.0625 302.03125 244.199219 C 309.507812 258.695312 268.054688 271.390625 239.117188 273.109375 C 210.183594 274.832031 187.214844 263.945312 187.214844 263.945312 C 187.214844 263.945312 164.25 274.832031 135.3125 273.109375 C 106.375 271.390625 64.921875 258.695312 72.398438 244.199219 C 51.941406 235.0625 61.164062 227.738281 54.519531 227.027344 C 43.0625 225.804688 45.28125 215.183594 42.273438 213.683594 C 39.265625 212.175781 28.664062 204.703125 24.726562 194.960938 C 24.726562 194.960938 21.285156 224.964844 20.710938 228.980469 C 20.140625 232.996094 24.441406 257.066406 70.566406 274.832031 C 101.804688 286.863281 144.234375 287.851562 168.371094 287.238281 C 180.933594 286.917969 193.496094 286.917969 206.058594 287.238281 C 230.199219 287.851562 272.625 286.863281 303.863281 274.832031 C 349.992188 257.066406 354.292969 232.996094 353.71875 228.980469 " fill-opacity="1" fill-rule="nonzero"/><path fill="#ffa6ab" d="M 212.3125 232.496094 C 211.511719 237.378906 210.222656 243.136719 208.203125 247.882812 C 204.1875 257.300781 195.484375 255.363281 192.160156 248.382812 C 190.671875 245.265625 188.667969 230.695312 188.609375 230.6875 C 189.300781 237.792969 190.542969 246.714844 192.160156 250.101562 C 195.484375 257.085938 204.1875 259.019531 208.203125 249.597656 C 210.480469 244.25 212.40625 232.464844 212.3125 232.496094 " fill-opacity="1" fill-rule="nonzero"/><path fill="#ffa6ab" d="M 269.589844 247.066406 C 269.492188 252.34375 268.390625 257.171875 264.496094 257.851562 C 256.113281 259.320312 244.972656 233.554688 244.824219 233.574219 C 244.917969 234.003906 245.027344 234.429688 245.15625 234.847656 C 246.660156 239.585938 255.898438 262.796875 264.496094 261.292969 C 268.8125 260.535156 269.707031 252.96875 269.589844 247.066406 " fill-opacity="1" fill-rule="nonzero"/><path fill="#ffa6ab" d="M 292.832031 227.1875 C 292.714844 231.75 291.636719 236.886719 289.066406 242.597656 C 286.0625 248.328125 275.03125 236.4375 273.023438 233.179688 C 271.808594 231.199219 269.226562 229.515625 267.363281 226.167969 C 267.203125 227.476562 271.808594 232.921875 273.023438 234.898438 C 275.03125 238.15625 286.0625 251.765625 289.066406 246.035156 C 291.964844 239.59375 292.964844 232.167969 292.832031 227.1875 " fill-opacity="1" fill-rule="nonzero"/><path fill="#ffa6ab" d="M 304.347656 230.515625 C 302.003906 234.925781 295.675781 226.773438 292.746094 222.898438 C 292.792969 223.5 292.820312 224.113281 292.832031 224.734375 C 295.800781 228.65625 302.023438 238.320312 304.347656 233.957031 C 306.609375 228.921875 307.59375 222.644531 307.757812 218.59375 C 307.320312 220.894531 306.609375 225.484375 304.347656 230.515625 " fill-opacity="1" fill-rule="nonzero"/><path fill="#ffa6ab" d="M 183.171875 248.382812 C 179.84375 255.363281 171.144531 257.300781 167.128906 247.882812 C 165.117188 243.152344 162.988281 232.472656 162.898438 232.445312 C 163.660156 237.648438 164.859375 244.265625 167.128906 249.597656 C 171.144531 259.019531 179.84375 257.085938 183.171875 250.101562 C 184.792969 246.710938 186.1875 237.777344 186.878906 230.664062 C 186.816406 230.675781 184.660156 245.261719 183.171875 248.382812 " fill-opacity="1" fill-rule="nonzero"/><path fill="#ffa6ab" d="M 160.121094 232.742188 C 160.0625 233.101562 160.007812 233.460938 159.9375 233.785156 C 157.796875 243.988281 152.886719 256.492188 145.867188 256.492188 C 139.730469 256.492188 136.222656 241.414062 135.050781 233.699219 C 134.972656 233.6875 139.226562 259.929688 145.867188 259.929688 C 152.886719 259.929688 157.796875 245.710938 159.9375 235.507812 C 160.117188 234.652344 160.195312 232.703125 160.121094 232.742188 " fill-opacity="1" fill-rule="nonzero"/><path fill="#ffa6ab" d="M 71.136719 229.660156 C 68.875 224.625 68.875 228.0625 71.136719 233.097656 C 73.460938 237.460938 79.683594 227.796875 82.652344 223.875 C 82.664062 223.253906 82.691406 222.640625 82.742188 222.039062 C 79.808594 225.914062 73.484375 234.066406 71.136719 229.660156 " fill-opacity="1" fill-rule="nonzero"/><path fill="#ffa6ab" d="M 111.847656 256.992188 C 107.953125 256.3125 106.851562 251.480469 106.757812 246.207031 C 106.640625 252.109375 107.535156 259.675781 111.847656 260.433594 C 120.445312 261.9375 131.207031 232.691406 131.054688 232.675781 C 129.203125 238.109375 120.222656 258.460938 111.847656 256.992188 " fill-opacity="1" fill-rule="nonzero"/><path fill="#ffa6ab" d="M 108.121094 226.167969 C 106.253906 229.515625 103.675781 231.199219 102.460938 233.179688 C 100.453125 236.4375 89.425781 248.328125 86.414062 242.597656 C 83.847656 236.886719 82.773438 231.75 82.652344 227.1875 C 82.523438 232.167969 83.519531 239.59375 86.414062 246.035156 C 89.425781 251.765625 100.453125 238.15625 102.460938 234.898438 C 103.675781 232.921875 108.28125 227.476562 108.121094 226.167969 " fill-opacity="1" fill-rule="nonzero"/><path fill="#ffa6ab" d="M 229.617188 256.492188 C 222.597656 256.492188 217.6875 243.988281 215.546875 233.785156 C 215.484375 233.484375 215.433594 233.148438 215.378906 232.820312 C 215.292969 232.777344 215.214844 232.730469 215.132812 232.691406 C 215.234375 233.714844 215.371094 234.667969 215.546875 235.507812 C 217.6875 245.710938 222.597656 259.929688 229.617188 259.929688 C 236.265625 259.929688 239.832031 240.515625 240.675781 233.652344 C 240.59375 233.664062 235.761719 256.492188 229.617188 256.492188 " fill-opacity="1" fill-rule="nonzero"/><path fill="#ffa6ab" d="M 36.613281 198.210938 C 36.183594 196.828125 30.351562 195.40625 29.972656 187.316406 C 29.972656 187.316406 28.503906 191.308594 30.3125 194.714844 C 32.863281 199.515625 34.265625 199.972656 36.417969 201.605469 C 40.855469 204.972656 45.136719 205.417969 45.136719 205.417969 C 41.589844 203.019531 37.546875 201.175781 36.613281 198.210938 " fill-opacity="1" fill-rule="nonzero"/><path fill="#ffa6ab" d="M 60.324219 220.945312 C 55.96875 221 53.714844 216.167969 52.964844 214.875 C 52.207031 213.585938 48.449219 212.351562 48.449219 212.351562 C 56.453125 224.382812 64.671875 220.894531 60.324219 220.945312 " fill-opacity="1" fill-rule="nonzero"/><path fill="#ffa6ab" d="M 344.597656 187.316406 C 344.222656 195.40625 338.386719 196.828125 337.957031 198.210938 C 337.023438 201.175781 332.980469 203.019531 329.433594 205.417969 C 329.433594 205.417969 333.714844 204.972656 338.15625 201.605469 C 340.304688 199.972656 341.707031 199.515625 344.257812 194.714844 C 346.070312 191.308594 344.597656 187.316406 344.597656 187.316406 " fill-opacity="1" fill-rule="nonzero"/><path fill="#ffa6ab" d="M 321.609375 214.875 C 320.855469 216.167969 318.601562 221 314.25 220.945312 C 309.898438 220.894531 318.117188 224.382812 326.121094 212.351562 C 326.121094 212.351562 322.363281 213.585938 321.609375 214.875 " fill-opacity="1" fill-rule="nonzero"/><path fill="#ffffff" d="M 163.589844 205.421875 C 162.5625 205.320312 161.683594 206.167969 161.769531 207.195312 C 162.207031 212.375 163.011719 224.507812 167.203125 234.359375 C 171.222656 243.78125 179.921875 241.84375 183.25 234.859375 C 185.613281 229.902344 187.34375 214.453125 187.40625 207.570312 C 187.429688 204.703125 182.808594 207.363281 163.589844 205.421875 " fill-opacity="1" fill-rule="nonzero"/><path fill="#e0d2bf" d="M 182.539062 234.566406 C 179.339844 241.285156 171.347656 242.984375 167.484375 233.929688 C 163.441406 224.453125 162.671875 212.789062 162.253906 207.804688 C 162.167969 206.8125 163.011719 205.996094 164.003906 206.097656 C 182.5 207.964844 186.558594 205.566406 186.539062 208.324219 C 186.480469 214.941406 184.816406 229.804688 182.539062 234.566406 Z M 163.589844 205.421875 C 162.5625 205.320312 161.683594 206.167969 161.769531 207.195312 C 162.207031 212.375 163.011719 224.507812 167.203125 234.359375 C 171.222656 243.78125 179.921875 241.84375 183.25 234.859375 C 185.613281 229.902344 187.34375 214.453125 187.40625 207.570312 C 187.429688 204.703125 182.808594 207.363281 163.589844 205.421875 " fill-opacity="1" fill-rule="nonzero"/><path fill="#ffffff" d="M 160.585938 208.808594 C 160.53125 206.992188 157.160156 206.398438 155.03125 205.847656 C 151.144531 204.847656 146.722656 204.847656 140.382812 205.414062 C 139.375 205.503906 134.921875 206.023438 134.796875 207.03125 C 134.417969 210.132812 134.265625 213.628906 134.691406 217.992188 C 135.265625 223.867188 138.847656 243.601562 145.867188 243.601562 C 152.886719 243.601562 157.796875 231.097656 159.9375 220.894531 C 160.605469 217.722656 160.699219 212.933594 160.585938 208.808594 " fill-opacity="1" fill-rule="nonzero"/><path fill="#e0d2bf" d="M 160.585938 208.808594 C 160.53125 206.992188 157.160156 206.398438 155.03125 205.847656 C 151.144531 204.847656 146.722656 204.847656 140.382812 205.414062 C 139.375 205.503906 134.921875 206.023438 134.796875 207.03125 C 134.671875 208.078125 134.574219 209.175781 134.507812 210.324219 C 134.511719 210.347656 134.511719 210.378906 134.515625 210.40625 C 134.578125 209.429688 134.664062 208.492188 134.773438 207.59375 C 134.890625 206.621094 139.175781 206.121094 140.148438 206.035156 C 146.25 205.492188 150.5 205.492188 154.246094 206.457031 C 156.292969 206.984375 159.09375 207.6875 159.140625 209.433594 C 159.25 213.40625 159.28125 217.878906 158.640625 220.933594 C 156.578125 230.75 152.179688 242.785156 145.425781 242.785156 C 142.265625 242.785156 139.835938 238.652344 138.082031 233.652344 C 139.917969 239.046875 142.488281 243.601562 145.867188 243.601562 C 152.886719 243.601562 157.796875 231.097656 159.9375 220.894531 C 160.605469 217.722656 160.699219 212.933594 160.585938 208.808594 " fill-opacity="1" fill-rule="nonzero"/><path fill="#ffffff" d="M 134.394531 209.273438 C 132.820312 205.871094 125.78125 196.828125 121.871094 196.828125 C 117.957031 196.828125 110.40625 202.15625 109.59375 205.03125 C 108.734375 208.070312 109.800781 217.507812 110.304688 219.640625 C 110.808594 221.777344 105.832031 243.457031 114.429688 244.960938 C 123.023438 246.464844 132.261719 224.976562 133.765625 220.234375 C 135.273438 215.488281 134.394531 209.273438 134.394531 209.273438 " fill-opacity="1" fill-rule="nonzero"/><path fill="#e0d2bf" d="M 134.507812 210.324219 C 134.449219 209.664062 134.394531 209.273438 134.394531 209.273438 C 132.820312 205.871094 125.78125 196.828125 121.871094 196.828125 C 118.65625 196.828125 113 200.414062 110.625 203.289062 C 110.714844 203.417969 118.46875 197.730469 121.449219 197.730469 C 123.589844 197.730469 126.648438 201.253906 129.222656 204.292969 C 132.753906 208.464844 133.992188 213.378906 132.898438 218.738281 C 132.792969 219.269531 132.65625 219.792969 132.496094 220.304688 C 131.050781 224.867188 122.5625 245.503906 114.289062 244.058594 C 112.132812 243.679688 110.785156 241.996094 109.945312 239.671875 C 110.628906 242.464844 111.976562 244.53125 114.429688 244.960938 C 123.023438 246.464844 132.261719 224.976562 133.765625 220.234375 C 134.191406 218.898438 134.421875 217.488281 134.539062 216.089844 C 134.410156 214 134.414062 212.070312 134.507812 210.324219 " fill-opacity="1" fill-rule="nonzero"/><path fill="#ffffff" d="M 111.925781 205.03125 C 111.925781 205.03125 106.617188 198.328125 106.472656 195.03125 C 106.328125 191.738281 98.734375 189.445312 95.871094 192.171875 C 93.003906 194.890625 77.25 208.929688 88.132812 233.140625 C 91.144531 238.875 102.175781 226.980469 104.179688 223.726562 C 106.339844 220.214844 112.792969 217.609375 111.925781 205.03125 " fill-opacity="1" fill-rule="nonzero"/><path fill="#e0d2bf" d="M 109.59375 205.03125 C 109.738281 204.515625 110.105469 203.917969 110.625 203.289062 C 109.042969 201.074219 106.570312 197.273438 106.472656 195.03125 C 106.429688 194.140625 105.855469 193.324219 104.960938 192.660156 C 105.589844 193.242188 105.914062 193.921875 105.792969 194.65625 C 105.136719 198.519531 106.996094 206.089844 106.996094 206.089844 C 107.835938 218.195312 105.664062 218.886719 103.585938 222.269531 C 101.65625 225.402344 91.039062 236.847656 88.144531 231.332031 C 85.230469 224.847656 84.476562 214.261719 84.449219 214.300781 C 84.019531 219.667969 84.902344 225.953125 88.132812 233.140625 C 91.144531 238.875 102.175781 226.980469 104.179688 223.726562 C 105.398438 221.746094 107.972656 220.058594 109.839844 216.710938 C 109.375 213.007812 108.964844 207.277344 109.59375 205.03125 " fill-opacity="1" fill-rule="nonzero"/><path fill="#ffffff" d="M 91.957031 197.171875 C 91.957031 197.171875 87.421875 191.445312 87.296875 188.628906 C 87.175781 185.816406 80.6875 183.855469 78.242188 186.183594 C 75.792969 188.507812 63.554688 201.238281 72.855469 221.921875 C 75.476562 226.84375 83.066406 216.09375 85.339844 213.144531 C 87.492188 210.347656 92.699219 207.917969 91.957031 197.171875 " fill-opacity="1" fill-rule="nonzero"/><path fill="#e0d2bf" d="M 87.296875 188.628906 C 87.214844 186.636719 83.949219 185.078125 81.171875 185.164062 C 83.699219 185.292969 86.402344 186.710938 86.480469 188.492188 C 86.511719 189.207031 86.835938 190.113281 87.296875 191.066406 C 88.921875 194.402344 88.5625 198.316406 86.839844 201.605469 C 85.511719 204.136719 84.378906 207.128906 83.792969 210.578125 C 83.460938 212.539062 82.878906 214.375 81.617188 215.910156 C 78.539062 219.660156 74.332031 223.871094 72.582031 220.53125 C 71.101562 217.238281 70.199219 214.160156 69.71875 211.296875 C 70.164062 214.558594 71.136719 218.105469 72.855469 221.921875 C 75.128906 226.335938 81.511719 218.183594 84.449219 214.3125 C 85.082031 206.40625 88.574219 200.492188 91.601562 196.710938 C 90.539062 195.308594 87.402344 190.96875 87.296875 188.628906 " fill-opacity="1" fill-rule="nonzero"/><path fill="#ffffff" d="M 71.03125 190.171875 C 68.273438 189.46875 65.679688 188.464844 65.621094 187.152344 C 65.5 184.335938 61.410156 179.671875 58.960938 181.996094 C 58.960938 181.996094 48.253906 186.078125 49.257812 205.957031 C 49.398438 208.753906 51.433594 209 53.519531 210.457031 C 54.1875 210.917969 54.660156 211.589844 55.039062 212.304688 C 56.648438 215.335938 62.066406 216.566406 63.816406 214.96875 C 66.621094 212.402344 69.058594 208.589844 70.457031 207.03125 C 72.734375 204.484375 74.375 202.816406 75.308594 196.714844 C 75.757812 193.761719 73.925781 190.90625 71.03125 190.171875 " fill-opacity="1" fill-rule="nonzero"/><path fill="#e0d2bf" d="M 73.757812 191.769531 C 73.039062 191.007812 72.105469 190.4375 71.019531 190.160156 C 70.726562 190.085938 70.429688 190.007812 70.136719 189.925781 C 71.523438 190.382812 72.15625 192.03125 71.472656 193.347656 C 70.175781 195.847656 69.054688 198.933594 68.621094 202.5625 C 68.164062 206.324219 66.546875 209.863281 63.894531 212.5625 C 63.605469 212.855469 63.308594 213.140625 63.011719 213.40625 C 61.328125 214.929688 56.910156 214.160156 55.363281 211.28125 C 54.984375 210.585938 53.714844 209.539062 53.058594 209.09375 C 51.445312 207.996094 49.882812 207.628906 49.269531 206.132812 C 49.492188 208.753906 51.46875 209.023438 53.515625 210.445312 C 54.175781 210.910156 54.648438 211.582031 55.027344 212.292969 C 56.652344 215.339844 62.066406 216.566406 63.816406 214.96875 C 66.039062 212.933594 68.015625 210.144531 69.441406 208.285156 C 69.15625 201.164062 71.414062 195.578125 73.757812 191.769531 " fill-opacity="1" fill-rule="nonzero"/><path fill="#e0d2bf" d="M 65.613281 187.144531 C 65.503906 184.617188 62.203125 180.597656 59.757812 181.476562 C 62.007812 181.425781 64.652344 184.800781 64.75 186.988281 C 64.800781 188.175781 67.078125 189.097656 69.589844 189.757812 C 67.429688 189.09375 65.660156 188.222656 65.613281 187.144531 " fill-opacity="1" fill-rule="nonzero"/><path fill="#ffffff" d="M 54.210938 177.953125 C 51.804688 177.34375 49.535156 176.464844 49.488281 175.320312 C 49.382812 172.863281 46.546875 169.894531 43.671875 170.816406 C 43.671875 170.816406 34.273438 172.917969 35.148438 190.269531 C 35.273438 192.710938 37.304688 194.09375 39.019531 195.628906 C 39.476562 196.039062 39.863281 196.519531 40.261719 196.984375 C 41.785156 198.761719 46.382812 201.015625 47.910156 199.617188 C 50.359375 197.378906 52.492188 194.039062 53.710938 192.675781 C 55.699219 190.449219 57.132812 188.992188 57.945312 183.652344 C 58.335938 181.082031 56.730469 178.597656 54.210938 177.953125 " fill-opacity="1" fill-rule="nonzero"/><path fill="#e0d2bf" d="M 54.21875 177.964844 C 51.808594 177.351562 49.546875 176.472656 49.496094 175.328125 C 49.394531 173.0625 46.980469 170.351562 44.347656 170.671875 C 46.460938 170.960938 48.234375 173.175781 48.3125 175.050781 C 48.359375 176.125 50.378906 177.632812 52.640625 178.207031 C 52.664062 178.214844 52.683594 178.21875 52.703125 178.226562 C 55.085938 178.847656 55.785156 181.863281 54.023438 183.585938 C 52.0625 185.5 49.726562 188.867188 48.636719 194.539062 C 48.390625 195.808594 47.800781 197 46.847656 197.878906 C 46.84375 197.882812 46.835938 197.886719 46.832031 197.890625 C 45.339844 199.253906 40.695312 196.882812 39.503906 195.246094 C 39.179688 194.804688 38.789062 194.421875 38.382812 194.0625 C 37.191406 193.007812 35.828125 192.03125 35.1875 190.660156 C 35.488281 192.863281 37.398438 194.183594 39.019531 195.636719 C 39.476562 196.050781 39.863281 196.527344 40.261719 196.996094 C 41.726562 198.722656 46.363281 201.035156 47.917969 199.613281 C 48.472656 199.101562 49.015625 198.527344 49.53125 197.941406 C 50.882812 187.792969 55.867188 183.773438 57.992188 182.5 C 57.832031 180.371094 56.355469 178.507812 54.21875 177.964844 " fill-opacity="1" fill-rule="nonzero"/><path fill="#ffffff" d="M 211.894531 205.421875 C 192.675781 207.363281 188.054688 204.703125 188.082031 207.570312 C 188.140625 214.453125 189.871094 229.902344 192.234375 234.859375 C 195.566406 241.84375 204.261719 243.78125 208.28125 234.359375 C 212.476562 224.507812 213.277344 212.375 213.714844 207.195312 C 213.800781 206.167969 212.925781 205.320312 211.894531 205.421875 " fill-opacity="1" fill-rule="nonzero"/><path fill="#e0d2bf" d="M 208 233.929688 C 204.140625 242.984375 196.148438 241.285156 192.945312 234.566406 C 190.671875 229.804688 189.007812 214.941406 188.949219 208.324219 C 188.925781 205.566406 192.984375 207.964844 211.480469 206.097656 C 212.472656 205.996094 213.316406 206.8125 213.234375 207.804688 C 212.8125 212.789062 212.042969 224.453125 208 233.929688 Z M 211.894531 205.421875 C 192.675781 207.363281 188.054688 204.703125 188.082031 207.570312 C 188.140625 214.453125 189.871094 229.902344 192.234375 234.859375 C 195.566406 241.84375 204.261719 243.78125 208.28125 234.359375 C 212.476562 224.507812 213.277344 212.375 213.714844 207.195312 C 213.800781 206.167969 212.925781 205.320312 211.894531 205.421875 " fill-opacity="1" fill-rule="nonzero"/><path fill="#ffffff" d="M 240.6875 207.03125 C 240.5625 206.023438 236.113281 205.503906 235.101562 205.414062 C 228.761719 204.847656 224.34375 204.847656 220.453125 205.847656 C 218.324219 206.398438 214.949219 206.992188 214.902344 208.808594 C 214.789062 212.933594 214.882812 217.722656 215.546875 220.894531 C 217.6875 231.097656 222.597656 243.601562 229.617188 243.601562 C 236.636719 243.601562 240.222656 223.867188 240.792969 217.992188 C 241.21875 213.628906 241.0625 210.132812 240.6875 207.03125 " fill-opacity="1" fill-rule="nonzero"/><path fill="#e0d2bf" d="M 240.6875 207.03125 C 240.5625 206.023438 236.113281 205.503906 235.101562 205.414062 C 228.761719 204.847656 224.34375 204.847656 220.453125 205.847656 C 218.324219 206.398438 214.949219 206.992188 214.902344 208.808594 C 214.789062 212.933594 214.882812 217.722656 215.546875 220.894531 C 217.6875 231.097656 222.597656 243.601562 229.617188 243.601562 C 232.996094 243.601562 235.566406 239.046875 237.402344 233.652344 C 235.648438 238.652344 233.21875 242.785156 230.058594 242.785156 C 223.304688 242.785156 218.90625 230.75 216.84375 220.933594 C 216.207031 217.878906 216.234375 213.40625 216.34375 209.433594 C 216.390625 207.6875 219.191406 206.984375 221.238281 206.457031 C 224.984375 205.492188 229.234375 205.492188 235.332031 206.035156 C 236.308594 206.121094 240.59375 206.621094 240.714844 207.59375 C 240.820312 208.492188 240.90625 209.429688 240.96875 210.40625 C 240.972656 210.378906 240.976562 210.347656 240.976562 210.324219 C 240.914062 209.175781 240.8125 208.078125 240.6875 207.03125 " fill-opacity="1" fill-rule="nonzero"/><path fill="#ffffff" d="M 265.179688 219.640625 C 265.6875 217.507812 266.746094 208.070312 265.890625 205.03125 C 265.082031 202.15625 257.527344 196.828125 253.617188 196.828125 C 249.703125 196.828125 242.664062 205.871094 241.089844 209.273438 C 241.089844 209.273438 240.210938 215.488281 241.71875 220.234375 C 243.222656 224.976562 252.464844 246.464844 261.054688 244.960938 C 269.652344 243.457031 264.675781 221.777344 265.179688 219.640625 " fill-opacity="1" fill-rule="nonzero"/><path fill="#e0d2bf" d="M 261.199219 244.058594 C 252.925781 245.503906 244.433594 224.867188 242.988281 220.304688 C 242.828125 219.792969 242.695312 219.269531 242.585938 218.738281 C 241.492188 213.378906 242.734375 208.464844 246.265625 204.292969 C 248.835938 201.253906 251.894531 197.730469 254.035156 197.730469 C 257.015625 197.730469 264.769531 203.417969 264.863281 203.289062 C 262.484375 200.414062 256.828125 196.828125 253.617188 196.828125 C 249.703125 196.828125 242.664062 205.871094 241.089844 209.273438 C 241.089844 209.273438 241.035156 209.664062 240.976562 210.324219 C 241.070312 212.070312 241.074219 214 240.945312 216.089844 C 241.0625 217.488281 241.292969 218.898438 241.71875 220.234375 C 243.222656 224.976562 252.464844 246.464844 261.054688 244.960938 C 263.511719 244.53125 264.855469 242.464844 265.542969 239.671875 C 264.703125 241.996094 263.351562 243.679688 261.199219 244.058594 " fill-opacity="1" fill-rule="nonzero"/><path fill="#ffffff" d="M 279.613281 192.171875 C 276.75 189.445312 269.15625 191.738281 269.011719 195.03125 C 268.871094 198.328125 263.558594 205.03125 263.558594 205.03125 C 262.691406 217.609375 269.144531 220.214844 271.308594 223.726562 C 273.3125 226.980469 284.339844 238.875 287.351562 233.140625 C 298.238281 208.929688 282.480469 194.890625 279.613281 192.171875 " fill-opacity="1" fill-rule="nonzero"/><path fill="#e0d2bf" d="M 291.035156 214.300781 C 291.007812 214.261719 290.257812 224.847656 287.339844 231.332031 C 284.445312 236.847656 273.832031 225.402344 271.902344 222.269531 C 269.820312 218.886719 267.648438 218.195312 268.488281 206.089844 C 268.488281 206.089844 270.347656 198.519531 269.695312 194.65625 C 269.570312 193.921875 269.894531 193.242188 270.527344 192.660156 C 269.628906 193.324219 269.054688 194.140625 269.011719 195.03125 C 268.914062 197.273438 266.441406 201.074219 264.863281 203.289062 C 265.378906 203.917969 265.746094 204.515625 265.890625 205.03125 C 266.523438 207.277344 266.109375 213.007812 265.644531 216.710938 C 267.511719 220.058594 270.089844 221.746094 271.308594 223.726562 C 273.3125 226.980469 284.339844 238.875 287.351562 233.140625 C 290.582031 225.953125 291.464844 219.667969 291.035156 214.300781 " fill-opacity="1" fill-rule="nonzero"/><path fill="#ffffff" d="M 297.246094 186.183594 C 294.796875 183.855469 288.308594 185.816406 288.183594 188.628906 C 288.066406 191.445312 283.527344 197.171875 283.527344 197.171875 C 282.785156 207.917969 287.992188 210.347656 290.144531 213.144531 C 292.417969 216.09375 300.007812 226.84375 302.628906 221.921875 C 311.929688 201.238281 299.691406 188.507812 297.246094 186.183594 " fill-opacity="1" fill-rule="nonzero"/><path fill="#e0d2bf" d="M 302.902344 220.53125 C 301.152344 223.871094 296.945312 219.660156 293.867188 215.910156 C 292.605469 214.375 292.023438 212.539062 291.691406 210.578125 C 291.105469 207.128906 289.972656 204.136719 288.644531 201.605469 C 286.921875 198.316406 286.558594 194.402344 288.183594 191.066406 C 288.648438 190.113281 288.976562 189.207031 289.007812 188.492188 C 289.082031 186.710938 291.785156 185.292969 294.3125 185.164062 C 291.535156 185.078125 288.273438 186.636719 288.183594 188.628906 C 288.085938 190.96875 284.945312 195.308594 283.882812 196.710938 C 286.914062 200.492188 290.402344 206.40625 291.035156 214.3125 C 293.972656 218.183594 300.355469 226.335938 302.628906 221.921875 C 304.347656 218.105469 305.320312 214.558594 305.765625 211.296875 C 305.289062 214.160156 304.386719 217.238281 302.902344 220.53125 " fill-opacity="1" fill-rule="nonzero"/><path fill="#ffffff" d="M 316.523438 181.996094 C 314.074219 179.671875 309.984375 184.335938 309.863281 187.152344 C 309.804688 188.464844 307.210938 189.46875 304.453125 190.171875 C 301.558594 190.90625 299.726562 193.761719 300.179688 196.714844 C 301.109375 202.816406 302.75 204.484375 305.03125 207.03125 C 306.425781 208.589844 308.863281 212.402344 311.667969 214.96875 C 313.421875 216.566406 318.839844 215.335938 320.449219 212.304688 C 320.824219 211.589844 321.300781 210.917969 321.964844 210.457031 C 324.054688 209 326.089844 208.753906 326.230469 205.957031 C 327.230469 186.078125 316.523438 181.996094 316.523438 181.996094 " fill-opacity="1" fill-rule="nonzero"/><path fill="#e0d2bf" d="M 322.425781 209.09375 C 321.769531 209.539062 320.5 210.585938 320.125 211.28125 C 318.574219 214.160156 314.15625 214.929688 312.472656 213.40625 C 312.175781 213.140625 311.882812 212.855469 311.589844 212.5625 C 308.9375 209.863281 307.320312 206.324219 306.867188 202.5625 C 306.429688 198.933594 305.3125 195.847656 304.015625 193.347656 C 303.332031 192.03125 303.964844 190.382812 305.34375 189.925781 C 305.054688 190.007812 304.761719 190.085938 304.460938 190.160156 C 303.378906 190.4375 302.445312 191.007812 301.726562 191.769531 C 304.074219 195.578125 306.328125 201.164062 306.042969 208.285156 C 307.46875 210.144531 309.445312 212.933594 311.667969 214.96875 C 313.421875 216.566406 318.832031 215.339844 320.457031 212.292969 C 320.835938 211.582031 321.308594 210.910156 321.972656 210.445312 C 324.015625 209.023438 325.992188 208.753906 326.214844 206.132812 C 325.605469 207.628906 324.039062 207.996094 322.425781 209.09375 " fill-opacity="1" fill-rule="nonzero"/><path fill="#e0d2bf" d="M 309.875 187.144531 C 309.824219 188.222656 308.054688 189.09375 305.894531 189.757812 C 308.40625 189.097656 310.683594 188.175781 310.734375 186.988281 C 310.832031 184.800781 313.480469 181.425781 315.730469 181.476562 C 313.285156 180.597656 309.984375 184.617188 309.875 187.144531 " fill-opacity="1" fill-rule="nonzero"/><path fill="#ffffff" d="M 331.8125 170.816406 C 328.9375 169.894531 326.101562 172.863281 325.996094 175.320312 C 325.949219 176.464844 323.679688 177.34375 321.277344 177.953125 C 318.753906 178.597656 317.148438 181.082031 317.539062 183.652344 C 318.351562 188.992188 319.785156 190.449219 321.777344 192.675781 C 322.992188 194.039062 325.125 197.378906 327.574219 199.617188 C 329.101562 201.015625 333.699219 198.761719 335.222656 196.984375 C 335.625 196.519531 336.007812 196.039062 336.464844 195.628906 C 338.179688 194.09375 340.210938 192.710938 340.335938 190.269531 C 341.210938 172.917969 331.8125 170.816406 331.8125 170.816406 " fill-opacity="1" fill-rule="nonzero"/><path fill="#e0d2bf" d="M 337.101562 194.0625 C 336.695312 194.421875 336.304688 194.804688 335.984375 195.246094 C 334.789062 196.882812 330.144531 199.253906 328.65625 197.890625 C 328.648438 197.886719 328.644531 197.882812 328.636719 197.878906 C 327.683594 197 327.09375 195.808594 326.847656 194.539062 C 325.761719 188.867188 323.421875 185.5 321.460938 183.585938 C 319.703125 181.863281 320.398438 178.847656 322.78125 178.226562 C 322.800781 178.21875 322.820312 178.214844 322.84375 178.207031 C 325.105469 177.632812 327.125 176.125 327.171875 175.050781 C 327.253906 173.175781 329.023438 170.960938 331.136719 170.671875 C 328.503906 170.351562 326.089844 173.0625 325.988281 175.328125 C 325.941406 176.472656 323.675781 177.351562 321.265625 177.964844 C 319.128906 178.507812 317.65625 180.371094 317.492188 182.5 C 319.617188 183.773438 324.601562 187.792969 325.953125 197.941406 C 326.46875 198.527344 327.011719 199.101562 327.566406 199.613281 C 329.121094 201.035156 333.757812 198.722656 335.222656 196.996094 C 335.621094 196.527344 336.007812 196.050781 336.464844 195.636719 C 338.085938 194.183594 339.996094 192.863281 340.300781 190.660156 C 339.65625 192.03125 338.296875 193.007812 337.101562 194.0625 " fill-opacity="1" fill-rule="nonzero"/><path fill="#f3908a" d="M 317.019531 86.441406 C 302.445312 88.277344 245.652344 101.214844 188.082031 101.144531 C 129.136719 101.070312 69.371094 87.941406 53.246094 85.761719 C 38.351562 83.753906 27.34375 99.0625 29.484375 113.9375 C 31.339844 126.832031 33.265625 142.5625 40.414062 147.042969 C 48.640625 152.195312 61.027344 157.765625 85.890625 161.648438 C 87.167969 161.847656 88.847656 164.042969 90.195312 164.234375 C 91.042969 164.351562 91.542969 162.472656 92.417969 162.589844 C 97.910156 163.316406 103.949219 162.25 110.605469 162.808594 C 112.441406 162.960938 115.1875 167.40625 117.117188 167.542969 C 118.273438 167.628906 118.585938 165.128906 119.773438 165.207031 C 125.492188 165.578125 131.617188 165.886719 138.179688 166.125 C 140.558594 166.210938 142.996094 172.292969 145.492188 172.339844 C 148.1875 172.390625 150.957031 166.402344 153.800781 166.40625 C 163.640625 166.421875 174.882812 159.75 186.078125 166.226562 C 187.101562 166.816406 188.347656 166.78125 189.332031 166.136719 C 200.292969 158.964844 211.835938 166.421875 221.6875 166.40625 C 224.527344 166.402344 227.292969 172.390625 229.992188 172.339844 C 232.488281 172.292969 234.929688 166.210938 237.304688 166.125 C 243.871094 165.886719 249.992188 165.578125 255.710938 165.207031 C 256.898438 165.128906 257.210938 167.628906 258.367188 167.542969 C 260.300781 167.40625 263.042969 162.960938 264.882812 162.808594 C 271.535156 162.25 277.574219 163.316406 283.070312 162.589844 C 283.945312 162.472656 284.441406 164.351562 285.289062 164.234375 C 286.636719 164.042969 288.316406 161.847656 289.597656 161.648438 C 314.457031 157.765625 326.847656 152.195312 335.070312 147.042969 C 340.980469 143.339844 342.773438 131.136719 344.863281 120.632812 C 348.414062 102.808594 335.050781 84.175781 317.019531 86.441406 " fill-opacity="1" fill-rule="nonzero"/><path fill="#ea7f7f" d="M 318.609375 88.863281 C 278.085938 99.539062 188.46875 104.351562 187.605469 104.355469 C 186.746094 104.351562 97.128906 99.539062 56.601562 88.863281 C 41.65625 86.28125 31.730469 108.792969 36.378906 124.261719 C 38.027344 129.75 35.222656 133.882812 37.472656 133.882812 C 37.472656 133.882812 39.5625 129.761719 41.757812 130.234375 C 45.421875 131.023438 49.953125 135.898438 49.789062 130.234375 C 49.621094 124.375 64.054688 115.097656 85.277344 127.703125 C 83.164062 100.03125 180.867188 119.25 187.527344 137.070312 C 193.761719 119.25 292.046875 100.03125 289.933594 127.703125 C 311.160156 115.097656 325.585938 124.375 325.421875 130.234375 C 325.261719 135.898438 329.792969 131.023438 333.453125 130.234375 C 335.648438 129.761719 337.738281 133.882812 337.738281 133.882812 C 339.984375 133.882812 337.1875 129.75 338.832031 124.261719 C 343.480469 108.792969 333.554688 86.28125 318.609375 88.863281 " fill-opacity="1" fill-rule="nonzero"/><path fill="#e87777" d="M 144.105469 171.683594 C 143.714844 166.539062 138.953125 152.59375 131.210938 147.738281 C 122.097656 142.03125 119.148438 149.359375 117.746094 152.613281 C 116.996094 154.355469 117.21875 157.230469 117.460938 161.996094 C 116.226562 159.65625 112.90625 156.339844 107.09375 149.550781 C 99.414062 140.578125 95.183594 144.964844 93.699219 146.683594 C 90.949219 149.875 90.816406 156.914062 90.816406 156.914062 L 90.871094 158.433594 C 88.359375 153.835938 82.910156 147.410156 78.574219 146.613281 C 75.71875 146.089844 75.160156 148.628906 74.535156 153.289062 C 74.53125 153.296875 74.421875 154.726562 74.421875 154.730469 C 71.453125 151.390625 65.65625 147.160156 64.5 146.570312 C 63.246094 145.925781 63.042969 149.367188 62.503906 155.941406 C 62.558594 156.25 61.183594 157.789062 85.890625 161.648438 C 87.167969 161.847656 88.847656 164.042969 90.195312 164.234375 C 91.046875 164.351562 91.542969 162.472656 92.417969 162.589844 C 97.910156 163.316406 103.949219 162.25 110.605469 162.808594 C 112.441406 162.960938 115.1875 167.40625 117.117188 167.542969 C 118.273438 167.628906 118.585938 165.128906 119.773438 165.207031 C 125.492188 165.578125 131.617188 165.886719 138.179688 166.125 C 140.117188 166.195312 142.09375 170.242188 144.113281 171.765625 C 144.109375 171.742188 144.109375 171.707031 144.105469 171.683594 " fill-opacity="1" fill-rule="nonzero"/><path fill="#e87777" d="M 180.699219 151.050781 C 175.058594 144.078125 170.195312 143.339844 167.21875 143.339844 C 164.664062 143.339844 159.363281 144.136719 153.773438 151.050781 C 149.300781 156.582031 147.714844 164.492188 147.144531 171.71875 C 149.320312 170.195312 151.535156 166.402344 153.800781 166.40625 C 163.640625 166.421875 174.882812 159.75 186.078125 166.226562 C 186.238281 166.316406 186.402344 166.390625 186.566406 166.449219 C 185.679688 160.738281 183.984375 155.113281 180.699219 151.050781 " fill-opacity="1" fill-rule="nonzero"/><path fill="#e87777" d="M 312.980469 153.605469 C 312.441406 147.03125 311.046875 146.292969 309.792969 146.9375 C 308.636719 147.527344 304.023438 150.539062 301.054688 153.882812 C 301.050781 153.875 300.953125 151.578125 300.953125 151.570312 C 300.324219 146.910156 299.765625 145.40625 296.914062 145.933594 C 292.574219 146.726562 287.125 153.835938 284.617188 158.433594 L 284.667969 156.914062 C 284.667969 156.914062 284.898438 150.75 282.144531 147.5625 C 280.660156 145.84375 276.203125 139.070312 268.519531 148.046875 C 262.972656 154.523438 259.632812 158.636719 258.230469 161.394531 C 258.121094 156.023438 257.484375 151.464844 257.167969 150.191406 C 256.308594 146.757812 249.429688 141.597656 242.554688 147.617188 C 235.675781 153.632812 231.769531 166.539062 231.378906 171.683594 C 231.378906 171.710938 231.375 171.742188 231.371094 171.765625 C 233.390625 170.242188 235.367188 166.195312 237.304688 166.125 C 243.871094 165.886719 249.992188 165.578125 255.710938 165.207031 C 256.898438 165.128906 257.210938 167.628906 258.367188 167.542969 C 260.300781 167.40625 263.042969 162.960938 264.882812 162.808594 C 271.535156 162.25 277.578125 163.316406 283.070312 162.589844 C 283.945312 162.472656 284.441406 164.351562 285.289062 164.234375 C 286.636719 164.042969 288.316406 161.847656 289.597656 161.648438 C 314.300781 157.789062 313.085938 155.492188 312.980469 153.605469 " fill-opacity="1" fill-rule="nonzero"/><path fill="#e87777" d="M 221.710938 151.050781 C 216.121094 144.136719 210.914062 143.339844 208.308594 143.339844 C 205.398438 143.339844 200.425781 144.078125 194.785156 151.050781 C 191.519531 155.089844 189.824219 160.679688 188.933594 166.359375 C 189.070312 166.292969 189.207031 166.222656 189.332031 166.136719 C 200.292969 158.964844 211.835938 166.421875 221.6875 166.40625 C 223.953125 166.402344 226.171875 170.207031 228.347656 171.722656 C 227.777344 164.496094 226.183594 156.582031 221.710938 151.050781 " fill-opacity="1" fill-rule="nonzero"/><path fill="#ffa6ab" d="M 168.707031 133.925781 C 167.714844 133.875 166.71875 133.871094 165.730469 133.921875 C 162.808594 134.0625 159.363281 134.679688 153.773438 141.597656 C 152.664062 142.96875 151.75 144.492188 150.972656 146.109375 C 151.300781 145.742188 151.644531 145.382812 152.007812 145.035156 C 159.214844 138.121094 163.652344 137.5 167.417969 137.355469 C 168.699219 137.308594 169.980469 137.3125 171.257812 137.359375 C 173.355469 137.441406 175.589844 137.648438 178.355469 138.929688 C 174.085938 134.480469 171.261719 134.046875 168.707031 133.925781 " fill-opacity="1" fill-rule="nonzero"/><path fill="#ffa6ab" d="M 131.210938 140.738281 C 124.335938 134.722656 117.457031 139.878906 116.601562 143.316406 C 116.492188 143.746094 116.414062 144.542969 116.359375 145.625 C 116.390625 145.390625 116.429688 145.183594 116.464844 145.035156 C 117.402344 141.597656 124.886719 136.441406 132.371094 142.457031 C 133.1875 143.113281 133.953125 143.859375 134.6875 144.65625 C 133.628906 143.175781 132.472656 141.839844 131.210938 140.738281 " fill-opacity="1" fill-rule="nonzero"/><path fill="#ffa6ab" d="M 106.105469 141.167969 C 98.421875 132.195312 94.195312 136.585938 92.714844 138.300781 C 92.042969 139.074219 91.539062 140.164062 91.15625 141.371094 C 91.433594 140.863281 91.746094 140.402344 92.105469 140.023438 C 93.679688 138.347656 98.089844 134.136719 106.054688 142.226562 C 106.257812 142.4375 106.472656 142.660156 106.683594 142.890625 C 110.210938 146.667969 110.183594 145.929688 106.105469 141.167969 " fill-opacity="1" fill-rule="nonzero"/><path fill="#ffa6ab" d="M 77.691406 139.347656 C 75.3125 138.910156 74.546875 141.464844 73.996094 145.019531 C 74.636719 142.402344 75.640625 140.703125 77.921875 141.066406 C 80.253906 141.433594 82.859375 143.636719 85.277344 146.355469 C 82.867188 142.894531 80.101562 139.789062 77.691406 139.347656 " fill-opacity="1" fill-rule="nonzero"/><path fill="#ffa6ab" d="M 221.710938 141.597656 C 216.121094 134.679688 212.675781 134.0625 209.757812 133.921875 C 208.765625 133.871094 207.769531 133.875 206.777344 133.925781 C 204.066406 134.054688 201.050781 134.535156 196.316406 139.804688 C 199.882812 137.734375 202.585938 137.457031 205.085938 137.359375 C 206.367188 137.3125 207.648438 137.308594 208.925781 137.355469 C 212.554688 137.496094 216.808594 138.09375 223.550781 144.308594 C 222.996094 143.359375 222.394531 142.445312 221.710938 141.597656 " fill-opacity="1" fill-rule="nonzero"/><path fill="#ffa6ab" d="M 258.023438 142.457031 C 257.167969 139.019531 250.289062 133.863281 243.414062 139.878906 C 242.152344 140.980469 240.996094 142.316406 239.9375 143.796875 C 240.671875 143 241.441406 142.253906 242.253906 141.597656 C 249.738281 135.582031 257.226562 140.738281 258.160156 144.175781 C 258.195312 144.324219 258.234375 144.53125 258.269531 144.761719 C 258.210938 143.6875 258.132812 142.886719 258.023438 142.457031 " fill-opacity="1" fill-rule="nonzero"/><path fill="#ffa6ab" d="M 269.378906 141.167969 C 264.425781 146.957031 264.445312 147.640625 268.859375 142.886719 C 269.121094 142.605469 269.390625 142.316406 269.660156 142.03125 C 275.292969 135.984375 279.214844 136.003906 281.671875 137.183594 C 279.617188 135.421875 275.648438 133.847656 269.378906 141.167969 " fill-opacity="1" fill-rule="nonzero"/><path fill="#ffa6ab" d="M 297.796875 137.628906 C 295.410156 138.066406 292.683594 141.105469 290.292969 144.515625 C 292.710938 141.855469 295.308594 139.707031 297.628906 139.347656 C 299.636719 139.035156 300.664062 140.265625 301.324219 142.296875 C 300.777344 139.277344 299.941406 137.234375 297.796875 137.628906 " fill-opacity="1" fill-rule="nonzero"/><path fill="#ffa6ab" d="M 64.328125 142.105469 C 63.480469 141.53125 63.472656 143.003906 63.472656 143.003906 C 63.636719 142.675781 63.871094 142.523438 64.261719 142.804688 C 65.753906 143.898438 69.890625 146.785156 69.890625 146.785156 C 69.890625 146.785156 65.324219 142.773438 64.328125 142.105469 " fill-opacity="1" fill-rule="nonzero"/><path fill="#ffa6ab" d="M 310.554688 142.105469 C 309.558594 142.773438 304.992188 146.785156 304.992188 146.785156 C 304.992188 146.785156 309.128906 143.898438 310.621094 142.804688 C 311.011719 142.523438 311.246094 142.675781 311.410156 143.003906 C 311.410156 143.003906 311.402344 141.53125 310.554688 142.105469 " fill-opacity="1" fill-rule="nonzero"/><path fill="#ffffff" d="M 180.699219 156.210938 C 175.058594 149.234375 171.703125 148.679688 168.707031 148.535156 C 167.714844 148.488281 166.71875 148.480469 165.730469 148.53125 C 162.808594 148.675781 159.363281 149.296875 153.773438 156.210938 C 146.867188 164.753906 146.824219 178.988281 146.824219 187.585938 C 146.824219 196.179688 152.902344 196.179688 152.902344 196.179688 L 177.863281 198.109375 C 183.085938 198.421875 187.429688 194.367188 187.527344 189.1875 C 187.527344 189.082031 187.527344 188.972656 187.527344 188.863281 C 187.527344 180.265625 187.609375 164.753906 180.699219 156.210938 " fill-opacity="1" fill-rule="nonzero"/><path fill="#ecdcc3" d="M 186.21875 188 C 186.21875 188.105469 186.21875 188.210938 186.214844 188.3125 C 186.125 193.277344 181.960938 197.167969 176.953125 196.863281 L 153.019531 195.019531 C 153.019531 195.019531 147.1875 195.019531 147.1875 186.777344 C 147.1875 178.535156 147.226562 164.882812 153.851562 156.691406 C 159.210938 150.058594 162.515625 149.464844 165.316406 149.328125 C 166.265625 149.28125 167.222656 149.285156 168.171875 149.332031 C 171.042969 149.472656 174.265625 150 179.671875 156.691406 C 186.296875 164.882812 186.21875 179.757812 186.21875 188 Z M 180.699219 156.210938 C 175.058594 149.234375 171.703125 148.679688 168.707031 148.535156 C 167.714844 148.488281 166.71875 148.480469 165.730469 148.53125 C 162.808594 148.675781 159.363281 149.296875 153.773438 156.210938 C 146.867188 164.753906 146.824219 178.988281 146.824219 187.585938 C 146.824219 196.179688 152.902344 196.179688 152.902344 196.179688 L 177.863281 198.109375 C 183.085938 198.421875 187.429688 194.367188 187.527344 189.1875 C 187.527344 189.082031 187.527344 188.972656 187.527344 188.863281 C 187.527344 180.265625 187.609375 164.753906 180.699219 156.210938 " fill-opacity="1" fill-rule="nonzero"/><path fill="#ffffff" d="M 144.105469 176.839844 C 143.714844 171.699219 139.808594 158.789062 132.933594 152.773438 C 126.054688 146.757812 119.179688 151.910156 118.320312 155.351562 C 117.457031 158.789062 118.320312 186.296875 120.039062 188.871094 C 121.03125 190.363281 127.125 195.894531 140.476562 193.519531 C 142.3125 193.191406 143.53125 191.386719 143.996094 189.582031 C 144.753906 186.625 144.363281 180.242188 144.105469 176.839844 " fill-opacity="1" fill-rule="nonzero"/><path fill="#ecdcc3" d="M 144.101562 176.839844 C 143.710938 171.699219 139.804688 158.789062 132.925781 152.773438 C 126.125 146.824219 119.332031 151.796875 118.347656 155.238281 C 119.773438 151.996094 125.957031 147.984375 132.140625 153.394531 C 138.734375 159.164062 142.480469 171.542969 142.859375 176.472656 C 143.105469 179.738281 143.203125 185.714844 142.472656 188.554688 C 142.03125 190.28125 141.136719 191.292969 139.378906 191.605469 C 126.578125 193.886719 120.695312 189.292969 119.742188 187.867188 C 119.683594 187.773438 119.660156 187.789062 119.601562 187.636719 C 119.738281 188.214844 119.882812 188.644531 120.035156 188.871094 C 121.027344 190.363281 127.121094 195.894531 140.472656 193.519531 C 142.308594 193.191406 143.527344 191.386719 143.992188 189.582031 C 144.75 186.625 144.359375 180.242188 144.101562 176.839844 " fill-opacity="1" fill-rule="nonzero"/><path fill="#ffffff" d="M 118.027344 169.101562 C 118.027344 166.527344 114.570312 162.085938 106.964844 153.203125 C 99.28125 144.230469 95.054688 148.617188 93.570312 150.335938 C 90.816406 153.527344 90.816406 162.070312 90.816406 162.070312 L 91.304688 176.1875 C 91.386719 178.546875 93.105469 183.746094 94.753906 185.4375 C 100.519531 191.347656 103.417969 191.882812 105.675781 191.882812 C 108.253906 191.882812 112.460938 189.070312 116.042969 183.394531 C 119.839844 177.375 118.027344 171.683594 118.027344 169.101562 " fill-opacity="1" fill-rule="nonzero"/><path fill="#ecdcc3" d="M 118.140625 170.574219 C 118.082031 170.015625 118.027344 169.515625 118.027344 169.101562 C 118.027344 166.527344 114.570312 162.085938 106.964844 153.203125 C 99.28125 144.230469 95.054688 148.617188 93.570312 150.335938 C 90.816406 153.527344 90.816406 162.070312 90.816406 162.070312 L 90.871094 163.59375 C 90.90625 163.660156 90.9375 163.714844 90.972656 163.78125 L 90.902344 161.804688 C 90.902344 161.804688 90.902344 153.613281 93.542969 150.558594 C 94.964844 148.90625 99.019531 144.703125 106.386719 153.300781 C 113.675781 161.820312 116.140625 166.078125 116.140625 168.554688 C 116.140625 171.023438 117.875 176.488281 114.234375 182.253906 C 110.796875 187.699219 107.625 190.394531 105.148438 190.394531 C 102.988281 190.394531 100.207031 189.878906 94.679688 184.214844 C 94.167969 183.691406 92.976562 182.039062 92.863281 182.15625 C 93.429688 183.535156 94.097656 184.761719 94.753906 185.4375 C 100.519531 191.347656 103.417969 191.882812 105.675781 191.882812 C 108.253906 191.882812 112.460938 189.070312 116.042969 183.394531 C 117.628906 180.878906 118.230469 178.421875 118.398438 176.222656 C 118.292969 174.378906 118.207031 172.464844 118.140625 170.574219 " fill-opacity="1" fill-rule="nonzero"/><path fill="#ffffff" d="M 92.101562 165.878906 C 91.03125 163.945312 83.917969 149.789062 78.546875 148.800781 C 75.695312 148.28125 75.160156 152.066406 74.535156 156.726562 C 73.957031 161.019531 74 165.375 74.539062 169.671875 C 74.695312 170.929688 74.851562 172.027344 74.949219 172.382812 C 75.214844 173.347656 77.3125 183.933594 85.90625 185.542969 C 87.667969 185.710938 93.113281 183.222656 94.179688 180.207031 C 96.085938 174.804688 92.792969 167.125 92.101562 165.878906 " fill-opacity="1" fill-rule="nonzero"/><path fill="#ecdcc3" d="M 91.304688 176.1875 L 90.871094 163.59375 C 88.359375 158.996094 82.886719 149.597656 78.546875 148.800781 C 77.273438 148.566406 76.464844 149.191406 75.902344 150.371094 C 76.4375 149.4375 77.175781 148.953125 78.285156 149.15625 C 83.433594 150.101562 86.703125 162.78125 87.734375 164.636719 C 88.394531 165.824219 91.550781 173.1875 89.722656 178.375 C 88.703125 181.265625 87.566406 184.554688 85.878906 184.394531 C 81.6875 183.609375 76.996094 177.78125 76.839844 177.820312 C 78.410156 181.046875 81.171875 184.65625 85.90625 185.542969 C 87.269531 185.675781 90.824219 184.214844 92.863281 182.15625 C 92 180.058594 91.351562 177.609375 91.304688 176.1875 " fill-opacity="1" fill-rule="nonzero"/><path fill="#ffffff" d="M 49.410156 150.820312 C 49.039062 149.753906 44.402344 138.476562 42.019531 137.675781 C 40.75 137.25 40.394531 145.808594 40.15625 148.265625 C 39.777344 152.160156 42.503906 159.488281 46.316406 160.789062 C 47.105469 160.96875 48.8125 159.9375 49.480469 158.417969 C 50.675781 155.695312 49.644531 151.503906 49.410156 150.820312 " fill-opacity="1" fill-rule="nonzero"/><path fill="#ecdcc3" d="M 48.492188 157.351562 C 48.273438 154.554688 48.265625 151.738281 48.488281 148.9375 C 48.496094 148.824219 48.503906 148.730469 48.511719 148.617188 C 46.96875 145 43.839844 138.289062 42.019531 137.675781 C 41.925781 137.644531 41.839844 137.660156 41.757812 137.71875 C 43.976562 140.265625 46.777344 148.300781 46.90625 149.234375 C 47.097656 150.597656 47.929688 153.550781 47.121094 156.394531 C 46.6875 157.925781 45.695312 159.320312 44.9375 159.148438 C 44.238281 158.90625 43.570312 158.460938 42.964844 157.863281 C 43.910156 159.265625 45.054688 160.359375 46.316406 160.789062 C 46.882812 160.917969 47.914062 160.417969 48.699219 159.570312 C 48.621094 158.832031 48.546875 158.078125 48.492188 157.351562 " fill-opacity="1" fill-rule="nonzero"/><path fill="#ffffff" d="M 76.417969 159.148438 C 75.199219 156.925781 66.601562 148.511719 65.097656 147.738281 C 63.824219 147.085938 63.214844 147.96875 62.667969 154.878906 C 62.445312 157.679688 62.453125 160.492188 62.671875 163.292969 C 62.867188 165.796875 63.179688 168.703125 63.382812 169.8125 C 63.722656 171.671875 64.847656 176.574219 66.675781 177.699219 C 68.894531 179.070312 78.851562 178.273438 78.566406 176.769531 C 78.28125 175.265625 77.632812 161.367188 76.417969 159.148438 " fill-opacity="1" fill-rule="nonzero"/><path fill="#ecdcc3" d="M 74.949219 172.382812 C 74.851562 172.027344 74.695312 170.929688 74.539062 169.671875 C 74 165.382812 73.957031 161.03125 74.53125 156.75 C 71.5625 153.40625 66.253906 148.332031 65.097656 147.738281 C 64.6875 147.53125 64.347656 147.476562 64.054688 147.738281 C 64.207031 147.753906 64.375 147.820312 64.554688 147.910156 C 66 148.652344 71.492188 156.574219 72.65625 158.703125 C 73.824219 160.832031 70.917969 162.507812 74.71875 175.601562 C 75.125 177.011719 69.054688 177.953125 66.925781 176.640625 C 66.230469 176.210938 64.75 174.105469 64.5 174.113281 C 65.050781 175.679688 65.777344 177.148438 66.675781 177.699219 C 68.285156 178.691406 73.949219 178.546875 76.839844 177.820312 C 75.558594 175.191406 75.070312 172.816406 74.949219 172.382812 " fill-opacity="1" fill-rule="nonzero"/><path fill="#ffffff" d="M 62.238281 153.207031 C 61.015625 150.988281 52.421875 142.574219 50.917969 141.800781 C 49.640625 141.148438 49.035156 142.03125 48.488281 148.9375 C 48.265625 151.738281 48.273438 154.554688 48.492188 157.351562 C 48.683594 159.859375 49.09375 162.746094 49.199219 163.871094 C 49.523438 167.3125 50.386719 166.765625 52.960938 168.390625 C 53.726562 168.875 53.960938 172.148438 57.070312 173.1875 C 59.480469 173.992188 66.21875 174.597656 66.03125 173.617188 C 65.746094 172.113281 63.453125 155.429688 62.238281 153.207031 " fill-opacity="1" fill-rule="nonzero"/><path fill="#ecdcc3" d="M 63.382812 169.8125 C 63.179688 168.703125 62.867188 165.796875 62.671875 163.292969 C 62.453125 160.492188 62.445312 157.679688 62.667969 154.878906 C 62.675781 154.753906 62.6875 154.644531 62.695312 154.527344 C 62.53125 153.925781 62.378906 153.464844 62.238281 153.207031 C 61.015625 150.988281 52.421875 142.574219 50.917969 141.800781 C 50.539062 141.605469 50.210938 141.546875 49.9375 141.746094 C 50.144531 141.792969 50.371094 141.902344 50.613281 142.03125 C 52.058594 142.765625 61.238281 152.179688 61.035156 154.601562 C 60.820312 157.179688 60.589844 169.929688 63.023438 172.542969 C 63.675781 173.242188 59.214844 172.128906 56.902344 171.355469 C 53.921875 170.359375 54.277344 167.019531 53.542969 166.550781 C 51.074219 164.996094 49.664062 165.726562 49.355469 162.425781 C 49.300781 161.859375 49.097656 160.464844 48.910156 159.097656 C 48.835938 159.195312 48.785156 159.476562 48.699219 159.570312 C 48.898438 161.378906 49.125 163.074219 49.199219 163.871094 C 49.523438 167.3125 50.386719 166.765625 52.960938 168.390625 C 53.726562 168.875 53.960938 172.148438 57.070312 173.1875 C 58.722656 173.738281 62.410156 174.199219 64.5 174.113281 C 63.933594 172.492188 63.550781 170.757812 63.382812 169.8125 " fill-opacity="1" fill-rule="nonzero"/><path fill="#ffffff" d="M 221.710938 156.210938 C 216.121094 149.296875 212.675781 148.675781 209.757812 148.53125 C 208.765625 148.480469 207.769531 148.488281 206.777344 148.535156 C 203.78125 148.679688 200.425781 149.234375 194.785156 156.210938 C 187.875 164.753906 187.957031 180.265625 187.957031 188.863281 C 187.957031 188.972656 187.957031 189.082031 187.957031 189.1875 C 188.054688 194.367188 192.398438 198.421875 197.621094 198.109375 L 222.582031 196.179688 C 222.582031 196.179688 228.664062 196.179688 228.664062 187.585938 C 228.664062 178.988281 228.617188 164.753906 221.710938 156.210938 " fill-opacity="1" fill-rule="nonzero"/><path fill="#ecdcc3" d="M 222.46875 195.019531 L 198.535156 196.863281 C 193.523438 197.167969 189.359375 193.277344 189.265625 188.3125 C 189.265625 188.210938 189.265625 188.105469 189.265625 188 C 189.265625 179.757812 189.191406 164.882812 195.8125 156.691406 C 201.222656 150 204.441406 149.472656 207.3125 149.332031 C 208.265625 149.285156 209.21875 149.28125 210.167969 149.328125 C 212.972656 149.464844 216.273438 150.058594 221.632812 156.691406 C 228.257812 164.882812 228.296875 178.535156 228.296875 186.777344 C 228.296875 195.019531 222.46875 195.019531 222.46875 195.019531 Z M 221.710938 156.210938 C 216.121094 149.296875 212.675781 148.675781 209.757812 148.53125 C 208.765625 148.480469 207.769531 148.488281 206.777344 148.535156 C 203.78125 148.679688 200.425781 149.234375 194.785156 156.210938 C 187.875 164.753906 187.957031 180.265625 187.957031 188.863281 C 187.957031 188.972656 187.957031 189.082031 187.957031 189.1875 C 188.054688 194.367188 192.398438 198.421875 197.621094 198.109375 L 222.582031 196.179688 C 222.582031 196.179688 228.664062 196.179688 228.664062 187.585938 C 228.664062 178.988281 228.617188 164.753906 221.710938 156.210938 " fill-opacity="1" fill-rule="nonzero"/><path fill="#ffffff" d="M 257.167969 155.351562 C 256.308594 151.910156 249.429688 146.757812 242.554688 152.773438 C 235.675781 158.789062 231.769531 171.699219 231.378906 176.839844 C 231.121094 180.242188 230.730469 186.625 231.488281 189.582031 C 231.957031 191.386719 233.171875 193.191406 235.007812 193.519531 C 248.359375 195.894531 254.453125 190.363281 255.445312 188.871094 C 257.167969 186.296875 258.023438 158.789062 257.167969 155.351562 " fill-opacity="1" fill-rule="nonzero"/><path fill="#ecdcc3" d="M 236.105469 191.605469 C 234.347656 191.292969 233.457031 190.28125 233.011719 188.554688 C 232.28125 185.714844 232.378906 179.738281 232.625 176.472656 C 233.003906 171.542969 236.75 159.164062 243.34375 153.394531 C 249.527344 147.984375 255.710938 151.996094 257.136719 155.238281 C 256.152344 151.796875 249.359375 146.824219 242.558594 152.773438 C 235.679688 158.789062 231.773438 171.699219 231.386719 176.839844 C 231.125 180.242188 230.734375 186.625 231.496094 189.582031 C 231.960938 191.386719 233.175781 193.191406 235.011719 193.519531 C 248.359375 195.894531 254.460938 190.363281 255.449219 188.871094 C 255.601562 188.644531 255.742188 188.214844 255.886719 187.636719 C 255.824219 187.789062 255.800781 187.773438 255.742188 187.867188 C 254.789062 189.292969 248.90625 193.886719 236.105469 191.605469 " fill-opacity="1" fill-rule="nonzero"/><path fill="#ffffff" d="M 281.914062 150.335938 C 280.429688 148.617188 276.203125 144.230469 268.519531 153.203125 C 260.914062 162.085938 257.453125 166.527344 257.453125 169.101562 C 257.453125 171.683594 255.644531 177.375 259.441406 183.394531 C 263.023438 189.070312 267.230469 191.882812 269.808594 191.882812 C 272.066406 191.882812 274.964844 191.347656 280.734375 185.4375 C 282.382812 183.746094 284.101562 178.546875 284.179688 176.1875 L 284.667969 162.070312 C 284.667969 162.070312 284.667969 153.527344 281.914062 150.335938 " fill-opacity="1" fill-rule="nonzero"/><path fill="#ecdcc3" d="M 281.914062 150.335938 C 280.429688 148.617188 276.203125 144.230469 268.519531 153.203125 C 260.914062 162.085938 257.453125 166.527344 257.453125 169.101562 C 257.453125 169.515625 257.40625 170.015625 257.34375 170.574219 C 257.277344 172.464844 257.191406 174.378906 257.082031 176.222656 C 257.253906 178.421875 257.851562 180.878906 259.441406 183.394531 C 263.023438 189.070312 267.230469 191.882812 269.808594 191.882812 C 272.066406 191.882812 274.964844 191.347656 280.734375 185.4375 C 281.386719 184.761719 282.054688 183.535156 282.625 182.15625 C 282.511719 182.039062 281.316406 183.691406 280.808594 184.214844 C 275.277344 189.878906 272.496094 190.394531 270.335938 190.394531 C 267.859375 190.394531 264.6875 187.699219 261.25 182.253906 C 257.613281 176.488281 259.347656 171.023438 259.347656 168.554688 C 259.347656 166.078125 261.808594 161.820312 269.097656 153.300781 C 276.464844 144.703125 280.515625 148.90625 281.941406 150.558594 C 284.582031 153.613281 284.582031 161.804688 284.582031 161.804688 L 284.511719 163.78125 C 284.546875 163.714844 284.578125 163.660156 284.617188 163.59375 L 284.667969 162.070312 C 284.667969 162.070312 284.667969 153.527344 281.914062 150.335938 " fill-opacity="1" fill-rule="nonzero"/><path fill="#ffffff" d="M 300.953125 156.726562 C 300.324219 152.066406 299.789062 148.28125 296.9375 148.800781 C 291.566406 149.789062 284.457031 163.945312 283.382812 165.878906 C 282.691406 167.125 279.402344 174.804688 281.304688 180.207031 C 282.367188 183.222656 287.816406 185.710938 289.578125 185.542969 C 298.171875 183.933594 300.269531 173.347656 300.535156 172.382812 C 300.632812 172.027344 300.789062 170.929688 300.949219 169.671875 C 301.484375 165.375 301.527344 161.019531 300.953125 156.726562 " fill-opacity="1" fill-rule="nonzero"/><path fill="#ecdcc3" d="M 297.203125 149.15625 C 298.308594 148.953125 299.050781 149.4375 299.582031 150.371094 C 299.015625 149.191406 298.210938 148.566406 296.9375 148.800781 C 292.597656 149.597656 287.125 158.996094 284.617188 163.59375 L 284.179688 176.1875 C 284.132812 177.609375 283.484375 180.058594 282.625 182.15625 C 284.660156 184.214844 288.21875 185.675781 289.578125 185.542969 C 294.3125 184.65625 297.074219 181.046875 298.644531 177.820312 C 298.492188 177.78125 293.800781 183.609375 289.605469 184.394531 C 287.917969 184.554688 286.78125 181.265625 285.761719 178.375 C 283.933594 173.1875 287.089844 165.824219 287.753906 164.636719 C 288.78125 162.78125 292.050781 150.101562 297.203125 149.15625 " fill-opacity="1" fill-rule="nonzero"/><path fill="#ffffff" d="M 335.328125 148.265625 C 335.089844 145.808594 334.734375 137.25 333.464844 137.675781 C 331.082031 138.476562 326.445312 149.753906 326.074219 150.820312 C 325.839844 151.503906 324.808594 155.695312 326.007812 158.417969 C 326.671875 159.9375 328.378906 160.96875 329.167969 160.789062 C 332.984375 159.488281 335.703125 152.160156 335.328125 148.265625 " fill-opacity="1" fill-rule="nonzero"/><path fill="#ecdcc3" d="M 328.363281 156.394531 C 327.554688 153.550781 328.390625 150.597656 328.578125 149.234375 C 328.707031 148.300781 331.507812 140.265625 333.726562 137.71875 C 333.644531 137.660156 333.558594 137.644531 333.464844 137.675781 C 331.644531 138.289062 328.519531 145 326.972656 148.617188 C 326.980469 148.730469 326.988281 148.824219 327 148.9375 C 327.222656 151.738281 327.210938 154.554688 326.996094 157.351562 C 326.9375 158.078125 326.867188 158.832031 326.78125 159.570312 C 327.570312 160.417969 328.601562 160.917969 329.167969 160.789062 C 330.429688 160.359375 331.570312 159.265625 332.519531 157.863281 C 331.914062 158.460938 331.246094 158.90625 330.546875 159.148438 C 329.792969 159.320312 328.796875 157.925781 328.363281 156.394531 " fill-opacity="1" fill-rule="nonzero"/><path fill="#ffffff" d="M 312.816406 154.878906 C 312.269531 147.96875 311.664062 147.085938 310.386719 147.738281 C 308.878906 148.511719 300.285156 156.925781 299.070312 159.148438 C 297.847656 161.367188 297.207031 175.265625 296.917969 176.769531 C 296.632812 178.273438 306.59375 179.070312 308.808594 177.699219 C 310.636719 176.574219 311.761719 171.671875 312.101562 169.8125 C 312.308594 168.703125 312.617188 165.796875 312.8125 163.292969 C 313.03125 160.492188 313.042969 157.679688 312.816406 154.878906 " fill-opacity="1" fill-rule="nonzero"/><path fill="#ecdcc3" d="M 308.558594 176.640625 C 306.429688 177.953125 300.355469 177.011719 300.765625 175.601562 C 304.566406 162.507812 301.660156 160.832031 302.828125 158.703125 C 303.996094 156.574219 309.488281 148.652344 310.933594 147.910156 C 311.109375 147.820312 311.277344 147.753906 311.433594 147.738281 C 311.140625 147.476562 310.796875 147.53125 310.386719 147.738281 C 309.230469 148.332031 303.921875 153.40625 300.953125 156.75 C 301.527344 161.03125 301.484375 165.382812 300.949219 169.671875 C 300.789062 170.929688 300.632812 172.027344 300.535156 172.382812 C 300.414062 172.816406 299.925781 175.191406 298.644531 177.820312 C 301.535156 178.546875 307.199219 178.691406 308.808594 177.699219 C 309.707031 177.148438 310.433594 175.679688 310.984375 174.113281 C 310.734375 174.105469 309.25 176.210938 308.558594 176.640625 " fill-opacity="1" fill-rule="nonzero"/><path fill="#ffffff" d="M 327 148.9375 C 326.449219 142.03125 325.84375 141.148438 324.566406 141.800781 C 323.0625 142.574219 314.46875 150.988281 313.25 153.207031 C 312.03125 155.429688 309.738281 172.113281 309.453125 173.617188 C 309.269531 174.597656 316.007812 173.992188 318.414062 173.1875 C 321.523438 172.148438 321.757812 168.875 322.527344 168.390625 C 325.097656 166.765625 325.960938 167.3125 326.285156 163.871094 C 326.390625 162.746094 326.800781 159.859375 326.996094 157.351562 C 327.210938 154.554688 327.222656 151.738281 327 148.9375 " fill-opacity="1" fill-rule="nonzero"/><path fill="#ecdcc3" d="M 326.574219 159.097656 C 326.386719 160.464844 326.183594 161.859375 326.128906 162.425781 C 325.820312 165.726562 324.410156 164.996094 321.941406 166.550781 C 321.207031 167.019531 321.566406 170.359375 318.582031 171.355469 C 316.269531 172.128906 311.8125 173.242188 312.464844 172.542969 C 314.894531 169.929688 314.667969 157.179688 314.449219 154.601562 C 314.246094 152.179688 323.425781 142.765625 324.871094 142.03125 C 325.113281 141.902344 325.339844 141.792969 325.550781 141.746094 C 325.273438 141.546875 324.945312 141.605469 324.566406 141.800781 C 323.0625 142.574219 314.46875 150.988281 313.25 153.207031 C 313.109375 153.464844 312.953125 153.925781 312.785156 154.527344 C 312.796875 154.644531 312.808594 154.753906 312.816406 154.878906 C 313.042969 157.679688 313.03125 160.492188 312.8125 163.292969 C 312.617188 165.796875 312.308594 168.703125 312.101562 169.8125 C 311.929688 170.757812 311.554688 172.492188 310.984375 174.113281 C 313.078125 174.199219 316.761719 173.738281 318.414062 173.1875 C 321.523438 172.148438 321.757812 168.875 322.527344 168.390625 C 325.097656 166.765625 325.960938 167.3125 326.285156 163.871094 C 326.359375 163.074219 326.585938 161.378906 326.78125 159.570312 C 326.699219 159.476562 326.652344 159.195312 326.574219 159.097656 " fill-opacity="1" fill-rule="nonzero"/></svg>