<svg xmlns="http://www.w3.org/2000/svg" xmlns:xlink="http://www.w3.org/1999/xlink" width="500" zoomAndPan="magnify" viewBox="0 0 375 374.999991" height="500" preserveAspectRatio="xMidYMid meet" version="1.0"><defs><clipPath id="1794581407"><path d="M 7.769531 7.769531 L 367.019531 7.769531 L 367.019531 367.019531 L 7.769531 367.019531 Z M 7.769531 7.769531 " clip-rule="nonzero"/></clipPath></defs><g clip-path="url(#1794581407)"><path fill="#88ccf1" d="M 367.070312 187.421875 C 367.070312 286.636719 286.636719 367.070312 187.421875 367.070312 C 88.199219 367.070312 7.769531 286.636719 7.769531 187.421875 C 7.769531 88.203125 88.199219 7.769531 187.421875 7.769531 C 286.636719 7.769531 367.070312 88.203125 367.070312 187.421875 " fill-opacity="1" fill-rule="nonzero"/></g><path fill="#ffffff" d="M 265.148438 137.324219 L 109.6875 137.324219 L 109.6875 116.597656 L 265.148438 116.597656 L 265.148438 137.324219 " fill-opacity="1" fill-rule="nonzero"/><path fill="#ffffff" d="M 265.148438 197.785156 L 109.6875 197.785156 L 109.6875 177.054688 L 265.148438 177.054688 L 265.148438 197.785156 " fill-opacity="1" fill-rule="nonzero"/><path fill="#ffffff" d="M 265.148438 258.242188 L 109.6875 258.242188 L 109.6875 237.515625 L 265.148438 237.515625 L 265.148438 258.242188 " fill-opacity="1" fill-rule="nonzero"/></svg>