<svg xmlns="http://www.w3.org/2000/svg" xmlns:xlink="http://www.w3.org/1999/xlink" width="40" zoomAndPan="magnify" viewBox="0 0 30 30.000001" height="40" preserveAspectRatio="xMidYMid meet" version="1.0"><defs><clipPath id="9bcaf27fc6"><path d="M 2 0 L 27.882812 0 L 27.882812 28.925781 L 2 28.925781 Z M 2 0 " clip-rule="nonzero"/></clipPath><clipPath id="d540fafbbc"><path d="M 18 0 L 27.882812 0 L 27.882812 28.925781 L 18 28.925781 Z M 18 0 " clip-rule="nonzero"/></clipPath><clipPath id="7f31dd4cb7"><path d="M 7 18 L 16 18 L 16 28.925781 L 7 28.925781 Z M 7 18 " clip-rule="nonzero"/></clipPath></defs><g clip-path="url(#9bcaf27fc6)"><path fill="#f2f2f2" d="M 26.75 10.101562 C 27.867188 7.355469 26.488281 3.113281 24.046875 1.6875 C 23.121094 1.144531 20.203125 -0.828125 15.546875 1.09375 C 15.054688 1.296875 14.492188 1.296875 14 1.09375 C 9.339844 -0.832031 6.425781 1.136719 5.5 1.6875 C 3.144531 3.066406 1.769531 7.035156 2.734375 9.738281 C 3.367188 11.519531 5.664062 14.558594 5.75 16.074219 C 5.777344 16.617188 5.71875 17.113281 5.71875 17.113281 C 5.59375 17.746094 6.339844 28.597656 8.28125 28.828125 C 9.0625 28.917969 9.738281 28.269531 10.261719 27.773438 C 11.796875 26.304688 11.429688 24.765625 12.484375 22.453125 C 12.726562 21.9375 13.082031 21.261719 13.660156 20.503906 C 14.210938 19.789062 15.335938 19.789062 15.886719 20.503906 C 16.464844 21.261719 16.820312 21.9375 17.0625 22.453125 C 18.117188 24.765625 17.75 26.304688 19.285156 27.773438 C 19.808594 28.269531 20.484375 28.925781 21.265625 28.828125 C 23.207031 28.597656 23.90625 17.703125 23.828125 17.113281 C 23.828125 17.113281 23.761719 16.652344 23.796875 16.074219 C 23.882812 14.59375 25.996094 11.945312 26.75 10.101562 Z M 26.75 10.101562 " fill-opacity="1" fill-rule="nonzero"/></g><g clip-path="url(#d540fafbbc)"><path fill="#c8d8e8" d="M 23.796875 16.074219 C 23.761719 16.644531 23.828125 17.113281 23.828125 17.113281 C 23.90625 17.710938 23.207031 28.597656 21.265625 28.828125 C 20.703125 28.894531 20.195312 28.574219 19.757812 28.207031 C 21.160156 25.851562 21.546875 16.652344 21.574219 16.074219 C 21.660156 14.59375 23.769531 11.945312 24.523438 10.101562 C 25.644531 7.355469 24.261719 3.113281 21.820312 1.6875 C 21.285156 1.375 20.097656 0.585938 18.292969 0.34375 C 21.363281 -0.0546875 23.320312 1.261719 24.046875 1.6875 C 26.488281 3.121094 27.867188 7.355469 26.75 10.101562 C 25.996094 11.945312 23.882812 14.59375 23.796875 16.074219 Z M 23.796875 16.074219 " fill-opacity="0.29" fill-rule="nonzero"/></g><path fill="#ccdcea" d="M 17.78125 1.324219 C 17.640625 2.0625 16.351562 2.640625 14.773438 2.640625 C 13.203125 2.640625 11.90625 2.0625 11.765625 1.324219 C 12.414062 1.707031 13.519531 1.964844 14.773438 1.964844 C 16.027344 1.964844 17.125 1.714844 17.78125 1.324219 Z M 17.78125 1.324219 " fill-opacity="1" fill-rule="nonzero"/><g clip-path="url(#7f31dd4cb7)"><path fill="#c8d8e8" d="M 15.570312 20.199219 C 14.976562 19.800781 14.117188 19.90625 13.667969 20.503906 C 13.089844 21.265625 12.730469 21.9375 12.492188 22.453125 C 11.4375 24.765625 11.800781 26.304688 10.269531 27.773438 C 9.746094 28.269531 9.070312 28.925781 8.289062 28.828125 C 7.8125 28.769531 7.410156 28.074219 7.070312 27.042969 C 7.875 26.621094 9.128906 26.328125 9.878906 24.953125 C 10.632812 23.574219 9.964844 22.789062 10.945312 21.039062 C 11.339844 20.34375 12 19.148438 13.167969 19 C 14.070312 18.894531 14.992188 19.445312 15.570312 20.199219 Z M 15.570312 20.199219 " fill-opacity="0.29" fill-rule="nonzero"/></g><path fill="#ffffff" d="M 9.304688 2.347656 C 9.273438 2.3125 9.246094 2.277344 9.210938 2.25 C 8.972656 2.054688 8.597656 2.085938 8.269531 2.152344 C 6.707031 2.460938 4.375 3.527344 4.066406 5.265625 C 3.96875 5.824219 4.234375 6.4375 4.785156 6.554688 C 5.109375 6.625 5.460938 6.519531 5.777344 6.386719 C 7.105469 5.851562 8.296875 4.890625 9.078125 3.699219 C 9.234375 3.46875 9.367188 3.21875 9.414062 2.960938 C 9.457031 2.746094 9.421875 2.515625 9.304688 2.347656 Z M 9.304688 2.347656 " fill-opacity="0.39" fill-rule="nonzero"/><path fill="#bababa" d="M 19.0625 17.042969 L 10.386719 17.042969 C 9.5 17.042969 8.78125 16.332031 8.78125 15.457031 L 8.78125 8.566406 C 8.78125 7.691406 9.5 6.980469 10.386719 6.980469 L 19.066406 6.980469 C 19.953125 6.980469 20.671875 7.691406 20.671875 8.566406 L 20.671875 15.457031 C 20.664062 16.332031 19.949219 17.042969 19.0625 17.042969 Z M 19.0625 17.042969 " fill-opacity="1" fill-rule="nonzero"/><path fill="#c9c9c9" d="M 25.296875 12.761719 L 4.304688 12.761719 L 4.253906 12.675781 L 3.832031 11.929688 L 3.515625 11.375 L 3.46875 11.289062 L 3.460938 11.277344 L 26.15625 11.277344 Z M 25.296875 12.761719 " fill-opacity="1" fill-rule="nonzero"/><path fill="#dddddd" d="M 26.113281 11.375 L 3.515625 11.375 L 3.820312 11.910156 L 3.832031 11.929688 L 25.792969 11.929688 Z M 26.113281 11.375 " fill-opacity="1" fill-rule="nonzero"/><path fill="#f2a54e" d="M 17.617188 16.214844 L 11.835938 16.214844 C 9.523438 16.214844 7.636719 14.347656 7.636719 12.058594 L 7.636719 11.980469 C 7.636719 9.6875 9.523438 7.824219 11.835938 7.824219 L 17.617188 7.824219 C 19.933594 7.824219 21.820312 9.6875 21.820312 11.980469 L 21.820312 12.058594 C 21.820312 14.347656 19.933594 16.214844 17.617188 16.214844 Z M 11.832031 8.992188 C 10.167969 8.992188 8.808594 10.328125 8.808594 11.980469 L 8.808594 12.058594 C 8.808594 13.699219 10.164062 15.042969 11.832031 15.042969 L 17.609375 15.042969 C 19.273438 15.042969 20.628906 13.707031 20.628906 12.058594 L 20.628906 11.980469 C 20.628906 10.335938 19.277344 8.992188 17.609375 8.992188 Z M 11.832031 8.992188 " fill-opacity="1" fill-rule="nonzero"/><path fill="#ced1d6" d="M 11.824219 11.472656 L 10.992188 11.472656 C 10.308594 11.472656 9.761719 10.921875 9.761719 10.253906 L 9.761719 8.050781 C 9.761719 7.378906 10.316406 6.832031 10.992188 6.832031 L 11.824219 6.832031 C 12.507812 6.832031 13.054688 7.382812 13.054688 8.050781 L 13.054688 10.253906 C 13.054688 10.921875 12.507812 11.472656 11.824219 11.472656 Z M 11.824219 11.472656 " fill-opacity="1" fill-rule="nonzero"/><path fill="#000000" d="M 13.054688 8.046875 L 13.054688 10.246094 C 13.054688 10.921875 12.5 11.464844 11.824219 11.464844 L 10.992188 11.464844 C 10.464844 11.464844 10.015625 11.136719 9.839844 10.671875 C 10.0625 10.878906 10.359375 11.011719 10.691406 11.011719 L 11.519531 11.011719 C 12.203125 11.011719 12.753906 10.460938 12.753906 9.792969 L 12.753906 7.59375 C 12.753906 7.441406 12.726562 7.300781 12.675781 7.160156 C 12.90625 7.382812 13.054688 7.699219 13.054688 8.046875 Z M 13.054688 8.046875 " fill-opacity="0.05" fill-rule="nonzero"/><path fill="#ced1d6" d="M 18.457031 11.472656 L 17.625 11.472656 C 16.941406 11.472656 16.394531 10.921875 16.394531 10.253906 L 16.394531 8.050781 C 16.394531 7.378906 16.949219 6.832031 17.625 6.832031 L 18.457031 6.832031 C 19.136719 6.832031 19.6875 7.382812 19.6875 8.050781 L 19.6875 10.253906 C 19.6875 10.921875 19.136719 11.472656 18.457031 11.472656 Z M 18.457031 11.472656 " fill-opacity="1" fill-rule="nonzero"/><path fill="#000000" d="M 19.6875 8.046875 L 19.6875 10.246094 C 19.6875 10.921875 19.132812 11.464844 18.457031 11.464844 L 17.625 11.464844 C 17.097656 11.464844 16.644531 11.136719 16.46875 10.671875 C 16.695312 10.878906 16.992188 11.011719 17.320312 11.011719 L 18.152344 11.011719 C 18.835938 11.011719 19.382812 10.460938 19.382812 9.792969 L 19.382812 7.59375 C 19.382812 7.441406 19.355469 7.300781 19.308594 7.160156 C 19.539062 7.382812 19.6875 7.699219 19.6875 8.046875 Z M 19.6875 8.046875 " fill-opacity="0.05" fill-rule="nonzero"/><path fill="#ced1d6" d="M 11.824219 17.203125 L 10.992188 17.203125 C 10.308594 17.203125 9.761719 16.652344 9.761719 15.984375 L 9.761719 13.785156 C 9.761719 13.109375 10.316406 12.566406 10.992188 12.566406 L 11.824219 12.566406 C 12.507812 12.566406 13.054688 13.117188 13.054688 13.785156 L 13.054688 15.984375 C 13.054688 16.660156 12.507812 17.203125 11.824219 17.203125 Z M 11.824219 17.203125 " fill-opacity="1" fill-rule="nonzero"/><path fill="#000000" d="M 13.054688 13.785156 L 13.054688 15.984375 C 13.054688 16.660156 12.5 17.203125 11.824219 17.203125 L 10.992188 17.203125 C 10.464844 17.203125 10.015625 16.875 9.839844 16.410156 C 10.0625 16.617188 10.359375 16.75 10.691406 16.75 L 11.519531 16.75 C 12.203125 16.75 12.753906 16.199219 12.753906 15.53125 L 12.753906 13.332031 C 12.753906 13.179688 12.726562 13.039062 12.675781 12.898438 C 12.90625 13.121094 13.054688 13.4375 13.054688 13.785156 Z M 13.054688 13.785156 " fill-opacity="0.05" fill-rule="nonzero"/><path fill="#ced1d6" d="M 18.457031 17.203125 L 17.625 17.203125 C 16.941406 17.203125 16.394531 16.652344 16.394531 15.984375 L 16.394531 13.785156 C 16.394531 13.109375 16.949219 12.566406 17.625 12.566406 L 18.457031 12.566406 C 19.136719 12.566406 19.6875 13.117188 19.6875 13.785156 L 19.6875 15.984375 C 19.6875 16.660156 19.136719 17.203125 18.457031 17.203125 Z M 18.457031 17.203125 " fill-opacity="1" fill-rule="nonzero"/><path fill="#000000" d="M 19.6875 13.785156 L 19.6875 15.984375 C 19.6875 16.660156 19.132812 17.203125 18.457031 17.203125 L 17.625 17.203125 C 17.097656 17.203125 16.644531 16.875 16.46875 16.410156 C 16.695312 16.617188 16.992188 16.75 17.320312 16.75 L 18.152344 16.75 C 18.835938 16.75 19.382812 16.199219 19.382812 15.53125 L 19.382812 13.332031 C 19.382812 13.179688 19.355469 13.039062 19.308594 12.898438 C 19.539062 13.121094 19.6875 13.4375 19.6875 13.785156 Z M 19.6875 13.785156 " fill-opacity="0.05" fill-rule="nonzero"/></svg>