<svg xmlns="http://www.w3.org/2000/svg" xmlns:xlink="http://www.w3.org/1999/xlink" width="500" zoomAndPan="magnify" viewBox="0 0 375 374.999991" height="500" preserveAspectRatio="xMidYMid meet" version="1.0"><path fill="#8bc94d" d="M 187.5 -0.957031 C 84.476562 -0.957031 0.957031 82.5625 0.957031 185.585938 C 0.957031 219.800781 10.179688 251.898438 26.28125 279.484375 L 1.695312 353.242188 C -0.0273438 358.398438 1.316406 364.085938 5.160156 367.925781 C 9.003906 371.769531 14.6875 373.113281 19.84375 371.394531 L 93.601562 346.808594 C 121.191406 362.90625 153.285156 372.128906 187.5 372.128906 C 290.527344 372.128906 374.042969 288.613281 374.042969 185.585938 C 374.042969 82.5625 290.527344 -0.957031 187.5 -0.957031 Z M 187.5 -0.957031 " fill-opacity="1" fill-rule="nonzero"/><path fill="#eceff1" d="M 187.5 27.742188 C 100.324219 27.742188 29.65625 98.410156 29.65625 185.585938 C 29.65625 216.667969 38.625 245.613281 54.113281 270.023438 C 56.425781 273.664062 56.972656 278.15625 55.609375 282.25 L 37.996094 335.089844 L 90.839844 317.476562 C 94.929688 316.113281 99.421875 316.664062 103.0625 318.972656 C 127.472656 334.460938 156.417969 343.429688 187.5 343.429688 C 274.675781 343.429688 345.34375 272.761719 345.34375 185.585938 C 345.34375 98.410156 274.675781 27.742188 187.5 27.742188 Z M 0.957031 185.585938 C 0.957031 82.5625 84.476562 -0.957031 187.5 -0.957031 C 290.527344 -0.957031 374.042969 82.5625 374.042969 185.585938 C 374.042969 288.613281 290.527344 372.128906 187.5 372.128906 C 153.285156 372.128906 121.191406 362.90625 93.601562 346.808594 L 19.84375 371.394531 C 14.6875 373.113281 9.003906 371.769531 5.160156 367.925781 C 1.316406 364.085938 -0.0273438 358.398438 1.695312 353.242188 L 26.28125 279.484375 C 10.179688 251.898438 0.957031 219.800781 0.957031 185.585938 Z M 0.957031 185.585938 " fill-opacity="1" fill-rule="evenodd"/><path fill="#eceff1" d="M 125.320312 89.921875 C 125.320312 82 131.742188 75.574219 139.667969 75.574219 L 206.632812 75.574219 C 240.972656 75.574219 268.8125 103.414062 268.8125 137.753906 C 268.8125 172.097656 240.972656 199.9375 206.632812 199.9375 L 139.667969 199.9375 C 131.742188 199.9375 125.320312 193.511719 125.320312 185.585938 Z M 154.019531 104.273438 L 154.019531 171.238281 L 206.632812 171.238281 C 225.125 171.238281 240.113281 156.246094 240.113281 137.753906 C 240.113281 119.261719 225.125 104.273438 206.632812 104.273438 Z M 154.019531 104.273438 " fill-opacity="1" fill-rule="evenodd"/><path fill="#eceff1" d="M 125.320312 185.585938 C 125.320312 177.660156 131.742188 171.238281 139.667969 171.238281 L 206.632812 171.238281 C 240.972656 171.238281 268.8125 199.078125 268.8125 233.417969 C 268.8125 267.757812 240.972656 295.597656 206.632812 295.597656 L 139.667969 295.597656 C 131.742188 295.597656 125.320312 289.175781 125.320312 281.25 Z M 154.019531 199.9375 L 154.019531 266.902344 L 206.632812 266.902344 C 225.125 266.902344 240.113281 251.910156 240.113281 233.417969 C 240.113281 214.925781 225.125 199.9375 206.632812 199.9375 Z M 154.019531 199.9375 " fill-opacity="1" fill-rule="evenodd"/><path fill="#8bc94d" d="M 187.5 -0.957031 L 187.5 372.128906 C 153.285156 372.128906 121.191406 362.90625 93.601562 346.808594 L 19.84375 371.394531 C 14.6875 373.113281 9.003906 371.769531 5.160156 367.925781 C 1.316406 364.085938 -0.0273438 358.398438 1.695312 353.242188 L 26.28125 279.484375 C 10.179688 251.898438 0.957031 219.800781 0.957031 185.585938 C 0.957031 82.5625 84.476562 -0.957031 187.5 -0.957031 Z M 187.5 -0.957031 " fill-opacity="1" fill-rule="evenodd"/><path fill="#d4d6d8" d="M 187.5 171.238281 L 139.667969 171.238281 C 131.742188 171.238281 125.320312 177.660156 125.320312 185.585938 L 125.320312 281.25 C 125.320312 289.175781 131.742188 295.597656 139.667969 295.597656 L 187.5 295.597656 L 187.5 266.902344 L 154.019531 266.902344 L 154.019531 199.9375 L 187.5 199.9375 Z M 187.5 171.238281 " fill-opacity="1" fill-rule="evenodd"/><path fill="#d4d6d8" d="M 187.5 75.574219 L 139.667969 75.574219 C 131.742188 75.574219 125.320312 82 125.320312 89.921875 L 125.320312 185.585938 C 125.320312 193.511719 131.742188 199.9375 139.667969 199.9375 L 187.5 199.9375 L 187.5 171.238281 L 154.019531 171.238281 L 154.019531 104.273438 L 187.5 104.273438 Z M 187.5 75.574219 " fill-opacity="1" fill-rule="evenodd"/><path fill="#d4d6d8" d="M 29.65625 185.585938 C 29.65625 98.410156 100.324219 27.742188 187.5 27.742188 L 187.5 -0.957031 C 84.476562 -0.957031 0.957031 82.5625 0.957031 185.585938 C 0.957031 219.800781 10.179688 251.898438 26.277344 279.484375 L 1.695312 353.242188 C -0.0273438 358.398438 1.316406 364.085938 5.160156 367.925781 C 5.640625 368.40625 6.148438 368.847656 6.683594 369.25 C 10.414062 372.058594 15.332031 372.898438 19.84375 371.394531 M 19.84375 371.394531 L 93.601562 346.808594 C 97.050781 348.820312 100.570312 350.722656 104.15625 352.515625 C 129.246094 365.066406 157.5625 372.128906 187.5 372.128906 L 187.5 343.429688 C 156.417969 343.429688 127.472656 334.460938 103.0625 318.972656 C 99.421875 316.664062 94.929688 316.113281 90.839844 317.476562 L 37.996094 335.089844 L 55.609375 282.25 C 56.972656 278.15625 56.421875 273.664062 54.113281 270.023438 C 38.625 245.613281 29.65625 216.667969 29.65625 185.585938 " fill-opacity="1" fill-rule="evenodd"/></svg>