<svg xmlns="http://www.w3.org/2000/svg" xmlns:xlink="http://www.w3.org/1999/xlink" width="500" zoomAndPan="magnify" viewBox="0 0 375 374.999991" height="500" preserveAspectRatio="xMidYMid meet" version="1.0"><defs><clipPath id="44f92d3431"><path d="M 53.085938 37.5 L 321.585938 37.5 L 321.585938 306 L 53.085938 306 Z M 53.085938 37.5 " clip-rule="nonzero"/></clipPath><clipPath id="148d6687f6"><path d="M 71.28125 55.691406 L 303.78125 55.691406 L 303.78125 288.191406 L 71.28125 288.191406 Z M 71.28125 55.691406 " clip-rule="nonzero"/></clipPath><clipPath id="4074096725"><path d="M 187 97 L 244.21875 97 L 244.21875 246.914062 L 187 246.914062 Z M 187 97 " clip-rule="nonzero"/></clipPath></defs><g clip-path="url(#44f92d3431)"><path fill="#ff3131" d="M 187.335938 306 C 113.167969 306 53.085938 245.503906 53.085938 171.75 C 53.085938 97.996094 113.167969 37.5 187.335938 37.5 C 261.507812 37.5 321.585938 97.582031 321.585938 171.75 C 321.585938 245.917969 261.09375 306 187.335938 306 Z M 187.335938 45.785156 C 117.726562 45.785156 61.375 102.140625 61.375 171.75 C 61.375 241.359375 117.726562 297.714844 187.335938 297.714844 C 256.949219 297.714844 313.300781 241.359375 313.300781 171.75 C 313.300781 102.140625 256.535156 45.785156 187.335938 45.785156 Z M 187.335938 45.785156 " fill-opacity="1" fill-rule="nonzero"/></g><g clip-path="url(#148d6687f6)"><path fill="#ff3131" d="M 187.53125 288.191406 C 123.449219 288.191406 71.28125 236.023438 71.28125 171.941406 C 71.28125 107.863281 123.449219 55.691406 187.53125 55.691406 C 251.613281 55.691406 303.78125 107.863281 303.78125 171.941406 C 303.78125 236.023438 251.613281 288.191406 187.53125 288.191406 Z M 187.53125 57.410156 C 124.367188 57.410156 73 108.777344 73 171.941406 C 73 235.109375 124.367188 286.476562 187.53125 286.476562 C 250.695312 286.476562 302.0625 235.109375 302.0625 171.941406 C 302.0625 108.777344 250.695312 57.410156 187.53125 57.410156 Z M 187.53125 57.410156 " fill-opacity="1" fill-rule="nonzero"/></g><path fill="#000000" d="M 197.367188 190.933594 C 197.332031 191.125 196.363281 191.023438 194.59375 191.082031 C 192.859375 191.171875 190.175781 191.480469 187.660156 193.46875 C 185.117188 195.40625 183.085938 199.011719 181.71875 203.546875 C 180.277344 208.097656 179.601562 213.519531 178.75 219.683594 C 177.808594 225.761719 176.804688 232.9375 172.375 239.59375 C 171.234375 241.226562 169.835938 242.863281 167.847656 244.078125 C 166.019531 245.296875 162.898438 246.050781 160.367188 244.746094 C 155.574219 242.121094 154.296875 237.445312 152.882812 233.703125 C 150.09375 225.960938 147.847656 217.28125 146.996094 208.289062 C 146.011719 199.316406 145.6875 190.320312 142.667969 181.714844 C 136.800781 163.933594 130.984375 146.234375 131.851562 129.132812 C 132.417969 120.6875 134.621094 112.382812 140.292969 106.390625 C 143.164062 103.433594 147.226562 101.792969 150.945312 101.617188 C 154.691406 101.378906 158.097656 102.113281 161.164062 103.023438 C 167.304688 104.914062 172.332031 107.503906 176.75 109.660156 C 181.152344 111.855469 184.90625 113.738281 188.046875 115.066406 C 194.3125 117.84375 198.128906 117.945312 198.136719 118.289062 C 198.210938 118.636719 194.0625 119.191406 187.363281 116.878906 C 180.640625 114.890625 171.71875 109.769531 160.214844 106.410156 C 154.582031 104.863281 147.613281 104.457031 143.238281 109.285156 C 138.890625 114.03125 136.757812 121.667969 136.4375 129.367188 C 135.847656 145.1875 141.5 162.367188 147.40625 180.179688 C 150.65625 189.472656 150.957031 199.136719 151.851562 207.769531 C 152.617188 216.5 154.613281 224.550781 157.226562 232.214844 C 157.890625 234.175781 158.464844 235.925781 159.304688 237.464844 C 160.128906 238.980469 161.195312 240.304688 162.253906 240.796875 C 164.117188 241.929688 167.203125 239.847656 168.996094 237.214844 C 172.871094 231.753906 174.160156 225.089844 175.269531 219.117188 C 176.328125 213.09375 177.289062 207.402344 179.078125 202.660156 C 180.785156 197.921875 183.320312 193.933594 186.53125 191.890625 C 189.726562 189.804688 192.828125 189.847656 194.640625 190.082031 C 196.507812 190.355469 197.398438 190.789062 197.367188 190.933594 " fill-opacity="1" fill-rule="nonzero"/><g clip-path="url(#4074096725)"><path fill="#000000" d="M 190.5625 189.566406 C 190.496094 189.542969 190.59375 188.433594 192.261719 187.222656 C 193.105469 186.617188 194.613281 186.429688 196.003906 187.035156 C 197.382812 187.621094 198.671875 188.691406 199.839844 190.078125 C 202.207031 192.804688 204.035156 197.042969 204.839844 201.949219 C 205.683594 206.824219 206.257812 212.296875 207.199219 218.28125 C 207.671875 221.265625 208.265625 224.351562 209.027344 227.519531 C 209.929688 230.558594 210.738281 234.257812 211.765625 237.351562 C 212.3125 238.917969 213.015625 240.464844 213.902344 241.472656 C 214.855469 242.46875 215.472656 242.648438 216.71875 242.273438 C 219.339844 241.417969 221.132812 238.300781 222.496094 234.628906 C 225.425781 227.40625 226.863281 219.261719 227.363281 210.636719 C 227.914062 201.980469 227.941406 192.71875 229.71875 183.269531 C 233.386719 164.71875 239.40625 147.9375 239.605469 132.164062 C 239.757812 124.355469 238.460938 116.984375 235.609375 110.738281 C 233.136719 104.472656 227.835938 100.226562 222.4375 100.820312 C 216.984375 101.171875 213.128906 105.511719 209.136719 108.375 C 205.253906 111.371094 201.390625 113.609375 197.949219 114.5625 C 191.050781 116.421875 187.15625 115.425781 187.183594 115.28125 C 187.121094 114.769531 191.105469 115.039062 197.320312 112.75 C 200.417969 111.59375 203.773438 109.351562 207.414062 106.226562 C 209.285156 104.667969 211.101562 102.976562 213.367188 101.125 C 215.6875 99.339844 218.617188 97.757812 222.089844 97.355469 C 225.539062 96.910156 229.386719 97.914062 232.410156 100.152344 C 235.460938 102.347656 237.773438 105.597656 239.320312 109.027344 C 242.621094 115.800781 244.191406 123.886719 244.144531 132.210938 C 244.152344 149.003906 238.070312 166.226562 234.566406 184.167969 C 232.878906 193.070312 232.804688 202.097656 232.179688 210.957031 C 231.605469 219.851562 229.980469 228.617188 226.699219 236.339844 C 225.222656 239.988281 223.019531 244.734375 218.050781 246.390625 C 216.859375 246.785156 215.351562 246.902344 213.953125 246.46875 C 212.558594 246.027344 211.464844 245.125 210.707031 244.222656 C 209.199219 242.371094 208.496094 240.460938 207.886719 238.644531 C 206.757812 234.882812 206.210938 231.769531 205.324219 228.382812 C 204.625 225.042969 204.117188 221.828125 203.75 218.761719 C 202.296875 206.542969 202.585938 196.460938 198.324219 191.25 C 196.507812 188.5625 194.148438 187.3125 192.71875 188.101562 C 191.273438 188.769531 190.738281 189.730469 190.5625 189.566406 " fill-opacity="1" fill-rule="nonzero"/></g><path fill="#248fb5" d="M 158.039062 111.785156 C 158.019531 111.449219 162.183594 111.433594 167.613281 114.777344 C 173.101562 117.851562 178.707031 124.710938 187.023438 127.625 C 191.140625 129.015625 195.519531 129.128906 199.398438 128.941406 C 203.28125 128.710938 206.726562 127.949219 209.367188 126.796875 C 214.816406 124.507812 215.945312 120.503906 216.355469 120.726562 C 216.515625 120.769531 216.53125 121.792969 215.730469 123.421875 C 214.964844 125.054688 213.132812 127.132812 210.285156 128.660156 C 207.457031 130.207031 203.75 131.242188 199.609375 131.640625 C 195.496094 131.988281 190.8125 131.988281 186.078125 130.410156 C 181.375 128.828125 177.617188 125.960938 174.539062 123.335938 C 171.453125 120.675781 168.855469 118.242188 166.457031 116.503906 C 161.699219 112.957031 157.929688 112.253906 158.039062 111.785156 " fill-opacity="1" fill-rule="nonzero"/></svg>